<svg width="30" height="30" viewBox="0 0 30 30" fill="none" xmlns="http://www.w3.org/2000/svg">
<path d="M11.25 26.25C11.25 26.9375 11.8125 27.5 12.5 27.5H17.5C18.1875 27.5 18.75 26.9375 18.75 26.25V25H11.25V26.25ZM15 2.5C10.1688 2.5 6.25 6.41875 6.25 11.25C6.25 14.225 7.7375 16.8438 10 18.425V21.25C10 21.9375 10.5625 22.5 11.25 22.5H18.75C19.4375 22.5 20 21.9375 20 21.25V18.425C22.2625 16.8438 23.75 14.225 23.75 11.25C23.75 6.41875 19.8313 2.5 15 2.5ZM18.5687 16.375L17.5 17.1187V20H12.5V17.125L11.4313 16.3812C9.75 15.2062 8.75 13.2937 8.75 11.2563C8.75 7.8125 11.5562 5.00625 15 5.00625C18.4438 5.00625 21.25 7.8125 21.25 11.2563C21.25 13.2875 20.25 15.2 18.5687 16.375Z" fill="#010101"/>
</svg>
