<svg width="30" height="30" viewBox="0 0 30 30" fill="none" xmlns="http://www.w3.org/2000/svg">
<path d="M9.475 5.1L7.6875 3.3125C4.69375 5.59375 2.71875 9.11875 2.53125 13.125H5.03125C5.225 9.8125 6.93125 6.9125 9.475 5.1ZM24.9688 13.125H27.4688C27.2812 9.11875 25.3063 5.59375 22.3125 3.3125L20.5312 5.09375C23.0688 6.9125 24.775 9.8125 24.9688 13.125ZM22.5 13.75C22.5 9.90625 20.4563 6.7 16.875 5.85V5C16.875 3.9625 16.0375 3.125 15 3.125C13.9625 3.125 13.125 3.9625 13.125 5V5.85C9.54375 6.7 7.5 9.90625 7.5 13.75V20L5 22.5V23.75H25V22.5L22.5 20V13.75ZM15 27.5C15.175 27.5 15.3437 27.4812 15.5062 27.45C16.3187 27.2812 16.9875 26.7188 17.3062 25.975C17.4312 25.675 17.5 25.35 17.5 25H12.5C12.5 26.3813 13.6188 27.5 15 27.5Z" fill="#010101"/>
</svg>
