<svg width="56" height="56" viewBox="0 0 56 56" fill="none" xmlns="http://www.w3.org/2000/svg">
<mask id="path-1-outside-1_260_569" maskUnits="userSpaceOnUse" x="14" y="14" width="29" height="28" fill="black">
<rect fill="white" x="14" y="14" width="29" height="28"/>
<path d="M29.598 40.088H26.674C26.334 40.088 26.0847 39.8953 25.926 39.51L18.718 17.784C18.6047 17.4667 18.4233 17.308 18.174 17.308C17.8113 17.308 17.63 17.5007 17.63 17.886V39.51C17.63 39.8953 17.4487 40.088 17.086 40.088H15.692C15.3293 40.088 15.148 39.8953 15.148 39.51V16.084C15.148 15.6987 15.3293 15.506 15.692 15.506H19.772C20.0893 15.506 20.316 15.6873 20.452 16.05L27.592 36.79C27.7053 37.1073 27.8867 37.266 28.136 37.266C28.3853 37.266 28.5667 37.1073 28.68 36.79L35.82 16.05C35.956 15.6873 36.1827 15.506 36.5 15.506H40.58C40.9427 15.506 41.124 15.6987 41.124 16.084V39.51C41.124 39.8953 40.9427 40.088 40.58 40.088H39.186C38.8233 40.088 38.642 39.8953 38.642 39.51V17.886C38.642 17.5007 38.4607 17.308 38.098 17.308C37.8487 17.308 37.6673 17.4667 37.554 17.784L30.346 39.51C30.1873 39.8953 29.938 40.088 29.598 40.088Z"/>
</mask>
<path d="M29.598 40.088H26.674C26.334 40.088 26.0847 39.8953 25.926 39.51L18.718 17.784C18.6047 17.4667 18.4233 17.308 18.174 17.308C17.8113 17.308 17.63 17.5007 17.63 17.886V39.51C17.63 39.8953 17.4487 40.088 17.086 40.088H15.692C15.3293 40.088 15.148 39.8953 15.148 39.51V16.084C15.148 15.6987 15.3293 15.506 15.692 15.506H19.772C20.0893 15.506 20.316 15.6873 20.452 16.05L27.592 36.79C27.7053 37.1073 27.8867 37.266 28.136 37.266C28.3853 37.266 28.5667 37.1073 28.68 36.79L35.82 16.05C35.956 15.6873 36.1827 15.506 36.5 15.506H40.58C40.9427 15.506 41.124 15.6987 41.124 16.084V39.51C41.124 39.8953 40.9427 40.088 40.58 40.088H39.186C38.8233 40.088 38.642 39.8953 38.642 39.51V17.886C38.642 17.5007 38.4607 17.308 38.098 17.308C37.8487 17.308 37.6673 17.4667 37.554 17.784L30.346 39.51C30.1873 39.8953 29.938 40.088 29.598 40.088Z" fill="#D53147"/>
<path d="M25.926 39.51L24.9769 39.8249L24.9879 39.8582L25.0013 39.8907L25.926 39.51ZM18.718 17.784L19.6671 17.4691L19.6636 17.4583L19.6597 17.4477L18.718 17.784ZM20.452 16.05L21.3975 15.7245L21.3931 15.7116L21.3883 15.6989L20.452 16.05ZM27.592 36.79L26.6464 37.1155L26.6503 37.1263L27.592 36.79ZM28.68 36.79L29.6218 37.1264L29.6255 37.1155L28.68 36.79ZM35.82 16.05L34.8837 15.6989L34.8789 15.7116L34.8745 15.7245L35.82 16.05ZM37.554 17.784L36.6123 17.4477L36.6084 17.4583L36.6049 17.4691L37.554 17.784ZM30.346 39.51L31.2707 39.8907L31.2841 39.8582L31.2951 39.8249L30.346 39.51ZM29.598 39.088H26.674V41.088H29.598V39.088ZM26.674 39.088C26.6844 39.088 26.7109 39.0897 26.7467 39.1014C26.7835 39.1134 26.8169 39.1317 26.8434 39.1522C26.895 39.1921 26.8842 39.2106 26.8507 39.1292L25.0013 39.8907C25.1265 40.1947 25.3196 40.5023 25.6206 40.7348C25.9345 40.9774 26.3013 41.088 26.674 41.088V39.088ZM26.8751 39.1951L19.6671 17.4691L17.7689 18.0989L24.9769 39.8249L26.8751 39.1951ZM19.6597 17.4477C19.5674 17.189 19.4156 16.902 19.1555 16.6744C18.8757 16.4296 18.5317 16.308 18.174 16.308V18.308C18.1286 18.308 18.0686 18.3004 18.0025 18.2761C17.936 18.2516 17.8805 18.2164 17.8385 18.1796C17.7597 18.1107 17.7553 18.0616 17.7763 18.1203L19.6597 17.4477ZM18.174 16.308C17.8225 16.308 17.3793 16.4043 17.0378 16.7671C16.707 17.1186 16.63 17.5538 16.63 17.886H18.63C18.63 17.8329 18.6437 17.9791 18.4942 18.1379C18.334 18.3081 18.1628 18.308 18.174 18.308V16.308ZM16.63 17.886V39.51H18.63V17.886H16.63ZM16.63 39.51C16.63 39.5631 16.6163 39.4169 16.7658 39.2581C16.926 39.0879 17.0972 39.088 17.086 39.088V41.088C17.4375 41.088 17.8807 40.9917 18.2222 40.6289C18.553 40.2774 18.63 39.8422 18.63 39.51H16.63ZM17.086 39.088H15.692V41.088H17.086V39.088ZM15.692 39.088C15.6808 39.088 15.852 39.0879 16.0122 39.2581C16.1617 39.4169 16.148 39.5631 16.148 39.51H14.148C14.148 39.8422 14.225 40.2774 14.5558 40.6289C14.8973 40.9917 15.3405 41.088 15.692 41.088V39.088ZM16.148 39.51V16.084H14.148V39.51H16.148ZM16.148 16.084C16.148 16.0309 16.1617 16.1771 16.0122 16.3359C15.852 16.506 15.6808 16.506 15.692 16.506V14.506C15.3405 14.506 14.8973 14.6023 14.5558 14.9651C14.225 15.3166 14.148 15.7518 14.148 16.084H16.148ZM15.692 16.506H19.772V14.506H15.692V16.506ZM19.772 16.506C19.7552 16.506 19.721 16.5034 19.6768 16.4887C19.6314 16.4736 19.5896 16.4503 19.5553 16.4229C19.4884 16.3694 19.4904 16.3338 19.5157 16.4011L21.3883 15.6989C21.2776 15.4035 21.0982 15.096 20.8047 14.8611C20.4972 14.6151 20.1352 14.506 19.772 14.506V16.506ZM19.5065 16.3755L26.6465 37.1155L28.5375 36.4645L21.3975 15.7245L19.5065 16.3755ZM26.6503 37.1263C26.7426 37.385 26.8944 37.672 27.1545 37.8996C27.4343 38.1444 27.7783 38.266 28.136 38.266V36.266C28.1814 36.266 28.2414 36.2736 28.3075 36.2979C28.374 36.3224 28.4295 36.3576 28.4715 36.3944C28.5503 36.4633 28.5547 36.5124 28.5337 36.4537L26.6503 37.1263ZM28.136 38.266C28.4937 38.266 28.8377 38.1444 29.1175 37.8996C29.3776 37.672 29.5294 37.385 29.6217 37.1263L27.7383 36.4537C27.7173 36.5124 27.7218 36.4633 27.8005 36.3944C27.8425 36.3576 27.898 36.3224 27.9645 36.2979C28.0306 36.2736 28.0906 36.266 28.136 36.266V38.266ZM29.6255 37.1155L36.7655 16.3755L34.8745 15.7245L27.7345 36.4645L29.6255 37.1155ZM36.7563 16.4011C36.7816 16.3338 36.7836 16.3694 36.7167 16.4229C36.6824 16.4503 36.6406 16.4736 36.5952 16.4887C36.551 16.5034 36.5168 16.506 36.5 16.506V14.506C36.1368 14.506 35.7748 14.6151 35.4673 14.8611C35.1738 15.096 34.9944 15.4035 34.8837 15.6989L36.7563 16.4011ZM36.5 16.506H40.58V14.506H36.5V16.506ZM40.58 16.506C40.5912 16.506 40.42 16.506 40.2598 16.3359C40.1103 16.1771 40.124 16.0309 40.124 16.084H42.124C42.124 15.7518 42.047 15.3166 41.7162 14.9651C41.3747 14.6023 40.9315 14.506 40.58 14.506V16.506ZM40.124 16.084V39.51H42.124V16.084H40.124ZM40.124 39.51C40.124 39.5631 40.1103 39.4169 40.2598 39.2581C40.42 39.0879 40.5912 39.088 40.58 39.088V41.088C40.9315 41.088 41.3747 40.9917 41.7162 40.6289C42.047 40.2774 42.124 39.8422 42.124 39.51H40.124ZM40.58 39.088H39.186V41.088H40.58V39.088ZM39.186 39.088C39.1748 39.088 39.346 39.0879 39.5062 39.2581C39.6557 39.4169 39.642 39.5631 39.642 39.51H37.642C37.642 39.8422 37.719 40.2774 38.0498 40.6289C38.3913 40.9917 38.8345 41.088 39.186 41.088V39.088ZM39.642 39.51V17.886H37.642V39.51H39.642ZM39.642 17.886C39.642 17.5538 39.565 17.1186 39.2342 16.7671C38.8927 16.4043 38.4495 16.308 38.098 16.308V18.308C38.1092 18.308 37.938 18.3081 37.7778 18.1379C37.6283 17.9791 37.642 17.8329 37.642 17.886H39.642ZM38.098 16.308C37.7403 16.308 37.3963 16.4296 37.1165 16.6744C36.8564 16.902 36.7046 17.189 36.6123 17.4477L38.4957 18.1203C38.5167 18.0616 38.5123 18.1107 38.4335 18.1796C38.3915 18.2164 38.336 18.2516 38.2695 18.2761C38.2034 18.3004 38.1434 18.308 38.098 18.308V16.308ZM36.6049 17.4691L29.3969 39.1951L31.2951 39.8249L38.5031 18.0989L36.6049 17.4691ZM29.4213 39.1293C29.3878 39.2106 29.377 39.1921 29.4286 39.1522C29.4551 39.1317 29.4885 39.1134 29.5253 39.1014C29.5611 39.0897 29.5876 39.088 29.598 39.088V41.088C29.9707 41.088 30.3375 40.9774 30.6514 40.7348C30.9524 40.5023 31.1455 40.1947 31.2707 39.8907L29.4213 39.1293Z" fill="#D53147" mask="url(#path-1-outside-1_260_569)"/>
<rect x="1.5" y="1.5" width="53" height="53" stroke="#D53147" stroke-width="3"/>
</svg>
