<?xml version="1.0" encoding="UTF-8"?>
<svg width="108px" height="52px" viewBox="0 0 108 52" version="1.1" xmlns="http://www.w3.org/2000/svg" xmlns:xlink="http://www.w3.org/1999/xlink">
    <title>logo_culture_project</title>
    <g id="logo_culture_project" stroke="none" stroke-width="1" fill="none" fill-rule="evenodd">
        <path d="M66.49905,4 C68.423771,4 70,5.57644645 70,7.50463659 L70,44.4953635 C70,46.4235915 68.423771,48 66.49905,48 L3.50095,48 C1.57477,48 0,46.4235915 0,44.4953635 L0,7.50463659 C0,5.57644645 1.57477,4 3.50095,4 L66.49905,4 Z M66.49905,6.36317377 L3.50095,6.36317377 C2.881251,6.36317377 2.359242,6.88579037 2.359242,7.50463659 L2.359242,44.4953635 C2.359242,45.1156866 2.881251,45.6382653 3.50095,45.6382653 L66.49905,45.6382653 C67.115839,45.6382653 67.637841,45.1156866 67.637841,44.4953635 L67.637841,7.50463659 C67.637841,6.88579037 67.115839,6.36317377 66.49905,6.36317377 Z M35.016768,30.227173 L35.016768,37.8655932 C35.016768,38.688828 34.640554,39.3340322 33.92755,39.7251995 L32.36007,40.5966437 C31.980961,40.7966013 31.647047,40.8931718 31.333554,40.8931718 L30.177264,40.8931718 C29.916288,40.8931718 29.758787,40.7325997 29.758787,40.4654214 L29.758787,39.5663316 C29.758787,39.3035084 29.910422,39.1532372 30.177264,39.1532372 L32.686693,39.1532372 C32.807713,39.1532372 32.807713,39.1066562 32.807713,39.0687854 L32.807713,30.2275896 C32.807713,30.1253385 32.807713,29.8159722 33.185364,29.8159722 L34.607029,29.8159722 C34.868044,29.8159722 35.016768,29.9663192 35.016768,30.2275896 L35.016768,30.227173 Z M34.999382,27.3545616 L34.999382,28.4887533 C34.999382,28.6580356 34.929385,28.8610229 34.591114,28.8610229 L33.153404,28.8610229 C32.828214,28.8610229 32.788869,28.6493253 32.788869,28.4887533 L32.788869,27.3545616 C32.788869,26.9955468 33.016359,26.9415051 33.153404,26.9415051 L34.591114,26.9415051 C34.836065,26.9415051 34.999382,27.1066217 34.999382,27.3545616 Z M28.462508,31.6284671 C28.462508,31.5337903 28.445122,31.5046297 28.32686,31.5046297 L25.706593,31.5046297 C25.589882,31.5046297 25.57242,31.5349263 25.57242,31.6284671 L25.57242,36.0293154 C25.57242,36.0936958 25.57242,36.1137673 25.706593,36.1137673 L28.326838,36.1137673 C28.462447,36.1137673 28.462447,36.0948319 28.462447,36.0293154 L28.462508,31.6284671 Z M29.645046,36.6978481 L28.030905,37.5867887 C27.729109,37.7587219 27.393706,37.8393867 26.973767,37.8393867 L25.479119,37.8393867 C24.162433,37.8393867 23.347344,36.7636296 23.347344,35.7652047 L23.347344,32.7364144 C23.347344,31.9335919 23.71479,31.326372 24.438018,30.932251 L26.004038,30.0462643 C26.329229,29.8606975 26.684981,29.7660206 27.059721,29.7660206 L28.555749,29.7660206 C29.604141,29.7660206 30.686064,30.557141 30.686064,31.881103 L30.686064,34.8821341 C30.686064,35.6645063 30.333208,36.2746423 29.644967,36.6979238 L29.645046,36.6978481 Z M59.062626,36.5346251 C59.062626,36.7258725 58.961977,36.8747046 58.754972,36.9870672 L57.636591,37.6337105 C57.327463,37.8086735 56.996479,37.8878234 56.560499,37.8878234 L55.606848,37.8878234 C54.291622,37.8878234 53.475074,36.8193754 53.475074,35.8296986 L53.475074,28.8451929 C53.475074,28.6115303 53.577159,28.4627739 53.79879,28.3723007 L55.28899,28.0060904 C55.322628,27.9985162 55.354641,27.9947291 55.383743,27.9947291 C55.579182,27.9947291 55.717626,28.1276555 55.717626,28.317388 L55.717626,29.7698078 C55.717626,29.7925302 55.71904,29.8038914 55.71904,29.8118443 C55.724709,29.8118443 55.735292,29.8118443 55.751166,29.8146846 L58.345162,29.8146846 C58.611996,29.8146846 58.763642,29.9650315 58.763642,30.2263398 L58.763642,31.1809483 C58.763642,31.2623704 58.733028,31.5399632 58.345162,31.5399632 L55.822618,31.5399632 C55.742379,31.5399632 55.71766,31.5399632 55.71766,31.6785702 L55.71766,36.0619222 C55.71766,36.1202432 55.726731,36.1350127 55.726731,36.1350127 C55.726731,36.1350127 55.747141,36.1501611 55.822996,36.1501611 L58.641541,36.1501611 C58.906901,36.1501611 59.062939,36.2948274 59.062939,36.5354583 L59.062626,36.5346251 Z M52.168658,36.5346251 C52.168658,36.7406421 52.07237,36.8981845 51.885813,36.9885441 L50.752858,37.6220085 C50.455409,37.7916695 50.103989,37.8746065 49.682594,37.8746065 L47.603298,37.8746065 C46.279326,37.8746065 45.458409,36.7915026 45.458409,35.7887224 L45.458409,32.7862143 C45.458409,32.000964 45.837514,31.377649 46.549078,30.9820889 L48.128225,30.0829232 C48.438751,29.8958417 48.79021,29.8011648 49.172237,29.8011648 L51.763315,29.8011648 C51.877041,29.8011648 52.143887,29.8405503 52.143887,30.214259 L52.143887,31.1689054 C52.143887,31.3919642 52.000983,31.5248906 51.763315,31.5248906 L47.830765,31.5248906 C47.763716,31.5248906 47.714091,31.5400389 47.714091,31.6650124 L47.714091,36.0629825 C47.714091,36.1171378 47.714091,36.1489492 47.830765,36.1489492 L51.792481,36.1489492 C52.028702,36.1489492 52.168658,36.2936156 52.168658,36.5343221 L52.168658,36.5346251 Z M41.881596,31.6242635 C41.881596,31.5322375 41.852494,31.4708869 41.716846,31.4708869 L39.179714,31.4708869 C39.087871,31.4708869 39.044104,31.4898222 39.044104,31.6242635 L39.044104,32.9934811 C39.044104,33.0385473 39.044104,33.063542 39.179714,33.063542 L41.716846,33.063542 C41.881596,33.063542 41.881596,33.0196119 41.881596,32.9934811 L41.881596,31.6242635 Z M44.076065,31.9014775 L44.076065,33.2560012 C44.076065,34.2996818 43.120994,34.6397613 42.658773,34.6397613 L39.179835,34.6397613 C39.079224,34.6397613 39.063161,34.6662707 39.063161,34.7507226 L39.063161,36.0775628 C39.063161,36.153683 39.063161,36.1620146 39.179835,36.1620146 L43.567322,36.1620146 C43.819568,36.1620146 43.975594,36.3051661 43.975594,36.5342842 C43.975594,36.7372716 43.863304,36.8978436 43.660684,36.9896802 L42.546687,37.6202664 C42.257969,37.7921997 41.912403,37.8740005 41.460383,37.8740005 L38.984486,37.8740005 C37.809242,37.8740005 36.852715,36.9383653 36.852715,35.7881923 L36.852715,32.7578871 C36.852715,31.9492325 37.218687,31.3464056 37.94193,30.9639866 L39.506492,30.0676992 C39.830208,29.8806176 40.187434,29.7859407 40.562174,29.7859407 L41.900724,29.7859407 C42.803302,29.7859407 44.076243,30.442847 44.076243,31.901023 L44.076065,31.9014775 Z M23.033931,30.1162874 L23.033931,31.1818194 C23.033931,31.3988188 22.873565,31.5408342 22.628565,31.5408342 L19.820228,31.5408342 C19.745885,31.5408342 19.716745,31.5408342 19.716745,31.6646716 L19.716745,37.5018824 C19.716745,37.7310005 19.560726,37.874152 19.309928,37.874152 L17.872154,37.874152 C17.619908,37.874152 17.493041,37.7529655 17.493041,37.516652 L17.493041,30.2270972 C17.493041,29.8870178 17.700121,29.8154799 17.872154,29.8154799 L19.309864,29.8154799 C19.553379,29.8154799 19.716681,29.9805964 19.716681,30.2270972 L19.716681,30.44902 C19.716681,30.4910565 19.725752,30.5043113 19.725752,30.5043113 C19.725752,30.5043113 19.743137,30.5194596 19.820504,30.5194596 C19.854142,30.5194596 19.889027,30.5194596 19.913821,30.5043113 L20.724533,29.9861634 C21.075954,29.8081708 21.409849,29.7278848 21.788962,29.7278848 L22.628841,29.7278848 C22.872356,29.7278848 23.034195,29.8839123 23.034195,30.1132198 L23.033931,30.1162874 Z M14.005244,29.1499769 C14.005244,29.0534064 13.973118,29.018944 13.879839,29.018944 L10.075601,29.018944 C10.014373,29.018944 9.980848,29.018944 9.980848,29.1499769 L9.980848,32.237164 C9.980848,32.320101 9.980848,32.3276751 10.075601,32.3276751 L13.879835,32.3276751 C14.005244,32.3276751 14.005244,32.2935915 14.005244,32.237164 L14.005244,29.1499769 Z M16.354277,28.9693333 L16.354277,31.0128778 C16.354277,31.8915932 15.982447,32.5207025 15.216945,32.9352737 L13.561973,33.8796571 C13.252846,34.0561348 12.901448,34.1364208 12.456722,34.1364208 L10.075608,34.1364208 C10.028969,34.1364208 9.980856,34.1364208 9.980856,34.2545777 L9.980856,37.4863175 C9.980856,37.5783434 9.94873,37.8745308 9.523007,37.8745308 L8.012391,37.8745308 C7.768876,37.8745308 7.646419,37.7480424 7.646419,37.4980953 L7.646419,27.6132948 C7.646419,27.2614753 7.876781,27.2103876 8.012391,27.2103876 L9.523004,27.2103876 C9.795697,27.2103876 9.980856,27.370581 9.980856,27.6132948 L9.980856,27.8397619 C9.980856,27.9067931 9.993706,27.9257286 9.993706,27.9257286 C10.003911,27.9181544 10.025832,27.9143673 10.059319,27.9067931 L13.910215,27.1287761 C14.137667,27.0909054 14.311197,27.0689403 14.443884,27.0689403 C15.237101,27.0689403 16.354024,27.658626 16.354024,28.969409 L16.354277,28.9693333 Z M57.342049,18.1298864 L59.95354,18.1298864 C60.125584,18.1298864 60.125584,18.0802757 60.125584,18.0511152 L60.125584,16.6411108 C60.125584,16.525605 60.075996,16.4790239 59.95354,16.4790239 L57.342049,16.4790239 C57.242912,16.4790239 57.197671,16.5017464 57.197671,16.6411108 L57.197671,18.0511531 C57.197671,18.1007638 57.197671,18.1299243 57.342049,18.1299243 L57.342049,18.1298864 Z M57.213696,19.8610729 L57.213696,21.2302147 C57.213696,21.3089859 57.213696,21.3222406 57.342049,21.3222406 L61.863683,21.3222406 C62.1699,21.3222406 62.280704,21.5150029 62.280704,21.6990548 C62.280704,21.9077227 62.163993,22.0728393 61.954078,22.1646381 L60.808,22.8127204 C60.513499,22.9907131 60.156217,23.0755436 59.689619,23.0755436 L57.136454,23.0755436 C55.929125,23.0755436 54.947808,22.1121491 54.947808,20.9297859 L54.947808,17.8105222 C54.947808,16.9814175 55.325459,16.3596174 56.067652,15.9655342 L57.677414,15.0430022 C58.012771,14.8502401 58.378769,14.7540483 58.766628,14.7540483 L60.141639,14.7540483 C61.047131,14.7540483 62.381312,15.4429933 62.381312,16.9274517 L62.381312,18.3243528 C62.381312,19.3972316 61.399999,19.7417042 60.923189,19.7417042 L57.342045,19.7417042 C57.232703,19.7417042 57.213692,19.7757878 57.213692,19.8609971 L57.213696,19.8610729 Z M48.984084,22.7117949 L48.984084,15.2047483 C48.984084,14.8559586 49.194037,14.7814667 49.371943,14.7814667 L50.852074,14.7814667 C51.10141,14.7814667 51.266174,14.9511278 51.266174,15.2047483 L51.266174,15.4312155 C51.266174,15.4971107 51.266174,15.5099867 51.381374,15.5099867 C51.4135,15.5099867 51.445551,15.5099867 51.467396,15.4948384 L52.313104,14.9591564 C52.673255,14.7766192 53.015914,14.696712 53.403781,14.696712 L54.274274,14.696712 C54.520699,14.696712 54.686923,14.8527396 54.686923,15.0878791 L54.686923,16.1855633 C54.686923,16.4055925 54.525046,16.5491227 54.274274,16.5491227 L51.381318,16.5491227 C51.29968,16.5491227 51.266118,16.5566968 51.266118,16.6847001 L51.266118,22.6955483 C51.266118,22.9276961 51.108625,23.0734986 50.85201,23.0734986 L49.372019,23.0734986 C49.113915,23.0734986 48.984156,22.9507973 48.984156,22.7099392 L48.984084,22.7117949 Z M46.235525,23.0753543 L44.770115,23.0753543 C44.507665,23.0753543 44.383711,22.9515168 44.383711,22.697404 L44.383711,22.4682859 C44.383711,22.4232196 44.371995,22.4057991 44.368971,22.4023907 C44.345916,22.4009138 44.332688,22.4023907 44.306307,22.4137519 L41.476094,23.1596545 C41.312781,23.2062356 41.136352,23.2062356 40.980334,23.2062356 C39.968399,23.2062356 39.147474,22.4034511 39.147474,21.4181295 L39.147474,15.2074371 C39.147474,14.8381972 39.39681,14.7840798 39.545542,14.7840798 L41.026996,14.7840798 C41.258832,14.7840798 41.409019,14.9503325 41.409019,15.2074371 L41.409019,21.2182854 C41.409019,21.2826657 41.409019,21.3103114 41.554833,21.3103114 L44.239235,21.3103114 C44.383575,21.3103114 44.383575,21.257671 44.383575,21.2182854 L44.383575,15.2074371 C44.383575,14.8582687 44.593566,14.7840798 44.769979,14.7840798 L46.235389,14.7840798 C46.490582,14.7840798 46.649493,14.9465455 46.649493,15.2074371 L46.649493,22.7144458 C46.649493,22.8238923 46.608674,23.0776265 46.235389,23.0776265 L46.235525,23.0753543 Z M37.193719,22.1601314 L36.038885,22.827225 C35.726885,23.0067324 35.375441,23.0911842 34.936551,23.0911842 L33.950858,23.0911842 C32.600641,23.0911842 31.762217,21.9920988 31.762217,20.9732237 L31.762217,13.7800122 C31.762217,13.5376393 31.864302,13.3888071 32.091754,13.2968948 L33.622761,12.9200806 C33.885211,12.8617597 34.058741,13.0121066 34.058741,13.2355441 L34.058741,14.7331437 C34.058741,14.7558661 34.061655,14.7725293 34.0663,14.7797247 C34.067714,14.7797247 34.078017,14.7811259 34.099938,14.7811259 L36.771213,14.7811259 C37.042432,14.7811259 37.19844,14.9345026 37.19844,15.2044454 L37.19844,16.1868131 C37.19844,16.2962596 37.157621,16.5503724 36.771213,16.5503724 L34.174137,16.5503724 C34.0925,16.5503724 34.058937,16.5503724 34.058937,16.6980684 L34.058937,21.2157102 C34.058937,21.2990259 34.058937,21.3077361 34.174137,21.3077361 L37.077257,21.3077361 C37.345566,21.3077361 37.507401,21.4524025 37.507401,21.6989033 C37.507401,21.898861 37.405316,22.049208 37.193889,22.1601693 L37.193719,22.1601314 Z M27.160389,22.7119085 L27.160389,12.4490062 C27.160389,12.1892127 27.316408,12.0272015 27.573041,12.0272015 L29.03991,12.0272015 C29.257157,12.0272015 29.42631,12.2127683 29.42631,12.4490062 L29.42631,22.7119085 C29.42631,22.9308015 29.273201,23.0754678 29.03991,23.0754678 L27.572988,23.0754678 C27.298859,23.0754678 27.160336,22.9527666 27.160336,22.7119085 L27.160389,22.7119085 Z M24.379756,23.0754678 L22.911429,23.0754678 C22.653325,23.0754678 22.525025,22.9516305 22.525025,22.6975176 L22.525025,22.4683995 C22.525025,22.4168952 22.514442,22.4025043 22.513308,22.4025043 C22.491387,22.4010274 22.473926,22.4025043 22.449132,22.4138656 L19.623296,23.1597303 C19.457073,23.2063113 19.28208,23.2063113 19.127532,23.2063113 C18.112679,23.2063113 17.290303,22.4035269 17.290303,21.4182052 L17.290303,15.207475 C17.290303,14.8382351 17.539639,14.7841556 17.688367,14.7841556 L19.1684,14.7841556 C19.362365,14.7841556 19.5548,14.9151885 19.5548,15.207475 L19.5548,21.2183612 C19.5548,21.2853924 19.5548,21.3103871 19.697704,21.3103871 L22.383561,21.3103871 C22.524991,21.3103871 22.524991,21.2619125 22.524991,21.2183612 L22.524991,15.207475 C22.524991,14.8586852 22.734981,14.7841556 22.911395,14.7841556 L24.379722,14.7841556 C24.633442,14.7841556 24.793826,14.9462425 24.793826,15.207475 L24.793826,22.7145216 C24.793826,22.7989733 24.763212,23.0777023 24.379722,23.0777023 L24.379756,23.0754678 Z M7.615665,20.8743052 L7.615665,15.473555 C7.615665,14.6138129 8.002144,13.9555053 8.763281,13.5190826 L10.483865,12.5907186 C10.788647,12.4081815 11.173557,12.3032794 11.565785,12.3032794 L15.203804,12.3032794 C15.463344,12.3032794 15.617912,12.4551412 15.617912,12.7119808 L15.617912,13.7497913 C15.617912,13.9864836 15.463367,14.1292564 15.203804,14.1292564 L10.111983,14.1292564 C10.047806,14.1292564 10.012846,14.1292564 10.012846,14.2633189 L10.012846,21.1295921 C10.012846,21.248885 10.035145,21.248885 10.111983,21.248885 L15.349558,21.248885 C15.600367,21.248885 15.765117,21.3935513 15.765117,21.6135805 C15.765117,21.8324735 15.655775,22.0077015 15.450206,22.117186 L14.190388,22.7988219 C13.85503,22.9843887 13.490491,23.0748998 13.077838,23.0748998 L9.907828,23.0748998 C8.796741,23.0748998 7.615665,22.3042296 7.615665,20.8737751 L7.615665,20.8743052 Z" id="cu_b" fill="#000000" fill-rule="nonzero"></path>
    </g>
</svg>