<?xml version="1.0" encoding="UTF-8"?>
<svg width="108px" height="52px" viewBox="0 0 108 52" version="1.1" xmlns="http://www.w3.org/2000/svg" xmlns:xlink="http://www.w3.org/1999/xlink">
    <title>logo_vinyl_plastic</title>
    <defs>
        <rect id="path-1" x="0" y="0" width="108" height="52"></rect>
    </defs>
    <g id="Page-1" stroke="none" stroke-width="1" fill="none" fill-rule="evenodd">
        <g id="PCCUL000100_컬처서브메인" transform="translate(-1286.000000, -957.000000)">
            <g id="Group-5" transform="translate(368.000000, 944.000000)">
                <g id="Group" transform="translate(918.000000, -0.000000)">
                    <g id="logo_vinyl_plastic" transform="translate(0.000000, 13.000000)">
                        <mask id="mask-2" fill="white">
                            <use xlink:href="#path-1"></use>
                        </mask>
                        <use id="Mask" fill="#FFFFFF" xlink:href="#path-1"></use>
                        <g id="Group" mask="url(#mask-2)">
                            <g transform="translate(-15.000000, -11.000000)" id="Brand/Space/Vinyl&amp;Plastic">
                                <g id="Group" transform="translate(15.555556, 13.104167)" fill="#000000">
                                    <path d="M59.1773355,25.3598592 L58.6839381,45.7187392 L66.1470208,45.8951552 L66.6392235,25.5374592 L59.1773355,25.3598592 Z M63.7206528,43.3957312 L61.2297728,43.3353472 L61.6060928,27.8616512 L64.0933888,27.9184832 L63.7206528,43.3957312 Z" id="Fill-1"></path>
                                    <path d="M0.992768,25.7726016 L0.482645333,46.1302976 L13.1019093,46.4334016 L13.6108373,26.0757056 L0.992768,25.7726016 Z M10.941952,33.0885376 C10.902528,34.8455936 10.4378027,37.6208896 7.52401067,37.5510336 L5.67586133,37.5060416 L5.51936,43.8061056 L3.032064,43.7504576 L3.42152533,28.2743936 L7.90152533,28.3821376 C10.1725867,28.4366016 11.0148267,30.2575936 10.941952,33.0885376 L10.941952,33.0885376 Z" id="Fill-2"></path>
                                    <path d="M7.09727573,30.7433888 L5.84884907,30.7126048 L5.7365504,35.1289248 L7.11519573,35.1620768 C7.8582784,35.1786528 8.39826773,34.1414688 8.42216107,33.1137568 C8.4568064,31.8504288 8.2166784,30.7694368 7.09727573,30.7433888" id="Fill-4"></path>
                                    <path d="M12.2577579,45.123424 L23.4470059,45.123424 L23.4470059,24.75744 L12.2577579,24.75744 L12.2577579,45.123424 Z M20.9644885,42.679648 L14.7462485,42.679648 L14.7462485,27.201216 L17.2395179,27.201216 L17.2395179,40.106816 L20.9644885,40.106816 L20.9644885,42.679648 Z" id="Fill-6"></path>
                                    <path d="M36.9103019,26.3814144 L22.1286912,26.5957184 L22.4333312,46.9569664 L37.2161365,46.7462144 L36.9103019,26.3814144 Z M32.0719019,44.3758464 L31.3574912,40.9552704 L27.9682219,41.0061824 L27.3422165,44.4445184 L24.8871765,44.4800384 L27.9503019,28.9566144 L31.2320512,28.9092544 L34.6906112,44.3379584 L32.0719019,44.3758464 Z" id="Fill-8"></path>
                                    <polygon id="Fill-9" points="29.4646613 31.914128 28.4241067 38.617936 30.7967147 38.5836 29.4933333 31.914128"></polygon>
                                    <path d="M35.5792043,24.8789184 L35.2411136,45.2377984 L47.9105536,45.4449984 L48.2510336,25.0825664 L35.5792043,24.8789184 Z M41.3088256,43.1527744 C38.2301696,43.1018624 37.6913749,40.7374144 37.8693803,38.0580224 L40.3530923,38.0994624 C40.3280043,39.5770944 40.3578709,40.8226624 41.7233749,40.8416064 C42.5644203,40.8558144 42.9921109,40.1584384 43.0076416,39.1058624 C43.0518443,36.3199104 38.0509696,36.0689024 38.1250389,31.4595904 C38.1680469,29.0347584 39.0891349,27.1202304 42.1164203,27.1711424 C44.5403989,27.2090304 45.7207296,28.6440384 45.5033003,31.8775424 L43.0829056,31.8372864 C43.0996309,30.6805184 42.9706069,29.4977024 41.9670869,29.4834944 C41.1594923,29.4704704 40.6720683,30.0399744 40.6541483,31.1126784 C40.6039723,34.0489984 45.6179883,33.8749504 45.5355563,38.7388224 C45.4662656,42.7502144 43.2035669,43.1835584 41.3088256,43.1527744 L41.3088256,43.1527744 Z" id="Fill-10"></path>
                                    <path d="M47.1157419,25.9889184 L46.4300032,46.3430624 L59.4255872,46.7633824 L60.1089365,26.4092384 L47.1157419,25.9889184 Z M57.4567765,31.3417824 L54.6863445,31.2529824 L54.2490965,44.1514784 L51.7677739,44.0709664 L52.1978539,31.1701024 L49.4357845,31.0836704 L49.5206059,28.5132064 L57.5415979,28.7713184 L57.4567765,31.3417824 Z" id="Fill-11"></path>
                                    <path d="M66.1761707,26.5669472 L65.7938773,46.9305632 L78.464512,47.1602592 L78.848,26.7978272 L66.1761707,26.5669472 Z M72.425472,44.8644832 C68.3205973,44.7887072 68.3982507,40.8471712 68.4747093,36.7943392 C68.551168,32.7000672 68.6216533,28.7976032 72.722944,28.8745632 C75.2628053,28.9219232 76.2496,30.7606752 76.0859307,34.0794272 L73.6488107,34.0368032 C73.6918187,31.9778272 73.425408,31.2023072 72.6823253,31.1880992 C71.2809813,31.1620512 71.0695253,32.8752992 70.9966507,36.8381472 C70.920192,40.8069152 71.067136,42.5237152 72.4708693,42.5485792 C73.6213333,42.5698912 73.611776,40.6387872 73.6607573,39.4180832 L76.120576,39.4630752 C76.0429227,43.5999712 74.7490987,44.9059232 72.425472,44.8644832 L72.425472,44.8644832 Z" id="Fill-12"></path>
                                    <path d="M7.336448,15.7907712 L9.10097067,4.4847552 L11.5500373,4.4172672 L8.83575467,19.9738432 L5.92913067,20.0555392 L2.56136533,4.6611712 L5.14542933,4.5913152 L7.31016533,15.7919552 L7.336448,15.7907712 Z M0,2.2872512 L0.577024,22.6437632 L14.5390933,22.2648832 L13.9692373,1.9083712 L0,2.2872512 Z" id="Fill-13"></path>
                                    <path d="M15.6507307,17.974304 L16.0246613,2.500608 L18.5191253,2.558624 L18.1451947,18.031136 L15.6507307,17.974304 Z M13.599488,0 L13.1108693,20.357696 L20.5727573,20.535296 L21.0601813,0.172864 L13.599488,0 Z" id="Fill-14"></path>
                                    <path d="M19.0684331,1.5613408 L18.4221184,21.9131168 L32.2647211,22.3405408 L32.9146197,1.9840288 L19.0684331,1.5613408 Z M29.8562731,19.8209888 L26.8564651,19.7286368 L23.6774571,8.8535968 L23.6487851,8.8512288 L23.3011371,19.6208928 L20.9787051,19.5486688 L21.4732971,4.0773408 L24.8350891,4.1815328 L27.6580864,14.9914528 L27.6843691,14.9938208 L28.0332117,4.2786208 L30.3556437,4.3484768 L29.8562731,19.8209888 Z" id="Fill-15"></path>
                                    <path d="M32.0784725,21.230304 L45.9855872,21.230304 L45.9855872,0.865504 L32.0784725,0.865504 L32.0784725,21.230304 Z M40.1735339,13.427744 L40.1735339,18.788896 L37.6814592,18.788896 L37.6814592,13.427744 L34.5717419,3.30928 L37.2884139,3.30928 L39.0660779,9.846144 L40.9596245,3.30928 L43.5006805,3.30928 L40.1735339,13.427744 Z" id="Fill-16"></path>
                                    <path d="M45.54368,2.2076864 L44.1339733,22.5227584 L55.299328,23.2686784 L56.70784,2.9524224 L45.54368,2.2076864 Z M52.984064,20.6662464 L46.7897173,20.2506624 L47.85536,4.8077504 L50.3438507,4.9746944 L49.4442667,17.8506944 L53.1608747,18.1005184 L52.984064,20.6662464 Z" id="Fill-17"></path>
                                    <path d="M59.1997952,21.849536 L74.9550592,21.849536 L74.9550592,1.417248 L59.1997952,1.417248 L59.1997952,21.849536 Z M70.0115285,19.398656 L69.2863659,18.173216 C68.3425792,19.37616 67.2339285,19.657952 65.9556352,19.657952 C63.2174592,19.657952 61.6942592,17.980224 61.6942592,14.946816 C61.6942592,12.880736 62.7993259,11.56768 64.0429739,10.515104 C63.4145792,9.461344 62.7204779,8.235904 62.7204779,6.622112 C62.7204779,4.899392 64.2878805,3.610016 66.3212032,3.610016 C67.4609152,3.610016 69.3496832,4.299104 69.3496832,6.641056 C69.3496832,8.66688 68.2756779,9.698144 67.3199445,10.817024 L69.1872085,14.0008 C69.3998592,12.990848 69.4476459,12.407136 69.4476459,10.903456 L71.4630485,10.903456 C71.4630485,12.517248 71.4630485,14.538336 70.6566485,16.216064 L72.4605952,19.398656 L70.0115285,19.398656 Z M67.0654805,6.881408 C67.0654805,6.06208 66.6867712,5.545856 66.0392619,5.545856 C65.5088299,5.545856 64.9999019,6.040768 64.9999019,6.773664 C64.9999019,7.655744 65.4502912,8.36496 65.8755925,9.01024 C66.4550059,8.535456 67.0654805,7.848736 67.0654805,6.881408 L67.0654805,6.881408 Z M64.1875285,14.946816 C64.1875285,16.430368 64.8672939,17.33376 66.0105899,17.33376 C66.7166379,17.33376 67.4011819,17.034208 67.8264832,16.302496 L65.3941419,12.429632 C64.8051712,13.031104 64.1875285,13.915552 64.1875285,14.946816 L64.1875285,14.946816 Z" id="Fill-18"></path>
                                </g>
                            </g>
                        </g>
                    </g>
                </g>
            </g>
        </g>
    </g>
</svg>