<?xml version="1.0" encoding="UTF-8"?>
<svg width="108px" height="52px" viewBox="0 0 108 52" version="1.1" xmlns="http://www.w3.org/2000/svg" xmlns:xlink="http://www.w3.org/1999/xlink">
    <title>logo_understage</title>
    <defs>
        <rect id="path-1" x="0" y="0" width="108" height="52"></rect>
        <polygon id="path-3" points="0 0 8.68355344 0 8.68355344 10.2496476 0 10.2496476"></polygon>
        <polygon id="path-5" points="0 0 92.5 0 92.5 28.559557 0 28.559557"></polygon>
    </defs>
    <g id="Page-1" stroke="none" stroke-width="1" fill="none" fill-rule="evenodd">
        <g id="PCCUL000100_컬처서브메인" transform="translate(-368.000000, -1588.000000)">
            <g id="Group-5" transform="translate(368.000000, 944.000000)">
                <g id="Group" transform="translate(0.000000, 631.000000)">
                    <g id="logo_understage" transform="translate(0.000000, 13.000000)">
                        <mask id="mask-2" fill="white">
                            <use xlink:href="#path-1"></use>
                        </mask>
                        <use id="Mask" fill="#FFFFFF" xlink:href="#path-1"></use>
                        <g id="Group" mask="url(#mask-2)">
                            <g transform="translate(-7.000000, -11.000000)" id="Brand/Space/Understage">
                                <g id="Group" transform="translate(7.708333, 16.187500)">
                                    <g id="Group-3" transform="translate(0.000000, 31.375352)">
                                        <mask id="mask-4" fill="white">
                                            <use xlink:href="#path-3"></use>
                                        </mask>
                                        <g id="Clip-2"></g>
                                        <path d="M4.36281487,10.2496476 C6.98542023,10.2496476 8.68355344,8.65390319 8.68355344,6.18636721 L8.68355344,0 L5.94029918,0 L5.94029918,5.99432921 C5.94029918,6.55215389 5.87695851,7.84612427 4.34773376,7.84612427 L4.33265265,7.84612427 C2.8034279,7.84612427 2.73857911,6.55215389 2.73857911,5.99432921 L2.73857911,0 L-0.000150811119,0 L-0.000150811119,6.18636721 C-0.000150811119,8.65390319 1.69647428,10.2496476 4.32058776,10.2496476 L4.36281487,10.2496476 Z" id="Fill-1" fill="#000000" mask="url(#mask-4)"></path>
                                    </g>
                                    <path d="M23.1979172,33.6679204 L24.2339896,33.6679204 C25.62296,33.6679204 27.2848985,34.1312502 27.2848985,36.3442596 C27.2848985,38.6944391 25.3364188,39.0449846 24.1781895,39.0449846 L23.1979172,39.0449846 L23.1979172,33.6679204 Z M24.2867735,31.3756572 L20.6039659,31.3756572 L20.6039659,41.3616336 L24.3998818,41.3616336 C27.2019524,41.3616336 30.0326771,39.8116125 30.0326771,36.3442596 C30.0326771,31.8603246 26.016577,31.3756572 24.2867735,31.3756572 L24.2867735,31.3756572 Z" id="Fill-4" fill="#000000"></path>
                                    <path d="M42.0461401,33.5552886 L43.1591261,33.5552886 C44.1092362,33.5552886 44.5918317,33.8723037 44.5918317,34.4910929 C44.5918317,35.1769429 44.0655009,35.5259644 43.0203799,35.5259644 L42.0461401,35.5259644 L42.0461401,33.5552886 Z M45.259925,37.1491427 C46.507133,36.7041023 47.2159452,35.7286711 47.2159452,34.4529901 C47.2159452,32.4960314 45.7968126,31.3758097 43.3220021,31.3758097 L39.4476645,31.3758097 L39.4476645,41.361786 L42.0536806,41.361786 L42.0536806,37.5134053 L42.6327953,37.5134053 L44.7471672,41.361786 L47.8584006,41.361786 L45.259925,37.1491427 Z" id="Fill-6" fill="#000000"></path>
                                    <polygon id="Fill-8" fill="#000000" points="57.2163813 31.3761145 57.2163813 33.6683777 59.9792411 33.6683777 59.9792411 41.3620908 62.636533 41.3620908 62.636533 33.6683777 65.3993927 33.6683777 65.3993927 31.3761145"></polygon>
                                    <path d="M70.6124806,37.2928664 L68.5659738,37.2928664 L69.5990299,34.5250806 L70.6124806,37.2928664 Z M70.8869569,31.3762669 L68.4000815,31.3762669 L64.1713377,41.3622432 L67.0593707,41.3622432 L67.7787397,39.4616766 L71.3725687,39.4616766 L72.1311486,41.3622432 L75.0749817,41.3622432 L70.8869569,31.3762669 Z" id="Fill-10" fill="#000000"></path>
                                    <polygon id="Fill-12" fill="#000000" points="88.1691571 39.0727234 88.1691571 37.3504778 92.4959281 37.3504778 92.4959281 35.1816676 88.1691571 35.1816676 88.1691571 33.6545083 92.4687821 33.6545083 92.4687821 31.3759621 85.6008437 31.3759621 85.6008437 41.3619384 92.4959281 41.3619384 92.4959281 39.0727234"></polygon>
                                    <polygon id="Fill-14" fill="#000000" points="33.6509375 39.0727234 33.6509375 37.3504778 37.9792166 37.3504778 37.9792166 35.1816676 33.6509375 35.1816676 33.6509375 33.6545083 37.9490544 33.6545083 37.9490544 31.3759621 31.081116 31.3759621 31.081116 41.3619384 37.9792166 41.3619384 37.9792166 39.0727234"></polygon>
                                    <path d="M53.1895737,35.1775525 C52.2138257,34.8742544 51.784014,34.6822164 51.784014,34.1777356 C51.784014,33.4339694 52.6406212,33.3501433 53.0070922,33.3501433 C53.8094074,33.3501433 54.5287764,33.7144058 54.9797016,34.0116075 L56.4666993,32.4585382 L56.3596234,32.3609951 C55.5241298,31.5989395 54.2588245,31.1279892 53.0508274,31.1279892 C51.0948072,31.1279892 49.1176734,32.112565 49.1176734,34.3149056 C49.1176734,36.1560319 50.4357626,36.8220685 51.7508356,37.2442473 C53.0704329,37.664902 53.9692671,37.8767534 53.9692671,38.4787773 C53.9692671,39.269791 52.8939839,39.3856235 52.4415505,39.3856235 C52.3465395,39.3856235 52.2530366,39.3780029 52.150485,39.36581 C51.5638298,39.36581 50.6046711,38.8018889 50.129616,38.4955425 L48.5762615,40.065377 L48.6727806,40.1674925 C49.5293878,41.0560493 50.9726502,41.6108258 52.4415505,41.6108258 C54.5921171,41.6108258 56.6506888,40.7237931 56.6506888,38.2318713 C56.6506888,36.1804177 54.5197277,35.5997313 53.1895737,35.1775525" id="Fill-16" fill="#000000"></path>
                                    <path d="M79.8204043,35.3462716 L79.8204043,37.5272747 L81.687446,37.5272747 L81.687446,39.0513859 C81.3194669,39.1885559 80.8610011,39.2617132 80.3497514,39.2617132 C78.595818,39.2617132 77.5069618,38.147588 77.5069618,36.3537091 C77.5069618,34.6817592 78.6531263,33.4746631 80.2381511,33.4746631 C81.1807206,33.4746631 81.9830358,33.8145399 82.596837,34.2732974 L84.1305861,32.540383 L84.0325589,32.4428399 C83.1729355,31.6228681 81.6934784,31.1153391 80.1582212,31.1153391 C76.9444363,31.1153391 74.6988587,33.2704322 74.6988587,36.3537091 C74.6988587,39.4461307 76.9761066,41.6103685 80.2245781,41.6103685 C81.6422027,41.6103685 83.0040271,41.3055463 84.0642292,40.7568663 L84.1441591,40.7172394 L84.1441591,35.3462716 L79.8204043,35.3462716 Z" id="Fill-18" fill="#000000"></path>
                                    <polygon id="Fill-20" fill="#000000" points="16.6454757 31.3761145 16.6454757 37.3186239 12.9566357 31.3761145 10.0339162 31.3761145 10.0339162 41.3620908 12.6188188 41.3620908 12.6142944 41.104516 12.6142944 35.4028162 16.3227399 41.3620908 19.2288701 41.3620908 19.2288701 31.3761145"></polygon>
                                    <g id="Group-24">
                                        <mask id="mask-6" fill="white">
                                            <use xlink:href="#path-5"></use>
                                        </mask>
                                        <g id="Clip-23"></g>
                                        <path d="M0,-0.000762055582 L0,28.559557 L2.74476237,28.559557 L2.74476237,2.67405304 L89.7537295,2.67405304 L89.7537295,28.559557 L92.5,28.559557 L92.5,-0.000762055582 L0,-0.000762055582 Z M5.49254096,28.559557 L8.23881145,28.559557 L8.23881145,8.25992045 L84.2581723,8.25992045 L84.2581723,28.559557 L87.0044428,28.559557 L87.0044428,5.58662947 L5.49254096,5.58662947 L5.49254096,28.559557 Z M10.9896063,28.559557 L13.7313524,28.559557 L13.7313524,13.847312 L78.7686476,13.847312 L78.7686476,28.559557 L81.5088856,28.559557 L81.5088856,11.1724969 L10.9896063,11.1724969 L10.9896063,28.559557 Z M16.4866716,28.559557 L19.2284177,28.559557 L19.2284177,19.4331794 L73.2715823,19.4331794 L73.2715823,28.559557 L76.0163447,28.559557 L76.0163447,16.7568402 L16.4866716,16.7568402 L16.4866716,28.559557 Z" id="Fill-22" fill="#000000" mask="url(#mask-6)"></path>
                                    </g>
                                </g>
                            </g>
                        </g>
                    </g>
                </g>
            </g>
        </g>
    </g>
</svg>