<?xml version="1.0" encoding="UTF-8"?>
<svg width="108px" height="52px" viewBox="0 0 108 52" version="1.1" xmlns="http://www.w3.org/2000/svg" xmlns:xlink="http://www.w3.org/1999/xlink">
    <title>logo_music_library</title>
    <defs>
        <rect id="path-1" x="0" y="0" width="108" height="52"></rect>
    </defs>
    <g id="Page-1" stroke="none" stroke-width="1" fill="none" fill-rule="evenodd">
        <g id="PCCUL000100_컬처서브메인" transform="translate(-674.000000, -957.000000)">
            <g id="Group-5" transform="translate(368.000000, 944.000000)">
                <g id="Group" transform="translate(306.000000, -0.000000)">
                    <g id="logo_music_library" transform="translate(0.000000, 13.000000)">
                        <mask id="mask-2" fill="white">
                            <use xlink:href="#path-1"></use>
                        </mask>
                        <use id="Mask" fill="#FFFFFF" xlink:href="#path-1"></use>
                        <g id="Group" mask="url(#mask-2)">
                            <g transform="translate(-7.000000, -8.000000)" id="Brand/Space/MusicLibrary">
                                <g id="Group" transform="translate(7.847222, 15.625000)" fill="#000000">
                                    <path d="M3.2829664,37.6676449 C0.931361067,37.67124 0.0683424,35.67924 0.0671370667,34.40964 L0.0599050667,21.43404 C0.0599050667,21.16164 0.170795733,21.02484 0.4371744,21.02484 L2.7622624,21.02364 C3.0298464,21.02364 3.18412907,21.15804 3.18412907,21.43044 L3.19377173,34.81524 C3.19377173,35.10804 3.30345707,35.24364 3.5903264,35.24364 L11.0597771,35.23884 C11.3249504,35.23884 11.5021344,35.35164 11.5021344,35.57844 C11.5021344,35.83044 11.3466464,36.03324 11.1284811,36.16764 L9.2457504,37.25724 C8.7105824,37.55244 8.1790304,37.66524 7.60288107,37.66524 L3.2829664,37.6676449 Z" id="Fill-1"></path>
                                    <path d="M15.6494453,37.2984 C15.6494453,37.5708 15.4939573,37.662 15.2275787,37.662 L12.8807947,37.6632 C12.657808,37.6632 12.5686133,37.5732 12.5686133,37.302 L12.563792,21.4008 C12.563792,21.1536 12.6481653,21.0179687 12.871152,21.0179687 L15.2239627,21.0179687 C15.489136,21.0156 15.6422133,21.1512 15.6422133,21.3996 L15.6494453,37.2984 Z" id="Fill-4"></path>
                                    <path d="M31.7772875,23.56704 L31.7784928,25.80864 C31.7784928,26.80584 31.4036341,27.68784 30.6490955,28.32264 C30.5611061,28.41624 30.4948128,28.50504 30.4948128,28.66344 C30.4948128,28.81824 30.5611061,28.90944 30.6719968,28.97904 C31.4277408,29.63424 31.8279193,30.49464 31.8279193,31.56384 L31.8279193,32.83104 C31.8303221,34.09704 31.2734581,35.07144 30.1669621,35.72784 L27.6212981,37.24824 C27.1102368,37.54344 26.5786848,37.65744 25.9543221,37.65744 L18.9549515,37.65864 C18.7090635,37.65864 18.6198688,37.56984 18.6198688,37.29744 L18.6126368,21.42384 C18.6126368,21.15144 18.6994208,21.01584 18.9453088,21.01584 L21.2487008,21.01584 C21.5150795,21.01344 21.6717728,21.14904 21.6717728,21.41904 L21.6717728,21.78264 C21.6717728,22.07664 21.8043595,22.18824 22.1370315,22.12104 L28.2745888,20.87304 C28.6301621,20.82624 28.8965408,20.7818387 29.0279221,20.7818387 C30.1573195,20.78064 31.7772875,21.64104 31.7772875,23.56704 M28.5856136,27.73344 L28.5856136,23.88264 C28.5856136,23.59224 28.3854795,23.40984 28.0781195,23.40984 L22.0707381,23.41464 C21.7838688,23.41464 21.6729781,23.59584 21.6729781,23.88744 L21.6729781,27.76104 C21.6753888,28.03584 21.8067701,28.16784 22.0972555,28.16784 L28.0805301,28.16664 C28.3915061,28.16664 28.5891808,28.02984 28.5856136,27.73344 M28.5927968,34.80024 L28.5915915,31.08744 C28.5915915,30.79224 28.3915061,30.58944 28.0805301,30.58944 L22.0972555,30.59184 C21.8067701,30.59184 21.6753888,30.77304 21.6753888,31.06704 L21.6790048,34.82664 C21.6790048,35.09904 21.8115915,35.21544 22.1008715,35.21544 L28.0853515,35.21064 C28.3927115,35.21064 28.5927968,35.07504 28.5927968,34.80024" id="Fill-6"></path>
                                    <path d="M47.2294197,23.55768 L47.2294197,26.32008 C47.2306251,27.60768 46.6773771,28.54008 45.5467744,29.19528 L44.3944757,29.89848 C44.1509984,30.05928 44.0859104,30.23688 44.2606837,30.48768 L48.1876597,37.34688 C48.2997557,37.59888 48.2768544,37.64208 47.9658784,37.64208 L45.2189237,37.64568 C44.9730357,37.64568 44.7548704,37.55568 44.6427744,37.30608 L41.3606517,31.51008 C41.2244491,31.26048 41.0038731,31.12488 40.7182091,31.12488 L37.8133557,31.12728 C37.5469771,31.12728 37.4360864,31.28568 37.4360864,31.55808 L37.4433184,37.26408 C37.4433184,37.55808 37.2637237,37.64928 36.9961397,37.64928 L34.6927477,37.65168 C34.4263691,37.65168 34.3371744,37.56048 34.3371744,37.28808 L34.3275317,21.41448 C34.3275317,21.14208 34.4167264,21.00408 34.6818997,21.00408 L36.9864971,21.00408 C37.2528757,21.00408 37.4348811,21.13728 37.4348811,21.40968 L37.4348811,21.77328 C37.4348811,22.09008 37.5638517,22.20528 37.8531317,22.11408 L43.7231051,20.86368 C44.0135904,20.81808 44.2787637,20.77248 44.4764384,20.77248 C45.5431584,20.77248 47.2258037,21.60888 47.2294197,23.55768 M44.0605984,28.22448 L44.0581877,23.87328 C44.0581877,23.58288 43.9051104,23.42328 43.6363211,23.42328 L37.8109451,23.42568 C37.5433611,23.42568 37.4348811,23.58768 37.4348811,23.87928 L37.4360864,28.25088 C37.4360864,28.54488 37.5469771,28.68048 37.8133557,28.68048 L43.6387317,28.67688 C43.9087264,28.67688 44.0605984,28.51968 44.0605984,28.22448" id="Fill-8"></path>
                                    <path d="M63.1941803,37.27272 C63.2833749,37.54392 63.1941803,37.63392 62.9049003,37.63392 L60.5340096,37.63752 C60.2688363,37.63752 60.0928576,37.54752 60.0265643,37.25112 L59.0719403,33.83112 C58.9598443,33.60672 58.7838656,33.42432 58.5162816,33.42432 L53.0862549,33.42672 C52.8198763,33.42672 52.6197909,33.60792 52.5763989,33.83472 L51.6049003,37.25592 C51.5361963,37.54992 51.4036096,37.64112 51.0938389,37.64112 L48.6783509,37.64352 C48.4360789,37.64352 48.3709909,37.55232 48.4360789,37.28232 L53.1694229,21.37992 C53.2357163,21.13032 53.4141056,20.99352 53.6768683,20.99352 L57.8907136,20.99232 C58.1968683,20.99232 58.3788736,21.12792 58.4644523,21.37752 L63.1941803,37.27272 Z M58.1607083,30.57072 L56.1164629,23.30112 C56.0742763,23.16792 55.9597696,23.07792 55.7874069,23.07792 C55.6283029,23.07792 55.5427243,23.16792 55.4740203,23.30352 L53.4635243,30.57192 C53.3755349,30.89232 53.4840149,30.98232 53.7515989,30.98232 L57.8063403,30.97992 C58.1402176,30.97992 58.2486976,30.88992 58.1607083,30.57072 L58.1607083,30.57072 Z" id="Fill-10"></path>
                                    <path d="M77.3497355,23.54064 L77.3509408,26.30424 C77.3509408,27.59304 76.8013088,28.52424 75.6707061,29.17824 L74.5184075,29.88264 C74.2725195,30.03984 74.2086368,30.22104 74.3858208,30.47064 L78.3140021,37.33224 C78.4248928,37.57944 78.4031968,37.62504 78.0922208,37.62504 L75.3428555,37.62864 C75.0981728,37.62864 74.8763915,37.53624 74.7667061,37.28904 L71.4845835,31.49184 C71.3495861,31.24344 71.1290101,31.10784 70.8385248,31.10784 L67.9372875,31.11144 C67.6709088,31.11144 67.5612235,31.26864 67.5612235,31.54104 L67.5636341,37.24704 C67.5636341,37.54344 67.3864501,37.63344 67.1212768,37.63344 L64.8166795,37.63344 C64.5503008,37.63344 64.4611061,37.54344 64.4611061,37.27104 L64.4514635,21.39504 C64.4514635,21.12264 64.5406581,20.98944 64.8058315,20.98944 L67.1116341,20.98704 C67.3768075,20.98704 67.5564021,21.12264 67.5564021,21.39384 L67.5564021,21.75744 C67.5564021,22.07304 67.6889888,22.18824 67.9746528,22.09704 L73.8494475,20.84664 C74.1351115,20.80104 74.4026955,20.75664 74.6027808,20.75664 C75.6670901,20.75664 77.3497355,21.59184 77.3497355,23.54064 M74.1857355,28.20624 L74.1809141,23.85624 C74.1809141,23.56584 74.0266315,23.40624 73.7614581,23.40624 L67.9324661,23.40984 C67.6697035,23.40984 67.5564021,23.57064 67.5564021,23.86104 L67.5576075,28.23504 C67.5576075,28.52784 67.6709088,28.66344 67.9360821,28.66344 L73.7638688,28.65864 C74.0290421,28.65864 74.1857355,28.50504 74.1857355,28.20624" id="Fill-12"></path>
                                    <path d="M92.7783637,21.33456 L87.1542784,30.82536 C87.0192811,31.05216 86.9300864,31.30176 86.9300864,31.57416 L86.9361131,37.23696 C86.9361131,37.52976 86.8011157,37.62096 86.5600491,37.62096 L84.2349611,37.62216 C83.9902784,37.62216 83.8552811,37.53216 83.8552811,37.23816 L83.8516651,31.57896 C83.8516651,31.30176 83.7636757,31.05456 83.6298837,30.82776 L78.0395477,21.34176 C77.9937451,21.25296 77.9937451,21.18456 78.0395477,21.09456 C78.0829397,21.02376 78.1516437,20.97936 78.2625344,20.97936 L80.8781077,20.97936 C81.1227904,20.97936 81.3433664,21.11496 81.4988544,21.36456 L85.0919531,28.01976 C85.1582464,28.15656 85.2450304,28.22256 85.4029291,28.22256 C85.5138197,28.22256 85.6030144,28.15656 85.6922091,28.01976 L89.2997717,21.35976 C89.4552597,21.11136 89.6071317,20.97456 89.8518144,20.97456 L92.5782784,20.97336 C92.6433664,20.97336 92.7361771,21.01776 92.7783637,21.08496 C92.8205504,21.17496 92.8205504,21.24576 92.7783637,21.33456" id="Fill-14"></path>
                                    <path d="M19.515552,16.32132 C19.515552,16.59132 19.407072,16.68612 19.1382827,16.68612 L16.9180587,16.68612 C16.6528853,16.68612 16.5407893,16.59612 16.5407893,16.30212 L16.5347627,2.49732 C16.5347627,2.27052 16.402176,2.13492 16.1574933,2.13492 C15.9369173,2.13492 15.827232,2.24772 15.780224,2.45052 L12.4161387,16.32612 C12.3679253,16.59732 12.1919467,16.68852 11.925568,16.68852 L7.55623467,16.69212 C7.31034667,16.69212 7.134368,16.60092 7.08615467,16.32852 L3.710016,2.46012 C3.64372267,2.25372 3.52801067,2.14572 3.35444267,2.14572 C3.10976,2.14572 2.950656,2.28012 2.950656,2.50932 L2.96029867,16.30932 C2.96029867,16.60452 2.82650667,16.69572 2.53963733,16.69572 L0.321824,16.69572 C0.101248,16.69572 0.0120533333,16.60452 0.0120533333,16.33212 L0,0.42612 C0,0.17652 0.0879893333,0.04092 0.312181333,0.04092 L5.59274667,0.03612 C5.883232,0.03612 6.03630933,0.17292 6.125504,0.42252 L9.39557333,14.31252 C9.41726933,14.51052 9.531776,14.60532 9.72945067,14.60532 C9.95002667,14.60532 10.0838187,14.51052 10.1260053,14.31252 L13.404512,0.41652 C13.4491093,0.16692 13.5841067,0.03132 13.8468693,0.03132 L19.132256,0.03132 C19.3950187,0.03132 19.5071147,0.16572 19.5071147,0.41652 L19.515552,16.32132 Z" id="Fill-16"></path>
                                    <path d="M25.089616,16.90668 C23.5576373,16.90668 22.424624,15.63828 22.424624,14.16708 L22.4149813,0.43668 C22.4149813,0.16428 22.5029707,0.02988 22.750064,0.02988 L25.1028747,0.02628 C25.3668427,0.02628 25.5223307,0.16188 25.5223307,0.43428 L25.5319733,13.82508 C25.5319733,14.12028 25.6416587,14.25588 25.9297333,14.25588 L32.1673333,14.25108 C32.5000053,14.25108 32.654288,14.11428 32.654288,13.81908 L32.6482613,0.43068 C32.6482613,0.15828 32.7579467,0.0226489617 33.0002187,0.0226489617 L35.3108427,0.0226489617 C35.597712,0.02028 35.7532,0.15708 35.7532,0.42708 L35.764048,16.31268 C35.764048,16.58508 35.60856,16.67628 35.3180747,16.67748 L33.0134773,16.67748 C32.7687947,16.67748 32.6591093,16.58628 32.6591093,16.29108 L32.657904,15.90588 C32.657904,15.63348 32.455408,15.49548 32.1203253,15.56508 L25.8429493,16.81788 C25.5114827,16.90668 25.2655947,16.90668 25.089616,16.90668" id="Fill-18"></path>
                                    <path d="M50.7418816,10.2738 L50.7418816,11.8818 C50.7418816,13.1742 50.2103296,14.1498 49.1436096,14.7834 L46.5280363,16.2606 C46.0193856,16.5558 45.4625216,16.6698 44.9309696,16.6698 L39.0031403,16.6746 C38.7150656,16.6746 38.6041749,16.5846 38.6041749,16.3122 L38.6041749,14.6562 C38.6041749,14.4066 38.7138603,14.247 39.0224256,14.247 L47.1933803,14.241 C47.4127509,14.241 47.5911403,14.1042 47.5911403,13.8114 L47.5887296,9.9558 C47.5887296,9.6606 47.4115456,9.4998 47.1909696,9.5034 L41.4210389,9.5034 C39.4430869,9.5034 38.1786923,7.9434 38.1786923,6.2022 L38.1774869,4.7994 C38.1774869,3.5538 38.6620309,2.5794 39.7504469,1.9194 L42.3696363,0.4482 C42.8565909,0.1518 43.4098389,0.0186 43.9413909,0.015 L49.7607403,0.0126 C50.0476096,0.0126 50.2006869,0.1482 50.2006869,0.4194 L50.2043029,2.0742 C50.2043029,2.3226 50.0488149,2.4342 49.7607403,2.4342 L41.7054976,2.4402 C41.4126016,2.4402 41.3258176,2.5998 41.3258176,2.8914 L41.3294336,6.447 C41.3294336,6.7866 41.4391189,6.9018 41.7271936,6.9018 L47.4766336,6.8982 C48.8941056,6.8982 50.7394709,8.0502 50.7418816,10.2738" id="Fill-20"></path>
                                    <path d="M55.9833941,16.3014 C55.9833941,16.5714 55.8254955,16.6626 55.5591168,16.6626 L53.2063061,16.665 C52.9857301,16.665 52.8965355,16.5762 52.8965355,16.3026 L52.8893035,0.3954 C52.8893035,0.147 52.9784981,0.009 53.1990741,0.009 L55.5518848,0.0066 C55.8182635,0.0066 55.9725461,0.1458 55.9725461,0.393 L55.9833941,16.3014 Z" id="Fill-22"></path>
                                    <path d="M59.0649493,13.398 L59.063744,4.8072 C59.063744,3.5424 59.59168,2.5644 60.6788907,1.9068 L63.2751787,0.4356 C63.739232,0.1392 64.2948907,0.0024 64.805952,0.0024 L70.309504,0 C70.5746773,0 70.7096747,0.1368 70.7096747,0.4116 L70.7096747,2.0628 C70.7096747,2.31 70.5782933,2.4228 70.3119147,2.4228 L62.6098347,2.4252 C62.3458667,2.4252 62.234976,2.5872 62.234976,2.8812 L62.2397973,13.8048 C62.2397973,14.0976 62.3494827,14.2344 62.6158613,14.2344 L70.5397227,14.2284 C70.7819947,14.2284 70.9398933,14.3448 70.9398933,14.5716 C70.9398933,14.8188 70.8277973,15.0252 70.58432,15.1572 L68.675072,16.248 C68.1664213,16.5444 67.6348693,16.6572 67.1009067,16.6572 L62.3060907,16.6596 C60.7331307,16.6596 59.06736,15.5052 59.0649493,13.398" id="Fill-24"></path>
                                </g>
                            </g>
                        </g>
                    </g>
                </g>
            </g>
        </g>
    </g>
</svg>