<?xml version="1.0" encoding="UTF-8"?>
<svg width="108px" height="52px" viewBox="0 0 108 52" version="1.1" xmlns="http://www.w3.org/2000/svg" xmlns:xlink="http://www.w3.org/1999/xlink">
    <title>logo_fanmade_live</title>
    <defs>
        <polygon id="path-1" points="0 2.65145617e-16 5.98927879 2.65145617e-16 5.98927879 12.0604607 0 12.0604607"></polygon>
        <polygon id="path-3" points="-5.54412631e-17 2.65145617e-16 10.951959 2.65145617e-16 10.951959 12.0604607 -5.54412631e-17 12.0604607"></polygon>
        <polygon id="path-5" points="-2.77206315e-16 2.65145617e-16 9.41192498 2.65145617e-16 9.41192498 12.0607351 -2.77206315e-16 12.0607351"></polygon>
        <polygon id="path-7" points="3.32647578e-16 2.65145617e-16 11.9786485 2.65145617e-16 11.9786485 12.0607351 3.32647578e-16 12.0607351"></polygon>
        <polygon id="path-9" points="3.88088842e-16 2.65145617e-16 10.9519591 2.65145617e-16 10.9519591 12.0604607 3.88088842e-16 12.0604607"></polygon>
        <polygon id="path-11" points="0 2.65145617e-16 9.41192496 2.65145617e-16 9.41192496 12.0603235 0 12.0603235"></polygon>
        <polygon id="path-13" points="2.77206315e-17 2.65145617e-16 5.98927879 2.65145617e-16 5.98927879 12.0604607 2.77206315e-17 12.0604607"></polygon>
        <polygon id="path-15" points="0 1.11640259e-16 13.1115501 1.11640259e-16 13.1115501 26.4020258 0 26.4020258"></polygon>
        <polygon id="path-17" points="-8.87060209e-16 -5.30291234e-16 23.9750141 -5.30291234e-16 23.9750141 26.40198 -8.87060209e-16 26.40198"></polygon>
        <polygon id="path-19" points="-1.10882526e-16 1.11640259e-16 13.1111414 1.11640259e-16 13.1111414 26.4020258 -1.10882526e-16 26.4020258"></polygon>
    </defs>
    <g id="logo_fanmade_live" stroke="none" stroke-width="1" fill="none" fill-rule="evenodd">
        <g id="fan_b" transform="translate(0.000000, 5.000000)">
            <path d="M29.6383871,23.0071267 L29.6383871,26.8679707 C29.6383871,30.2787412 26.8826801,33.0532797 23.4950595,33.0532797 C20.1078931,33.0532797 17.3517319,30.2787412 17.3517319,26.8679707 L17.3517319,23.0071267 L15.1625212,23.0071267 L15.1625212,26.8679707 C15.1625212,31.1267456 18.3170924,34.6363127 22.400227,35.1764923 L22.400227,39.7961493 L18.5260646,39.7961493 L18.5260646,41.9998629 L28.4658715,41.9998629 L28.4658715,39.7961493 L24.5894377,39.7961493 L24.5894377,35.1764923 C28.6730266,34.6363127 31.8275978,31.1267456 31.8275978,26.8679707 L31.8275978,23.0071267 L29.6383871,23.0071267 Z" id="Fill-1" fill="#000000" fill-rule="nonzero"></path>
            <path d="M23.4840203,30.8198356 L23.4840203,30.8198356 C21.3257013,30.8198356 19.5762407,29.05842 19.5762407,26.8853516 L19.5762407,17.9415127 C19.5762407,15.7684444 21.3257013,14.0065712 23.4840203,14.0065712 C25.6423395,14.0065712 27.3922543,15.7684444 27.3922543,17.9415127 L27.3922543,26.8853516 C27.3922543,29.05842 25.6423395,30.8198356 23.4840203,30.8198356" id="Fill-3" fill="#000000" fill-rule="nonzero"></path>
            <g id="Fill-5-Clipped">
                <mask id="mask-2" fill="white">
                    <use xlink:href="#path-1"></use>
                </mask>
                <g id="path-13"></g>
                <polygon id="Fill-5" fill="#000000" fill-rule="nonzero" mask="url(#mask-2)" points="5.98927879 -4.5739178e-05 5.98927879 3.44594393 3.42255535 3.44594393 3.42255535 4.30721265 5.98927879 4.30721265 5.98927879 7.75320232 3.42255535 7.75320232 3.42255535 12.0604607 -4.54287335e-05 12.0604607 -4.54287335e-05 -4.5739178e-05"></polygon>
            </g>
            <g id="Fill-8-Clipped" transform="translate(5.706894, 0.000000)">
                <mask id="mask-4" fill="white">
                    <use xlink:href="#path-3"></use>
                </mask>
                <g id="path-15"></g>
                <path d="M5.527314,4.75545659 L4.69733104,7.75320232 L6.31413966,7.75320232 L5.527314,4.75545659 Z M3.74787051,11.199192 L3.5080068,12.0522277 L-5.54412631e-17,12.0522277 L3.33719476,-4.5739178e-05 L7.78603063,-4.5739178e-05 L10.951959,12.0604607 L7.44395226,12.0604607 L7.22135147,11.199192 L3.74787051,11.199192 Z" id="Fill-8" fill="#000000" fill-rule="nonzero" mask="url(#mask-4)"></path>
            </g>
            <g id="Fill-11-Clipped" transform="translate(17.172197, 0.000000)">
                <mask id="mask-6" fill="white">
                    <use xlink:href="#path-5"></use>
                </mask>
                <g id="path-17"></g>
                <polygon id="Fill-11" fill="#000000" fill-rule="nonzero" mask="url(#mask-6)" points="3.42260078 6.03048192 3.42260078 12.0607351 -2.77206315e-16 12.0607351 -2.77206315e-16 -0.00022869589 3.42260078 -0.00022869589 5.98932422 6.03048192 5.98932422 -0.00022869589 9.41192498 -0.00022869589 9.41192498 12.0607351 5.98932422 12.0607351"></polygon>
            </g>
            <g id="Fill-14-Clipped" transform="translate(31.786167, 0.000000)">
                <mask id="mask-8" fill="white">
                    <use xlink:href="#path-7"></use>
                </mask>
                <g id="path-19"></g>
                <polygon id="Fill-14" fill="#000000" fill-rule="nonzero" mask="url(#mask-8)" points="3.42260078 6.03048192 3.42260078 12.0607351 3.32647578e-16 12.0607351 3.32647578e-16 -0.00022869589 3.42260078 -0.00022869589 5.98932422 6.03048192 8.55650193 -0.00022869589 11.9786485 -0.00022869589 11.9786485 12.0607351 8.55650193 12.0607351 8.55650193 6.03048192 5.98932422 12.0607351"></polygon>
            </g>
            <g id="Fill-17-Clipped" transform="translate(44.278297, 0.000000)">
                <mask id="mask-10" fill="white">
                    <use xlink:href="#path-9"></use>
                </mask>
                <g id="path-21"></g>
                <path d="M5.527314,4.75545659 L4.69733104,7.75320232 L6.31413966,7.75320232 L5.527314,4.75545659 Z M3.74787051,11.199192 L3.5080068,12.0522277 L3.88088842e-16,12.0522277 L3.33674047,-4.5739178e-05 L7.78603063,-4.5739178e-05 L10.9519591,12.0604607 L7.44395226,12.0604607 L7.22135147,11.199192 L3.74787051,11.199192 Z" id="Fill-17" fill="#000000" fill-rule="nonzero" mask="url(#mask-10)"></path>
            </g>
            <g id="Fill-20-Clipped" transform="translate(55.743373, 0.000000)">
                <mask id="mask-12" fill="white">
                    <use xlink:href="#path-11"></use>
                </mask>
                <g id="path-23"></g>
                <path d="M3.42260078,3.44580672 L3.42260078,8.61479122 C4.12992616,8.61479122 4.7345826,8.36231096 5.23657011,7.85643565 C5.73810332,7.35147513 5.98932422,6.74268667 5.98932422,6.03052767 C5.98932422,5.31242257 5.73810332,4.70226194 5.23657011,4.19958837 C4.7345826,3.69691481 4.12992616,3.44580672 3.42260078,3.44580672 M3.42260078,12.0603235 L0,12.0603235 L0,-0.000182956712 L3.42260078,-0.000182956712 C5.07666096,-0.000182956712 6.488586,0.588480264 7.6579216,1.7662641 C8.82725716,2.94359054 9.41192496,4.3651642 9.41192496,6.03052767 C9.41192496,7.69589114 8.82725716,9.11746475 7.6579216,10.2943338 C6.488586,11.4716603 5.07666096,12.0603235 3.42260078,12.0603235" id="Fill-20" fill="#020303" fill-rule="nonzero" mask="url(#mask-12)"></path>
            </g>
            <g id="Fill-23-Clipped" transform="translate(66.010721, 0.000000)">
                <mask id="mask-14" fill="white">
                    <use xlink:href="#path-13"></use>
                </mask>
                <g id="path-25"></g>
                <polygon id="Fill-23" fill="#000000" fill-rule="nonzero" mask="url(#mask-14)" points="5.98932422 -4.5739178e-05 5.98932422 3.44594393 3.42260078 3.44594393 3.42260078 4.30721265 5.98932422 4.30721265 5.98932422 7.75320232 3.42260078 7.75320232 3.42260078 8.61447104 5.98932422 8.61447104 5.98932422 12.0604607 2.77206315e-17 12.0604607 2.77206315e-17 -4.5739178e-05"></polygon>
            </g>
            <g id="Fill-26-Clipped" transform="translate(0.000000, 15.597929)">
                <mask id="mask-16" fill="white">
                    <use xlink:href="#path-15"></use>
                </mask>
                <g id="path-27"></g>
                <polygon id="Fill-26" fill="#000000" fill-rule="nonzero" mask="url(#mask-16)" points="-9.08574669e-05 1.11640259e-16 7.49247015 1.11640259e-16 7.49247015 18.8582632 13.1115501 18.8582632 13.1115501 26.4020258 -9.08574669e-05 26.4020258"></polygon>
            </g>
            <g id="Fill-29-Clipped" transform="translate(33.598137, 15.598020)">
                <mask id="mask-18" fill="white">
                    <use xlink:href="#path-17"></use>
                </mask>
                <g id="path-29"></g>
                <polygon id="Fill-29" fill="#000000" fill-rule="nonzero" mask="url(#mask-18)" points="7.30494034 26.4020256 -8.87060209e-16 0.018753063 7.67972739 0.018753063 12.0999432 15.9922462 16.295741 -5.30291234e-16 23.9750141 -5.30291234e-16 17.0448608 26.4020256"></polygon>
            </g>
            <g id="Fill-32-Clipped" transform="translate(58.888858, 15.597929)">
                <mask id="mask-20" fill="white">
                    <use xlink:href="#path-19"></use>
                </mask>
                <g id="path-31"></g>
                <polygon id="Fill-32" fill="#000000" fill-rule="nonzero" mask="url(#mask-20)" points="13.1111867 1.11640259e-16 13.1111867 7.54330524 7.49210672 7.54330524 7.49210672 9.42913159 13.1111867 9.42913159 13.1111867 16.9728942 7.49210672 16.9728942 7.49210672 18.8582632 13.1111867 18.8582632 13.1111867 26.4020258 -1.10882526e-16 26.4020258 -1.10882526e-16 1.11640259e-16"></polygon>
            </g>
        </g>
    </g>
</svg>