<?xml version="1.0" encoding="UTF-8"?>
<svg width="108px" height="52px" viewBox="0 0 108 52" version="1.1" xmlns="http://www.w3.org/2000/svg" xmlns:xlink="http://www.w3.org/1999/xlink">
    <title>logo_hotel</title>
    <defs>
        <polygon id="path-1" points="0 0 14.8814765 0 14.8814765 16.9773062 0 16.9773062"></polygon>
        <polygon id="path-3" points="0 0 15.966381 0 15.966381 10.7352305 0 10.7352305"></polygon>
        <polygon id="path-5" points="0 0 14.6525307 0 14.6525307 16.6410665 0 16.6410665"></polygon>
    </defs>
    <g id="logo_hotel" stroke="none" stroke-width="1" fill="none" fill-rule="evenodd">
        <g id="Group-22" transform="translate(0.000000, 6.000000)">
            <g id="Group-3" transform="translate(0.268713, 0.000000)">
                <mask id="mask-2" fill="white">
                    <use xlink:href="#path-1"></use>
                </mask>
                <g id="Clip-2"></g>
                <path d="M11.8852729,10.1506078 L9.90439407,10.1506078 C9.79838222,10.1506078 9.70531078,10.1095487 9.62567746,10.0269358 C9.54654185,9.94432283 9.50672519,9.85379488 9.50672519,9.75485722 L9.50672519,8.56760534 C9.50672519,8.4553111 9.54654185,8.35983626 9.62567746,8.28068613 C9.70531078,8.20153601 9.79838222,8.16196094 9.90439407,8.16196094 L11.8852729,8.16196094 L11.8852729,6.64821479 L9.90439407,6.64821479 C9.79838222,6.64821479 9.70531078,6.60715567 9.62567746,6.52454272 C9.54654185,6.44242447 9.50672519,6.35140182 9.50672519,6.25246417 L9.50672519,5.05531852 C9.50672519,4.94351897 9.54654185,4.8490335 9.62567746,4.7733462 C9.70531078,4.69765889 9.79838222,4.65956789 9.90439407,4.65956789 L11.8852729,4.65956789 L11.8852729,0.988980818 C11.8852729,0.883612214 11.9250895,0.792589569 12.0047229,0.716902262 C12.0843562,0.641214954 12.1774276,0.603123957 12.2839372,0.603123957 L14.1349142,0.603123957 C14.2473962,0.603123957 14.3424585,0.641214954 14.4186079,0.716902262 C14.4947572,0.792589569 14.5330808,0.883612214 14.5330808,0.988980818 L14.5330808,11.9908483 C14.5330808,12.1031425 14.4947572,12.1986173 14.4186079,12.2777675 C14.3424585,12.3569176 14.2473962,12.3964927 14.1349142,12.3964927 L12.2839372,12.3964927 C12.1774276,12.3964927 12.0843562,12.3569176 12.0047229,12.2777675 C11.9250895,12.1986173 11.8852729,12.1031425 11.8852729,11.9908483 L11.8852729,10.1506078 Z M3.02606613,7.58812253 C3.02606613,7.86514797 3.08230716,8.12386995 3.19528693,8.36478314 C3.3082667,8.60569634 3.49440959,8.80010883 3.75272017,8.94851532 C4.01152845,9.0969218 4.36340818,9.17112504 4.80786165,9.17112504 C5.26575323,9.17112504 5.62410317,9.0969218 5.88291146,8.94851532 C6.14171974,8.80010883 6.32786263,8.60569634 6.4408424,8.36478314 C6.55332446,8.12386995 6.60956549,7.86514797 6.60956549,7.58812253 C6.60956549,7.31109709 6.55332446,7.05237512 6.4408424,6.81146193 C6.32786263,6.57104342 6.14171974,6.37613624 5.88291146,6.22772975 C5.62410317,6.07932327 5.26575323,6.00512002 4.80786165,6.00512002 C4.36340818,6.00512002 4.01152845,6.07932327 3.75272017,6.22772975 C3.49440959,6.37613624 3.3082667,6.57104342 3.19528693,6.81146193 C3.08230716,7.05237512 3.02606613,7.31109709 3.02606613,7.58812253 L3.02606613,7.58812253 Z M2.98624947,16.1264423 C2.75381972,15.9681421 2.57663558,15.7801605 2.45419936,15.5624977 C2.33076771,15.3448348 2.2695496,15.1044163 2.2695496,14.8402528 L2.2695496,12.3173425 C2.2695496,12.2050483 2.31135709,12.1115522 2.39397666,12.0353702 C2.47709394,11.9596829 2.56817454,11.9215919 2.66771619,11.9215919 L4.55900752,11.9215919 C4.68492771,11.9215919 4.78446936,11.9596829 4.85813018,12.0353702 C4.93079558,12.1115522 4.96712828,12.2050483 4.96712828,12.3173425 L4.96712828,14.4741835 C4.96712828,14.6126962 5.01341515,14.7299373 5.1069843,14.8254121 C5.19906033,14.9213817 5.3120401,14.9688717 5.44542591,14.9688717 L14.4838076,14.9688717 C14.5962897,14.9688717 14.6908543,15.004984 14.7670036,15.0777032 C14.843153,15.1499277 14.8814765,15.2424344 14.8814765,15.3547286 L14.8814765,16.5914493 C14.8814765,16.6968179 14.843153,16.7878406 14.7670036,16.8635279 C14.6908543,16.9392152 14.5962897,16.9773062 14.4838076,16.9773062 L4.68841167,16.9773062 C4.53561524,16.9773062 4.3763486,16.9540558 4.21061175,16.9080498 C4.0443772,16.8615491 3.9055166,16.7962503 3.79253683,16.7101745 L2.98624947,16.1264423 Z M0.52757074,7.58812253 C0.52757074,7.19880285 0.602226976,6.80503098 0.752037158,6.40581753 C0.900851923,6.00660409 1.14124501,5.64597633 1.47321641,5.32245019 C1.8046901,4.99941874 2.24516189,4.73871802 2.79214325,4.5408427 C3.33962232,4.34296739 4.01152845,4.24402973 4.80786165,4.24402973 C5.61713525,4.24402973 6.29451617,4.34296739 6.83851129,4.5408427 C7.3825064,4.73871802 7.82248049,4.99941874 8.15743813,5.32245019 C8.49289349,5.64597633 8.73677053,6.00660409 8.88906925,6.40581753 C9.04186569,6.80503098 9.11801505,7.19880285 9.11801505,7.58812253 C9.11801505,7.98387316 9.04186569,8.38308661 8.88906925,8.78526818 C8.73677053,9.18794445 8.49289349,9.55055096 8.15743813,9.87358241 C7.82248049,10.1971085 7.3825064,10.4558305 6.83851129,10.650243 C6.29451617,10.8446555 5.61713525,10.9421091 4.80786165,10.9421091 C4.01152845,10.9421091 3.33962232,10.8446555 2.79214325,10.650243 C2.24516189,10.4558305 1.8046901,10.1971085 1.47321641,9.87358241 C1.14124501,9.55055096 0.900851923,9.18794445 0.752037158,8.78526818 C0.602226976,8.38308661 0.52757074,7.98387316 0.52757074,7.58812253 L0.52757074,7.58812253 Z M3.50386604,1.8596322 L3.50386604,0.405248643 C3.50386604,0.280092507 3.54517583,0.18115485 3.62829311,0.108435672 C3.71091267,0.0362111824 3.80249099,-0.000395750628 3.90203264,-0.000395750628 L5.80327814,-0.000395750628 C5.92272812,-0.000395750628 6.01729268,0.0362111824 6.08697184,0.108435672 C6.15665099,0.18115485 6.19198828,0.280092507 6.19198828,0.405248643 L6.19198828,1.8596322 L9.32705251,1.8596322 C9.44003228,1.8596322 9.53459685,1.89722851 9.61074621,1.9734105 C9.68739328,2.04909781 9.72521911,2.14012046 9.72521911,2.24548906 L9.72521911,3.32390952 C9.72521911,3.43620376 9.68739328,3.53019454 9.61074621,3.60588184 C9.53459685,3.68206384 9.44003228,3.71966015 9.32705251,3.71966015 L0.398166596,3.71966015 C0.29215474,3.71966015 0.199083298,3.68206384 0.119449979,3.60588184 C0.0398166596,3.53019454 0,3.43620376 0,3.32390952 L0,2.24548906 C0,2.14012046 0.0398166596,2.04909781 0.119449979,1.9734105 C0.199083298,1.89722851 0.29215474,1.8596322 0.398166596,1.8596322 L3.50386604,1.8596322 Z" id="Fill-1" fill="#000000" mask="url(#mask-2)"></path>
            </g>
            <path d="M27.5528298,8.33994979 L27.5528298,16.5418815 C27.5528298,16.6472502 27.515004,16.7397569 27.4388546,16.8194017 C27.3622076,16.8980571 27.2681407,16.9376322 27.1551609,16.9376322 L25.5619968,16.9376322 C25.4490171,16.9376322 25.3529594,16.8980571 25.2733261,16.8194017 C25.1941904,16.7397569 25.1543738,16.6472502 25.1543738,16.5418815 L25.1543738,1.06803201 C25.1543738,0.955737766 25.1941904,0.863725745 25.2733261,0.791006567 C25.3529594,0.718782077 25.4490171,0.682669833 25.5619968,0.682669833 L27.1551609,0.682669833 C27.2681407,0.682669833 27.3622076,0.718782077 27.4388546,0.791006567 C27.515004,0.863725745 27.5528298,0.955737766 27.5528298,1.06803201 L27.5528298,6.34140912 L29.0265439,6.34140912 L29.0265439,0.989376569 C29.0265439,0.877082328 29.0663606,0.784575619 29.1459939,0.711856441 C29.2251295,0.639631952 29.318201,0.603025019 29.4247105,0.603025019 L31.0766042,0.603025019 C31.189584,0.603025019 31.2841485,0.639631952 31.3602979,0.711856441 C31.436945,0.784575619 31.4752685,0.877082328 31.4752685,0.989376569 L31.4752685,16.7397569 C31.4752685,16.8520511 31.436945,16.9445578 31.3602979,17.0167823 C31.2841485,17.0895015 31.189584,17.1256137 31.0766042,17.1256137 L29.4247105,17.1256137 C29.318201,17.1256137 29.2251295,17.0895015 29.1459939,17.0167823 C29.0663606,16.9445578 29.0265439,16.8520511 29.0265439,16.7397569 L29.0265439,8.33994979 L27.5528298,8.33994979 Z M25.1543738,13.4550267 C24.0330371,13.5673209 23.1336783,13.6563648 22.4567951,13.7221583 C21.7794142,13.7884466 21.2573182,13.8359366 20.8885164,13.8656179 C20.52071,13.8952992 20.2464728,13.9155814 20.0677955,13.9249805 C19.8886206,13.935369 19.7358241,13.9398212 19.6099039,13.9398212 C19.4506373,13.9398212 19.2844027,13.9165708 19.1121957,13.8705648 C18.9389932,13.8245588 18.7931647,13.7582706 18.6737147,13.6726895 L17.8977876,13.1092395 C17.6782982,12.9440137 17.5026072,12.7510852 17.3702168,12.5299596 C17.236831,12.3088339 17.1711335,12.0634685 17.1711335,11.792874 L17.1711335,1.62208289 C17.1711335,1.51671428 17.2089594,1.42569164 17.2856064,1.35000433 C17.3612581,1.27431702 17.4563204,1.23672071 17.5688024,1.23672071 L23.2327222,1.23672071 C23.3387341,1.23672071 23.4323033,1.27431702 23.5119366,1.35000433 C23.5915699,1.42569164 23.6313866,1.51671428 23.6313866,1.62208289 L23.6313866,2.81922853 C23.6313866,2.92509183 23.5915699,3.01710385 23.5119366,3.09625397 C23.4323033,3.17589879 23.3387341,3.21547385 23.2327222,3.21547385 L19.6691312,3.21547385 L19.6691312,11.3476546 C19.6691312,11.4861673 19.7208929,11.6019243 19.8239185,11.6939364 C19.9269441,11.7864431 20.0409193,11.8329438 20.1668395,11.8329438 L24.7562072,11.8329438 C24.8756572,11.8329438 24.973208,11.792874 25.0498551,11.7137239 C25.1255067,11.6345738 25.1603463,11.5425617 25.1543738,11.4366985 L25.1543738,13.4550267 Z" id="Fill-4" fill="#000000"></path>
            <path d="M44.4749101,17.1255148 C44.3619304,17.1255148 44.2678635,17.0894025 44.1917142,17.0166834 C44.1150671,16.9444589 44.0767435,16.8519522 44.0767435,16.7401526 L44.0767435,0.989277631 C44.0767435,0.876983391 44.1150671,0.784476682 44.1917142,0.711757504 C44.2678635,0.639533014 44.3619304,0.603420769 44.4749101,0.603420769 L46.336339,0.603420769 C46.4423508,0.603420769 46.53592,0.639533014 46.6155533,0.711757504 C46.6951866,0.784476682 46.7350033,0.876983391 46.7350033,0.989277631 L46.7350033,5.77786023 C46.7350033,5.87679788 46.7748199,5.96435771 46.8539556,6.04004502 C46.9335889,6.11573232 47.0236741,6.15332863 47.122718,6.15332863 L48.6954761,6.15332863 C48.8084558,6.15332863 48.9045135,6.18993557 48.9846446,6.26216006 C49.0642779,6.33537392 49.1040945,6.42738594 49.1040945,6.53968018 L49.1040945,7.90452516 C49.1040945,8.01038845 49.0642779,8.10091641 48.9846446,8.17660372 C48.9045135,8.25229103 48.8084558,8.29087671 48.6954761,8.29087671 L47.122718,8.29087671 C47.0236741,8.29087671 46.9335889,8.32847302 46.8539556,8.40416033 C46.7748199,8.47984764 46.7350033,8.5743331 46.7350033,8.68613265 L46.7350033,16.7401526 C46.7350033,16.8519522 46.6951866,16.9444589 46.6155533,17.0166834 C46.53592,17.0894025 46.4423508,17.1255148 46.336339,17.1255148 L44.4749101,17.1255148 Z M38.671632,8.91368926 L33.6248704,8.91368926 C33.5123883,8.91368926 33.4173261,8.87609295 33.3416744,8.79991096 C33.2650273,8.72471834 33.2267038,8.63369569 33.2267038,8.5278324 L33.2267038,7.3410752 C33.2267038,7.22878096 33.2650273,7.13479019 33.3416744,7.05860819 C33.4173261,6.98292089 33.5123883,6.94482989 33.6248704,6.94482989 L38.671632,6.94482989 L38.671632,3.7100632 C38.671632,3.56462484 38.6268383,3.44787841 38.5372508,3.35833983 C38.448161,3.26929593 38.3366744,3.22477399 38.2037863,3.22477399 L33.5651454,3.22477399 C33.4591336,3.22477399 33.3665598,3.18371486 33.2869265,3.10110192 C33.2067955,3.01848897 33.1669788,2.92153007 33.1669788,2.80973052 L33.1669788,1.62198395 C33.1669788,1.51661534 33.2067955,1.42608739 33.2869265,1.34990539 C33.3665598,1.27421808 33.4591336,1.23662177 33.5651454,1.23662177 L38.8806695,1.23662177 C39.0269957,1.23662177 39.1847692,1.25987212 39.35399,1.30587813 C39.5232108,1.35188414 39.6640622,1.41421487 39.777042,1.49336499 L40.5833294,2.08748562 C40.8087912,2.23886024 40.9839845,2.42535772 41.1104024,2.6459887 C41.2368203,2.86760905 41.3000292,3.10951162 41.3000292,3.37318047 L41.3000292,12.089588 C41.3000292,12.3601825 41.2432905,12.5946648 41.1303107,12.7920454 C41.0178287,12.9904154 40.8550781,13.1813651 40.6430544,13.3658838 L39.3589671,14.5140553 C39.2325492,14.6258549 39.0867207,14.6520734 38.9204861,14.5932055 C38.7547493,14.5338429 38.671632,14.4017611 38.671632,14.1969601 L38.671632,8.91368926 Z" id="Fill-6" fill="#000000"></path>
            <path d="M53.5527104,3.25440582 L53.5527104,7.62794494 C53.5527104,7.75953202 53.5994949,7.86984751 53.6925664,7.95938609 C53.7851401,8.04793529 53.8976222,8.09245724 54.031008,8.09245724 L62.8499004,8.09245724 C62.9623824,8.09245724 63.0579424,8.13054824 63.1335941,8.20673023 C63.2102412,8.28241754 63.248067,8.37937645 63.248067,8.49859632 L63.248067,9.74471611 C63.248067,9.8505794 63.2102412,9.94308611 63.1335941,10.0222362 C63.0579424,10.1013864 62.9623824,10.1409614 62.8499004,10.1409614 L53.3143081,10.1409614 C53.161014,10.1409614 52.9987611,10.1157323 52.826554,10.0667582 C52.6533516,10.0172894 52.514491,9.95248519 52.4084791,9.87382975 L51.5922376,9.26981536 C51.3797162,9.11200979 51.2104954,8.92353356 51.0840775,8.7063654 C50.9581573,8.48820787 50.895446,8.25125218 50.895446,7.99351958 L50.895446,1.63232293 C50.895446,1.51310306 50.9332719,1.4141654 51.0099189,1.33501527 C51.0860683,1.25586515 51.1841168,1.21678477 51.3030691,1.21678477 L62.7309481,1.21678477 C62.8499004,1.21678477 62.9479489,1.25586515 63.024596,1.33501527 C63.1007453,1.4141654 63.1385712,1.51310306 63.1385712,1.63232293 L63.1385712,2.85865519 C63.1385712,2.95759285 63.1007453,3.04861549 63.024596,3.13073375 C62.9479489,3.21334669 62.8499004,3.25440582 62.7309481,3.25440582 L53.5527104,3.25440582 Z M49.442138,15.2956134 C49.3351307,15.2956134 49.2410638,15.2575224 49.1584443,15.1813404 C49.0748293,15.1056531 49.0340172,15.012157 49.0340172,14.899368 L49.0340172,13.6626473 C49.0340172,13.5503531 49.0748293,13.456857 49.1584443,13.3811697 C49.2410638,13.3049877 49.3351307,13.2668967 49.442138,13.2668967 L64.5918792,13.2668967 C64.7043613,13.2668967 64.8009167,13.3049877 64.88055,13.3811697 C64.9601833,13.456857 65,13.5503531 65,13.6626473 L65,14.899368 C65,15.012157 64.9601833,15.1056531 64.88055,15.1813404 C64.8009167,15.2575224 64.7043613,15.2956134 64.5918792,15.2956134 L49.442138,15.2956134 Z" id="Fill-8" fill="#000000"></path>
            <path d="M1.59276593,26.693182 L14.3639595,26.693182 C14.4769393,26.693182 14.572997,26.6516281 14.6521326,26.5695099 C14.7317659,26.4868969 14.7715825,26.3993371 14.7715825,26.3073251 L14.7715825,25.0903919 C14.7715825,24.9780977 14.7317659,24.8841069 14.6521326,24.8079249 C14.572997,24.7322376 14.4769393,24.6946413 14.3639595,24.6946413 L9.28733539,24.6946413 L9.28733539,23.1606129 C9.28733539,23.0418877 9.24901186,22.9449288 9.17236479,22.8692415 C9.09671313,22.7930595 9.00214857,22.7554632 8.8891688,22.7554632 L7.02773996,22.7554632 C6.9212304,22.7554632 6.82915437,22.7930595 6.74902334,22.8692415 C6.66939002,22.9449288 6.62957336,23.0418877 6.62957336,23.1606129 L6.62957336,24.6946413 L1.59276593,24.6946413 C1.47928845,24.6946413 1.38522159,24.7322376 1.30907223,24.8079249 C1.23242516,24.8841069 1.19459933,24.9780977 1.19459933,25.0903919 L1.19459933,26.3073251 C1.19459933,26.3993371 1.23242516,26.4868969 1.30907223,26.5695099 C1.38522159,26.6516281 1.47928845,26.693182 1.59276593,26.693182" id="Fill-10" fill="#000000"></path>
            <g id="Group-14" transform="translate(0.000000, 27.345626)">
                <mask id="mask-4" fill="white">
                    <use xlink:href="#path-3"></use>
                </mask>
                <g id="Clip-13"></g>
                <path d="M5.25122015,4.2350264 C5.02177665,4.01093261 4.90780146,3.75023189 4.90780146,3.45341891 C4.90780146,3.15611126 5.02177665,2.89590522 5.25122015,2.67181142 C5.47966824,2.44771763 5.8215938,2.27061923 6.27649914,2.14249496 C6.73090676,2.01387601 7.28983312,1.94956653 7.95377592,1.94956653 C8.63016143,1.94956653 9.19406487,2.01387601 9.64548625,2.14249496 C10.0969076,2.27061923 10.4373401,2.44771763 10.6657881,2.67181142 C10.8952316,2.89590522 11.0092068,3.15611126 11.0092068,3.45341891 C11.0092068,3.75023189 10.8952316,4.01093261 10.6657881,4.2350264 C10.4373401,4.4591202 10.0969076,4.63720798 9.64548625,4.76928975 C9.19406487,4.90137152 8.63016143,4.96667038 7.95377592,4.96667038 C7.28983312,4.96667038 6.73090676,4.90137152 6.27649914,4.76928975 C5.8215938,4.63720798 5.47966824,4.4591202 5.25122015,4.2350264 M15.846931,8.83068057 C15.7672977,8.75499326 15.67124,8.71690226 15.5582602,8.71690226 L9.28713631,8.71690226 L9.28713631,6.85192743 C9.95406536,6.78069232 10.5572878,6.65998837 11.078886,6.47546964 C11.928474,6.17568854 12.5720107,5.7636132 13.0104917,5.23874893 C13.4479772,4.71487404 13.6669689,4.11976403 13.6669689,3.45341891 C13.6669689,2.79399943 13.4479772,2.20185755 13.0104917,1.67748797 C12.5720107,1.15311839 11.928474,0.742032427 11.078886,0.445714144 C10.229298,0.148406485 9.18759466,0 7.95377592,0 C6.72592968,0 5.6887057,0.148406485 4.84309939,0.445714144 C3.99649767,0.742032427 3.35445403,1.15311839 2.91696848,1.67748797 C2.47898523,2.20185755 2.25949589,2.79399943 2.25949589,3.45341891 C2.25949589,4.11976403 2.47898523,4.71487404 2.91696848,5.23874893 C3.35445403,5.7636132 3.99649767,6.17568854 4.84309939,6.47546964 C5.36569305,6.66147244 5.97040856,6.78267107 6.63932845,6.85341149 L6.63932845,8.71690226 L0.408518927,8.71690226 C0.302009363,8.71690226 0.206947088,8.75499326 0.12432752,8.83068057 C0.0412102427,8.90636787 -9.9541649e-05,9.00035865 -9.9541649e-05,9.1121582 L-9.9541649e-05,10.3394798 C-9.9541649e-05,10.4512794 0.0412102427,10.5457648 0.12432752,10.6214522 C0.206947088,10.6971395 0.302009363,10.7352305 0.408518927,10.7352305 L15.5582602,10.7352305 C15.67124,10.7352305 15.7672977,10.6971395 15.846931,10.6214522 C15.9265643,10.5457648 15.966381,10.4512794 15.966381,10.3394798 L15.966381,9.1121582 C15.966381,9.00035865 15.9265643,8.90636787 15.846931,8.83068057" id="Fill-12" fill="#000000" mask="url(#mask-4)"></path>
            </g>
            <g id="Group-17" transform="translate(17.101056, 23.358933)">
                <mask id="mask-6" fill="white">
                    <use xlink:href="#path-5"></use>
                </mask>
                <g id="Clip-16"></g>
                <path d="M12.333708,8.71640757 C12.2271985,8.71640757 12.1346247,8.67534845 12.0544937,8.5927355 C11.9748604,8.51012256 11.9350437,8.41662647 11.9350437,8.31076318 L11.9350437,0.385856862 C11.9350437,0.27405731 11.9748604,0.181055912 12.0544937,0.108831423 C12.1346247,0.0361122448 12.2271985,0 12.333708,0 L13.9756475,0 C14.0881296,0 14.1831919,0.0361122448 14.2593412,0.108831423 C14.3354906,0.181055912 14.3743118,0.27405731 14.3743118,0.385856862 L14.3743118,8.31076318 C14.3743118,8.41662647 14.3354906,8.51012256 14.2593412,8.5927355 C14.1831919,8.67534845 14.0881296,8.71640757 13.9756475,8.71640757 L12.333708,8.71640757 Z M8.44162954,5.25358958 L7.08736541,5.25358958 C6.97438564,5.25358958 6.87832795,5.21253045 6.79869463,5.12991751 C6.71906131,5.04730457 6.67924465,4.95034566 6.67924465,4.83805142 L6.67924465,3.58154318 C6.67924465,3.46974363 6.71906131,3.37525817 6.79869463,3.29957086 C6.87832795,3.22338886 6.97438564,3.18529786 7.08736541,3.18529786 L8.44162954,3.18529786 L8.44162954,0.464512299 C8.44162954,0.352712747 8.4814462,0.260206038 8.56107952,0.187981548 C8.64021513,0.11526237 8.73328657,0.0791501255 8.83929843,0.0791501255 L10.3528292,0.0791501255 C10.4722792,0.0791501255 10.56983,0.11526237 10.6459794,0.187981548 C10.7226264,0.260206038 10.76095,0.352712747 10.76095,0.464512299 L10.76095,8.31076318 C10.76095,8.41662647 10.7226264,8.51012256 10.6459794,8.5927355 C10.56983,8.67534845 10.4722792,8.71640757 10.3528292,8.71640757 L8.83929843,8.71640757 C8.73328657,8.71640757 8.64021513,8.67534845 8.56107952,8.5927355 C8.4814462,8.51012256 8.44162954,8.41662647 8.44162954,8.31076318 L8.44162954,5.25358958 Z M4.68841167,13.9304221 L4.68841167,14.3355718 C4.68841167,14.4745792 4.73320541,14.5918203 4.82279289,14.6868005 C4.91287809,14.78277 5.02336932,14.8302601 5.15625742,14.8302601 L14.2643183,14.8302601 C14.3703302,14.8302601 14.4614108,14.866867 14.5385555,14.9395862 C14.6142072,15.0123054 14.6525307,15.1043174 14.6525307,15.2166116 L14.6525307,16.2549623 C14.6525307,16.3539 14.6142072,16.4434386 14.5385555,16.522094 C14.4614108,16.6012441 14.3703302,16.6413139 14.2643183,16.6413139 L4.42960338,16.6413139 C4.27730466,16.6413139 4.11604719,16.6180635 3.94682638,16.5720575 C3.77810329,16.5255568 3.63625644,16.4632261 3.52377437,16.384076 L2.71798473,15.7998491 C2.49849539,15.6420436 2.32778146,15.4555461 2.20484753,15.2408514 C2.08191359,15.0266513 2.02069547,14.7847488 2.02069547,14.5141543 L2.02069547,12.6041628 C2.02069547,12.4923632 2.06051213,12.3983725 2.14064316,12.3226852 C2.22027648,12.2469979 2.31235251,12.2089069 2.41886207,12.2089069 L11.7165498,12.2089069 L11.7165498,11.358043 L2.40940561,11.358043 C2.30936626,11.358043 2.22027648,11.318468 2.14064316,11.2393178 C2.06051213,11.159673 2.02069547,11.0711238 2.02069547,10.9721862 L2.02069547,9.94273983 C2.02069547,9.83094028 2.06051213,9.73546544 2.14064316,9.65582063 C2.22027648,9.5766705 2.30936626,9.53759013 2.40940561,9.53759013 L13.9756475,9.53759013 C14.0881296,9.53759013 14.1831919,9.57518644 14.2593412,9.65136843 C14.3354906,9.72705574 14.3743118,9.82104651 14.3743118,9.93334075 L14.3743118,13.5341768 C14.3743118,13.6400401 14.3354906,13.7325468 14.2593412,13.8116969 C14.1831919,13.890847 14.0881296,13.9304221 13.9756475,13.9304221 L4.68841167,13.9304221 Z M2.59803704,5.31295218 L2.59803704,6.06487837 C2.59803704,6.20339109 2.64432391,6.31865346 2.73739535,6.41116017 C2.83046679,6.50317219 2.94344656,6.54967289 3.07583695,6.54967289 L7.04754875,6.54967289 C7.16699873,6.54967289 7.26305642,6.58875326 7.33621953,6.66790339 C7.40888493,6.7475482 7.44621305,6.84005491 7.44621305,6.94542352 L7.44621305,7.7567123 C7.44621305,7.86851185 7.40639639,7.96101856 7.32626537,8.03373774 C7.24663205,8.10645692 7.1535606,8.14603198 7.04754875,8.15196824 C6.16461432,8.24496964 5.45040299,8.31719413 4.90242621,8.37012577 C4.35494714,8.42256273 3.92691805,8.46560061 3.61833894,8.49874473 C3.30975983,8.53188884 3.07434383,8.55167637 2.91159323,8.55810732 C2.74884264,8.56453827 2.61495912,8.5675064 2.50894726,8.5675064 C2.33574479,8.5675064 2.15856066,8.54821356 1.97590173,8.50863849 C1.79324281,8.46906343 1.63945096,8.39931238 1.51353077,8.30086941 L0.696791543,7.71664255 C0.471329708,7.55191135 0.298624947,7.36244574 0.179174968,7.14824571 C0.0602226976,6.933551 0,6.69115374 0,6.42055925 L0,0.811288787 C0,0.705920182 0.0383235349,0.614897538 0.114472896,0.53921023 C0.191119966,0.463028234 0.288670782,0.424937236 0.408120761,0.424937236 L6.13176558,0.424937236 C6.24474535,0.424937236 6.33781679,0.463028234 6.4109799,0.53921023 C6.48364531,0.614897538 6.51997801,0.705920182 6.51997801,0.811288787 L6.51997801,1.90900209 C6.51997801,2.02179102 6.48364531,2.1152871 6.4109799,2.1914691 C6.33781679,2.26715641 6.24474535,2.30524741 6.13176558,2.30524741 L2.59803704,2.30524741 L2.59803704,3.50239305 L5.43497403,3.50239305 C5.5474561,3.50239305 5.64102525,3.5385053 5.71369065,3.61122448 C5.78685376,3.68344897 5.82368417,3.77595568 5.82368417,3.88775523 L5.82368417,4.91670686 C5.82368417,5.02949579 5.78685376,5.12299187 5.71369065,5.19917387 C5.64102525,5.27486118 5.5474561,5.31295218 5.43497403,5.31295218 L2.59803704,5.31295218 Z" id="Fill-15" fill="#000000" mask="url(#mask-6)"></path>
            </g>
            <path d="M38.4528395,29.0279623 C38.9575156,29.0279623 39.3666318,28.9473281 39.6826765,28.785565 C39.9977259,28.6242966 40.231151,28.404655 40.3839475,28.1276296 C40.5367439,27.8506041 40.6128932,27.5537912 40.6128932,27.2371907 C40.6128932,26.9072336 40.5367439,26.6059684 40.3839475,26.3319111 C40.231151,26.0583485 39.9977259,25.8406856 39.6826765,25.6784279 C39.3666318,25.5171595 38.9575156,25.4365253 38.4528395,25.4365253 C37.9620991,25.4365253 37.5554715,25.5171595 37.2334543,25.6784279 C36.911437,25.8406856 36.676021,26.0583485 36.5267086,26.3319111 C36.3773961,26.6059684 36.3027398,26.9072336 36.3027398,27.2371907 C36.3027398,27.5537912 36.3773961,27.8506041 36.5267086,28.1276296 C36.676021,28.404655 36.911437,28.6242966 37.2334543,28.785565 C37.5554715,28.9473281 37.9620991,29.0279623 38.4528395,29.0279623 L38.4528395,29.0279623 Z M38.4528395,30.9963269 C37.397698,30.9963269 36.5162567,30.8286276 35.809511,30.4922396 C35.103263,30.1558515 34.5741991,29.7042011 34.2223194,29.1367937 C33.8704397,28.5693862 33.6942509,27.9361852 33.6942509,27.2371907 C33.6942509,26.5644146 33.8704397,25.9430861 34.2223194,25.3717211 C34.5741991,24.8018402 35.103263,24.3432642 35.809511,23.9969824 C36.5162567,23.6507006 37.397698,23.4775597 38.4528395,23.4775597 C39.5144512,23.4775597 40.3953947,23.6507006 41.096168,23.9969824 C41.7959457,24.3432642 42.3250096,24.8018402 42.6833595,25.3717211 C43.0422072,25.9430861 43.2208845,26.5644146 43.2208845,27.2371907 C43.2208845,27.9361852 43.0422072,28.5693862 42.6833595,29.1367937 C42.3250096,29.7042011 41.7959457,30.1558515 41.096168,30.4922396 C40.3953947,30.8286276 39.5144512,30.9963269 38.4528395,30.9963269 L38.4528395,30.9963269 Z M37.2981563,34.1920133 L33.4055802,34.3903833 C33.2995683,34.3973089 33.2055014,34.3587232 33.1223842,34.2761103 C33.0392669,34.193992 32.9979571,34.1000012 32.9979571,33.9946326 L32.9979571,32.5897179 C32.9979571,32.4838546 33.0392669,32.3918426 33.1223842,32.3126925 C33.2055014,32.2330477 33.2995683,32.1934726 33.4055802,32.1934726 L44.5149259,32.1934726 C44.6209377,32.1934726 44.7140092,32.1608232 44.7936425,32.0950296 C44.8732758,32.0287414 44.9130925,31.943655 44.9130925,31.8377917 L44.9130925,23.7446914 C44.9130925,23.6388281 44.9534069,23.5483001 45.0330402,23.4726128 C45.1121758,23.3969255 45.2047495,23.3588345 45.3112591,23.3588345 L47.1826421,23.3588345 C47.2886539,23.3588345 47.3812277,23.3969255 47.4613587,23.4726128 C47.540992,23.5483001 47.5808087,23.6388281 47.5808087,23.7446914 L47.5808087,39.4955664 C47.5808087,39.600935 47.540992,39.6919576 47.4613587,39.7676449 C47.3812277,39.8433322 47.2886539,39.8809285 47.1826421,39.8809285 L45.3112591,39.8809285 C45.2047495,39.8809285 45.1121758,39.8433322 45.0330402,39.7676449 C44.9534069,39.6919576 44.9130925,39.600935 44.9130925,39.4955664 L44.9130925,33.8165448 L39.9658725,34.0737828 L39.9658725,39.4955664 C39.9658725,39.600935 39.927549,39.6919576 39.8518973,39.7676449 C39.7747526,39.8433322 39.6772017,39.8809285 39.5582495,39.8809285 L37.7062771,39.8809285 C37.6002652,39.8809285 37.5057007,39.8433322 37.4225834,39.7676449 C37.3399638,39.6919576 37.2981563,39.600935 37.2981563,39.4955664 L37.2981563,34.1920133 Z" id="Fill-18" fill="#000000"></path>
            <path d="M60.4613487,31.1748599 L51.2930652,31.1748599 C51.1870533,31.1748599 51.0944796,31.1338008 51.0148463,31.0511879 C50.9352129,30.9685749 50.8953963,30.878047 50.8953963,30.7791093 L50.8953963,29.5127073 C50.8953963,29.3939821 50.9352129,29.2985073 51.0148463,29.2257881 C51.0944796,29.1530689 51.1870533,29.1169567 51.2930652,29.1169567 L60.4613487,29.1169567 L60.4613487,26.485215 C60.4613487,26.3467023 60.416555,26.232924 60.3269675,26.1438801 C60.2368823,26.0548362 60.1288796,26.0103143 60.0034572,26.0103143 L51.2930652,26.0103143 C51.1870533,26.0103143 51.0944796,25.9707392 51.0148463,25.8915891 C50.9352129,25.8124389 50.8953963,25.723395 50.8953963,25.6244574 L50.8953963,24.3382678 C50.8953963,24.2393302 50.9352129,24.1488022 51.0148463,24.0661893 C51.0944796,23.984071 51.1870533,23.9425172 51.2930652,23.9425172 L60.7296135,23.9425172 C60.8824099,23.9425172 61.0436674,23.9692304 61.2128882,24.0216673 C61.382109,24.0741043 61.5229604,24.1339616 61.6354425,24.1997551 L62.4422276,24.8032748 C62.6681871,24.9615751 62.8418873,25.1510407 62.9643235,25.3721664 C63.0867597,25.593292 63.1489733,25.8356893 63.1489733,26.0993581 L63.1489733,34.548634 C63.1489733,34.6540026 63.110152,34.7465094 63.0345004,34.8256595 C62.9578533,34.9048096 62.8632887,34.9443847 62.7508067,34.9443847 L60.8590176,34.9443847 C60.7599737,34.9443847 60.6683954,34.9048096 60.5857758,34.8256595 C60.5021608,34.7465094 60.4613487,34.6540026 60.4613487,34.548634 L60.4613487,31.1748599 Z M49.4420882,38.0510271 C49.3355786,38.0510271 49.2410141,38.0129361 49.1583945,37.9372488 C49.0747795,37.8615615 49.0339674,37.7675707 49.0339674,37.6552765 L49.0339674,36.4185558 C49.0339674,36.3062615 49.0747795,36.2127654 49.1583945,36.1365834 C49.2410141,36.0608961 49.3355786,36.0228051 49.4420882,36.0228051 L64.5918295,36.0228051 C64.7043115,36.0228051 64.8008669,36.0608961 64.8805003,36.1365834 C64.9601336,36.2127654 64.9999502,36.3062615 64.9999502,36.4185558 L64.9999502,37.6552765 C64.9999502,37.7675707 64.9601336,37.8615615 64.8805003,37.9372488 C64.8008669,38.0129361 64.7043115,38.0510271 64.5918295,38.0510271 L49.4420882,38.0510271 Z" id="Fill-20" fill="#000000"></path>
        </g>
    </g>
</svg>