<?xml version="1.0" encoding="UTF-8"?>
<svg width="108px" height="52px" viewBox="0 0 108 52" version="1.1" xmlns="http://www.w3.org/2000/svg" xmlns:xlink="http://www.w3.org/1999/xlink">
    <title>logo_over_the_record</title>
    <g id="logo_over_the_record" stroke="none" stroke-width="1" fill="none" fill-rule="evenodd">
        <g id="or_b" transform="translate(0.000000, 4.000000)" fill="#000000" fill-rule="nonzero">
            <path d="M3.17287648,5.96682076 C3.17287648,7.96146325 4.66735567,9.41895501 6.49034267,9.41895501 C8.30812443,9.41895501 9.80723049,7.96146325 9.80723049,5.96682076 C9.80723049,4.37304553 8.30812443,2.91441331 6.49034267,2.91441331 C4.66735567,2.91441331 3.17287648,4.37304553 3.17287648,5.96682076 M12.980107,5.95085449 C12.980107,9.69494328 10.2566153,12.3339385 6.49034267,12.3339385 C2.72349168,12.3339385 0,9.69494328 0,5.95085449 C0,2.45424279 3.11388388,0 6.49034267,0 C9.86448801,0 12.980107,2.45424279 12.980107,5.95085449" id="Fill-98"></path>
            <polygon id="Fill-99" points="19.3115745 7.40857435 22.16057 0.381707742 25.474566 0.381707742 20.4636652 11.952687 18.0970209 11.952687 13.1641986 0.381707742 16.4799297 0.381707742"></polygon>
            <polygon id="Fill-100" points="29.2871074 2.93083575 29.2871074 4.86446431 32.7266073 4.86446431 32.7266073 7.40880244 29.2871074 7.40880244 29.2871074 9.40401515 32.9139955 9.40401515 32.9139955 11.9523449 26.2374213 11.9523449 26.2374213 0.381365608 32.9139955 0.381365608 32.9139955 2.93083575"></polygon>
            <path d="M37.8484373,5.56983102 L38.144557,5.56983102 C39.1381775,5.56983102 40.2601936,5.38450832 40.2601936,4.12830552 C40.2601936,2.86811115 39.1381775,2.68620979 38.144557,2.68620979 L37.8484373,2.68620979 L37.8484373,5.56983102 Z M44.5539294,11.9523449 L40.7570038,11.9523449 L37.8779336,7.50345957 L37.8484373,7.50345957 L37.8484373,11.9523449 L34.7975945,11.9523449 L34.7975945,0.381365608 L39.3562187,0.381365608 C41.6754376,0.381365608 43.4342268,1.47277376 43.4342268,3.94241259 C43.4342268,5.53447715 42.5308303,6.91898028 40.8657353,7.21207526 L44.5539294,11.9523449 Z" id="Fill-101"></path>
            <polygon id="Fill-102" points="7.44671681 27.1213786 4.39703076 27.1213786 4.39703076 18.0998695 1.87422959 18.0998695 1.87422959 15.5503994 9.9677829 15.5503994 9.9677829 18.0998695 7.44671681 18.0998695"></polygon>
            <polygon id="Fill-103" points="18.5270307 20.0158211 18.5270307 15.5503994 21.5767168 15.5503994 21.5767168 27.1213786 18.5270307 27.1213786 18.5270307 22.3805388 14.1228283 22.3805388 14.1228283 27.1213786 11.0702505 27.1213786 11.0702505 15.5503994 14.1228283 15.5503994 14.1228283 20.0158211"></polygon>
            <polygon id="Fill-104" points="26.6184441 18.0996984 26.6184441 20.033327 30.057944 20.033327 30.057944 22.5776651 26.6184441 22.5776651 26.6184441 24.5728778 30.2447539 24.5728778 30.2447539 27.1212075 23.5687581 27.1212075 23.5687581 15.5502283 30.2447539 15.5502283 30.2447539 18.0996984"></polygon>
            <path d="M61.7658879,39.7297658 L62.4471946,39.7297658 C64.2713383,39.7297658 65.8236534,38.748981 65.8236534,36.4920357 C65.8236534,34.4226939 64.4407974,33.255446 62.478426,33.255446 L61.7658879,33.255446 L61.7658879,39.7297658 Z M58.7138884,30.7093972 L63.0400124,30.7093972 C66.3083181,30.7093972 69,33.237769 69,36.4920357 C69,39.7440214 66.292124,42.2763848 63.0400124,42.2763848 L58.7138884,42.2763848 L58.7138884,30.7093972 Z" id="Fill-105"></path>
            <path d="M5.50354685,35.8940991 L5.79966656,35.8940991 C6.79444373,35.8940991 7.91298969,35.7104871 7.91298969,34.4520034 C7.91298969,33.1946601 6.79444373,33.0099076 5.79966656,33.0099076 L5.50354685,33.0099076 L5.50354685,35.8940991 Z M12.2125091,42.2760427 L8.41327007,42.2760427 L5.53419987,37.8282979 L5.50354685,37.8282979 L5.50354685,42.2760427 L2.45270408,42.2760427 L2.45270408,30.709055 L7.01248501,30.709055 C9.33170387,30.709055 11.0893363,31.7959014 11.0893363,34.2672509 C11.0893363,35.8644475 10.1859398,37.2438186 8.52200152,37.5357731 L12.2125091,42.2760427 Z" id="Fill-106"></path>
            <polygon id="Fill-107" points="16.0856625 33.2557311 16.0856625 35.1870787 19.5263191 35.1870787 19.5263191 37.734268 16.0856625 37.734268 16.0856625 39.7300509 19.7096588 39.7300509 19.7096588 42.2760997 13.0377115 42.2760997 13.0377115 30.709112 19.7096588 30.709112 19.7096588 33.2557311"></polygon>
            <path d="M29.9821212,34.5927346 C29.3598071,33.7636293 28.3488359,33.3177144 27.3060549,33.3177144 C25.4391126,33.3177144 24.1782904,34.7267371 24.1782904,36.5246525 C24.1782904,38.3482278 25.4547283,39.666585 27.3534803,39.666585 C28.3488359,39.666585 29.3447698,39.1927291 29.9821212,38.4400339 L29.9821212,42.0484094 C28.9699932,42.3523386 28.2389477,42.5861303 27.2904392,42.5861303 C25.6559972,42.5861303 24.0990553,41.9697185 22.8850801,40.880021 C21.5936049,39.7298799 21.0031005,38.2244893 21.0031005,36.5086862 C21.0031005,34.9268857 21.611534,33.4078097 22.7312367,32.274205 C23.881014,31.1063869 25.5472657,30.3993095 27.1967451,30.3993095 C28.1805334,30.3993095 29.0793031,30.617135 29.9821212,30.9849292 L29.9821212,34.5927346 Z" id="Fill-108"></path>
            <path d="M51.1825577,35.8940991 L51.4786774,35.8940991 C52.4734546,35.8940991 53.5920005,35.7104871 53.5920005,34.4520034 C53.5920005,33.1946601 52.4734546,33.0099076 51.4786774,33.0099076 L51.1825577,33.0099076 L51.1825577,35.8940991 Z M57.8892066,42.2760427 L54.0911242,42.2760427 L51.212054,37.8282979 L51.1825577,37.8282979 L51.1825577,42.2760427 L48.1317149,42.2760427 L48.1317149,30.709055 L52.6914959,30.709055 C55.0084013,30.709055 56.7671905,31.7959014 56.7671905,34.2672509 C56.7671905,35.8644475 55.8661074,37.2438186 54.2010124,37.5357731 L57.8892066,42.2760427 Z" id="Fill-109"></path>
            <path d="M39.0076419,43.036379 C35.348944,43.036379 32.3732879,40.1020078 32.3732879,36.4930621 C32.3732879,32.8841163 35.348944,29.9491749 39.0076419,29.9491749 C42.6698099,29.9491749 45.6466228,32.8841163 45.6466228,36.4930621 C45.6466228,40.1020078 42.6698099,43.036379 39.0076419,43.036379 M39.0076419,29.0573451 C34.8486636,29.0573451 31.4687347,32.3925835 31.4687347,36.4930621 C31.4687347,40.5935407 34.8486636,43.9282088 39.0076419,43.9282088 C43.1677769,43.9282088 46.551176,40.5935407 46.551176,36.4930621 C46.551176,32.3925835 43.1677769,29.0573451 39.0076419,29.0573451" id="Fill-110"></path>
            <path d="M39.0076419,30.0203959 C35.3894291,30.0203959 32.4455827,32.9245451 32.4455827,36.4935753 C32.4455827,40.0614649 35.3894291,42.965044 39.0076419,42.965044 C42.6293248,42.965044 45.5743279,40.0614649 45.5743279,36.4935753 C45.5743279,32.9245451 42.6293248,30.0203959 39.0076419,30.0203959 M39.0076419,43.1075999 C35.310194,43.1075999 32.300993,40.140726 32.300993,36.4935753 C32.300993,32.8452841 35.310194,29.8778399 39.0076419,29.8778399 C42.7079816,29.8778399 45.7189176,32.8452841 45.7189176,36.4935753 C45.7189176,40.140726 42.7079816,43.1075999 39.0076419,43.1075999 M39.0076419,29.1291362 C34.8903054,29.1291362 31.5410295,32.4324421 31.5410295,36.4935753 C31.5410295,40.5541382 34.8903054,43.8574441 39.0076419,43.8574441 C43.1272917,43.8574441 46.4788811,40.5541382 46.4788811,36.4935753 C46.4788811,32.4324421 43.1272917,29.1291362 39.0076419,29.1291362 M39.0076419,44 C34.8110703,44 31.3964398,40.6322589 31.3964398,36.4935753 C31.3964398,32.3543215 34.8110703,28.9865803 39.0076419,28.9865803 C43.2076836,28.9865803 46.6234708,32.3543215 46.6234708,36.4935753 C46.6234708,40.6322589 43.2076836,44 39.0076419,44" id="Fill-111"></path>
            <path d="M41.9051039,38.4662641 C41.9051039,38.9532352 41.5066147,39.3518215 41.0092261,39.3518215 L37.0092965,39.3518215 C36.513643,39.3518215 36.112262,38.9532352 36.112262,38.4662641 L36.112262,34.5208864 C36.112262,34.0322047 36.513643,33.6347588 37.0092965,33.6347588 L41.0092261,33.6347588 C41.5066147,33.6347588 41.9051039,34.0322047 41.9051039,34.5208864 L41.9051039,38.4662641 Z" id="Fill-112"></path>
        </g>
    </g>
</svg>