<?xml version="1.0" encoding="UTF-8"?>
<svg width="108px" height="52px" viewBox="0 0 108 52" version="1.1" xmlns="http://www.w3.org/2000/svg" xmlns:xlink="http://www.w3.org/1999/xlink">
    <title>logo_cooking_library</title>
    <defs>
        <rect id="path-1" x="0" y="0" width="108" height="52"></rect>
    </defs>
    <g id="Page-1" stroke="none" stroke-width="1" fill="none" fill-rule="evenodd">
        <g id="PCCUL000100_컬처서브메인" transform="translate(-980.000000, -957.000000)">
            <g id="Group-5" transform="translate(368.000000, 944.000000)">
                <g id="Group" transform="translate(612.000000, -0.000000)">
                    <g id="logo_cooking_library" transform="translate(0.000000, 13.000000)">
                        <mask id="mask-2" fill="white">
                            <use xlink:href="#path-1"></use>
                        </mask>
                        <use id="Mask" fill="#FFFFFF" xlink:href="#path-1"></use>
                        <g id="Group" mask="url(#mask-2)">
                            <g transform="translate(-6.000000, -8.000000)" id="Brand/Space/CookingLibrary">
                                <g id="기본" transform="translate(6.277778, 16.406250)" fill="#000000">
                                    <path d="M3.54992538,35.9375 C1.17516026,35.9411415 0.303789746,34.0211385 0.301919852,32.7976608 L0.294440277,20.2912021 C0.294440277,20.0286376 0.406633905,19.8973553 0.675898612,19.8973553 L3.02448522,19.895532 C3.29374993,19.895532 3.45082101,20.0249909 3.45082101,20.2875554 L3.46017048,33.1878608 C3.46017048,33.4704823 3.57049421,33.6017646 3.86032775,33.6017646 L11.4053492,33.5962945 C11.672744,33.5962945 11.8522538,33.7056964 11.8522538,33.9245002 C11.8522538,34.1670077 11.6951828,34.3621077 11.4745353,34.4915666 L9.5728533,35.5418247 C9.03245399,35.8262696 8.49579447,35.9356714 7.9142575,35.9356714 L3.54992538,35.9375 Z" id="Fill-13"></path>
                                    <path d="M16.0411899,35.5817564 C16.0411899,35.8443209 15.8841188,35.9318424 15.6148541,35.9318424 L13.2438288,35.9336657 C13.0194415,35.9336657 12.9296866,35.8461442 12.9296866,35.5854031 L12.924077,20.2600226 C12.924077,20.0211618 13.0100921,19.8898608 13.2344793,19.8898608 L15.6111143,19.8898608 C15.8785092,19.8880562 16.0337103,20.0193384 16.0337103,20.2581992 L16.0411899,35.5817564 Z" id="Fill-16"></path>
                                    <path d="M29.1147394,33.1743679 L29.1128695,29.595103 C29.1128695,29.3106581 28.910921,29.115558 28.5967788,29.115558 L22.5532821,29.1173814 C22.2597087,29.1173814 22.1269463,29.2924244 22.1269463,29.5750459 L22.1306861,33.199895 C22.1306861,33.4624595 22.2653184,33.5736848 22.5570218,33.5736848 L28.6023885,33.5700381 C28.9127909,33.5700381 29.1147394,33.4387558 29.1147394,33.1743679 M29.1073114,26.3622773 L29.1073114,22.6517301 C29.1073114,22.3709319 28.9053113,22.1958889 28.5949089,22.1958889 L22.5271035,22.1995356 C22.23727,22.1995356 22.1250764,22.3745787 22.1250764,22.6553768 L22.1250764,26.3896278 C22.1269463,26.6540157 22.2597087,26.7816512 22.5532821,26.7816512 L28.5967788,26.7798278 C28.910921,26.7798278 29.1109996,26.6485456 29.1073114,26.3622773 M32.3309567,22.3472282 L32.3328266,24.5079154 C32.3328266,25.4688286 31.9532382,26.3185165 31.1921914,26.9311671 C31.1024365,27.020512 31.0351203,27.1062101 31.0351203,27.2593727 C31.0351203,27.4088887 31.1024365,27.4964102 31.2146301,27.5638747 C31.9775468,28.1947589 32.3814624,29.0243898 32.3814624,30.0545909 L32.3814624,31.2762452 C32.3851836,32.4960762 31.8223456,33.4351091 30.7041491,34.0678166 L28.1330452,35.5338019 C27.6169545,35.8182468 27.0802949,35.9276486 26.4501407,35.9276486 L19.3800723,35.929472 C19.1313764,35.929472 19.0416215,35.8437739 19.0416215,35.5812093 L19.0341419,20.281356 C19.0341419,20.0187914 19.1220269,19.8875092 19.3707228,19.8875092 L21.6968707,19.8875092 C21.9661354,19.8856858 22.1232065,20.0169681 22.1232065,20.2777092 L22.1232065,20.6277952 C22.1232065,20.9104168 22.2578388,21.0179953 22.5944197,20.9541775 L28.7931177,19.7507568 C29.1521373,19.7051727 29.421402,19.6632323 29.5541644,19.6632323 C30.6947997,19.6614119 32.3309567,20.4910429 32.3309567,22.3472282" id="Fill-18"></path>
                                    <path d="M44.7373281,26.8363521 L44.7354582,22.6426133 C44.7354582,22.3618151 44.580257,22.2086525 44.3091224,22.2086525 L38.4245666,22.2104758 C38.1553019,22.2104758 38.0449782,22.3672852 38.0449782,22.6480834 L38.0468481,26.8618792 C38.0468481,27.1445008 38.1590417,27.275783 38.4283064,27.275783 L44.3109923,27.2721363 C44.5839968,27.2721363 44.7373281,27.120797 44.7373281,26.8363521 M47.9385863,22.3381114 L47.9385863,25.0002239 C47.9404562,26.2419352 47.3813579,27.140854 46.2388528,27.7717382 L45.0757789,28.4500299 C44.8289529,28.6050159 44.7635066,28.7764122 44.9392766,29.0170963 L48.9071913,35.6286168 C49.0193849,35.8711243 48.9969462,35.9130617 48.682804,35.9130617 L45.9078816,35.9167085 C45.6591857,35.9167085 45.4385383,35.8291869 45.3263446,35.5885028 L42.0110229,30.0035367 C41.8726508,29.7628525 41.6501334,29.6315703 41.3621698,29.6315703 L38.4283064,29.6333936 C38.1590417,29.6333936 38.0468481,29.7865563 38.0468481,30.0491208 L38.0543277,35.5483888 C38.0543277,35.8328337 37.872948,35.9203552 37.6018134,35.9203552 L35.2756655,35.9221785 C35.0064008,35.9221785 34.9166459,35.834657 34.9166459,35.5720925 L34.9072964,20.2722391 C34.9072964,20.0096746 34.9970513,19.876569 35.2644461,19.876569 L37.5924639,19.876569 C37.8617286,19.876569 38.0449782,20.0060279 38.0449782,20.2685924 L38.0449782,20.6186784 C38.0449782,20.9231803 38.1758708,21.0344056 38.4675742,20.9468841 L44.3970074,19.74164 C44.6905807,19.6978792 44.9579756,19.6541185 45.1580542,19.6541185 C46.235113,19.6541185 47.9348465,20.4600457 47.9385863,22.3381114" id="Fill-20"></path>
                                    <path d="M58.9795612,29.0967774 L56.9151984,22.0914101 C56.8721909,21.9619512 56.7562575,21.8762531 56.5823573,21.8762531 C56.4215465,21.8762531 56.3355314,21.9619512 56.2663453,22.0932335 L54.2356406,29.0986007 C54.1458857,29.4067494 54.2562095,29.4942709 54.5254742,29.4942709 L58.6224115,29.4924475 C58.9589924,29.4924475 59.0693161,29.404926 58.9795612,29.0967774 L58.9795612,29.0967774 Z M64.0638024,35.5569586 C64.1535573,35.8176998 64.0638024,35.9052213 63.772099,35.9052213 L61.376765,35.908868 C61.1093702,35.908868 60.9317303,35.8213465 60.8644141,35.5369016 L59.8995489,32.2402582 C59.7873553,32.0232778 59.6097154,31.8482347 59.3385808,31.8482347 L53.8541823,31.8500581 C53.5849176,31.8500581 53.3829691,32.0251011 53.3399615,32.2439049 L52.3582673,35.5405483 C52.2890812,35.8249932 52.1544488,35.9125147 51.8421766,35.9125147 L49.4019652,35.9143381 C49.1570091,35.9143381 49.0915628,35.8268166 49.1570091,35.5660754 L53.9383275,20.2388716 C54.0056437,19.9981874 54.1851535,19.8669051 54.4506784,19.8669051 L58.7065567,19.8650818 C59.0169591,19.8650818 59.2002087,19.996364 59.2862238,20.2370482 L64.0638024,35.5569586 Z" id="Fill-22"></path>
                                    <path d="M75.1661099,26.8183008 L75.1605002,22.6263853 C75.1605002,22.3455872 75.005299,22.1924245 74.7379042,22.1924245 L68.8496086,22.1960712 C68.5840837,22.1960712 68.4700202,22.3510572 68.4700202,22.6300321 L68.4718901,26.8456513 C68.4718901,27.1282728 68.5859536,27.2595551 68.8533484,27.2595551 L74.7397741,27.254085 C75.0071689,27.254085 75.1661099,27.1063924 75.1661099,26.8183008 M78.3617584,22.3218834 L78.3636283,24.9858193 C78.3636283,26.2275307 77.8082698,27.1246261 76.6657647,27.7555103 L75.5026907,28.433802 C75.2539949,28.5851412 75.1885486,28.7601843 75.3680584,29.0008684 L79.335973,35.6142122 C79.4481667,35.853073 79.4257279,35.8968338 79.1115858,35.8968338 L76.3347935,35.9004805 C76.0879675,35.9004805 75.8635802,35.8111356 75.7532565,35.5722749 L72.4379348,29.9854853 C72.3014326,29.7466246 72.0789152,29.6153423 71.7853419,29.6153423 L68.8552183,29.618989 C68.5859536,29.618989 68.4756299,29.7703283 68.4756299,30.0328928 L68.4774997,35.5321608 C68.4774997,35.8184291 68.2979899,35.9041272 68.0305951,35.9041272 L65.7025773,35.9041272 C65.4333126,35.9041272 65.3435577,35.8184291 65.3435577,35.5558646 L65.3342083,20.2541878 C65.3342083,19.9916233 65.4239632,19.8621644 65.691358,19.8621644 L68.0212457,19.860341 C68.2886405,19.860341 68.4700202,19.9916233 68.4700202,20.2523645 L68.4700202,20.6024505 C68.4700202,20.9069524 68.6046525,21.0181776 68.8926162,20.9306561 L74.8257892,19.725412 C75.1156227,19.6816513 75.3848874,19.6378905 75.586836,19.6378905 C76.6620249,19.6378905 78.3617584,20.4438177 78.3617584,22.3218834" id="Fill-24"></path>
                                    <path d="M93.9456403,20.1952931 L88.2649029,29.343114 C88.1284007,29.5619177 88.0386457,29.8026019 88.0386457,30.0651664 L88.0442554,35.522497 C88.0442554,35.8051185 87.9077532,35.89264 87.664667,35.89264 L85.3160804,35.8944634 C85.0692544,35.8944634 84.9327522,35.8069419 84.9327522,35.5243204 L84.9290124,30.0688131 C84.9290124,29.8026019 84.8411274,29.5637411 84.7046251,29.3449373 L79.0594157,20.2025866 C79.0126684,20.1168885 79.0126684,20.0512473 79.0594157,19.9637258 C79.1024233,19.8962613 79.1716094,19.8525006 79.283803,19.8525006 L81.9259629,19.8525006 C82.1727889,19.8525006 82.3953063,19.9837828 82.5523773,20.224467 L86.1818412,26.6390641 C86.2491574,26.7703463 86.3370424,26.8341641 86.4959834,26.8341641 C86.608177,26.8341641 86.6979319,26.7703463 86.7876868,26.6390641 L90.4321098,20.2189969 C90.5891809,19.9801361 90.7425122,19.8488538 90.9893382,19.8488538 L93.7436917,19.8470305 C93.809138,19.8470305 93.9026327,19.8907912 93.9456403,19.954609 C93.9886478,20.0421305 93.9886478,20.109595 93.9456403,20.1952931" id="Fill-26"></path>
                                    <g id="Group-2">
                                        <path d="M0.00184840445,12.8445939 L0,4.6601346 C0,3.45335913 0.526795269,2.52756421 1.61180868,1.89715911 L4.20696853,0.495858638 C4.67091805,0.21487808 5.22359098,0.0851947461 5.73375061,0.0833935886 L11.2309054,0.0815924312 C11.4970757,0.0815924312 11.6283124,0.209474608 11.6283124,0.468841277 L11.6320092,2.04665518 C11.6320092,2.2826068 11.4970757,2.3924774 11.2309054,2.3924774 L3.54339133,2.39427856 C3.27722109,2.39427856 3.16631683,2.54377463 3.16631683,2.82655634 L3.17186204,13.2336439 C3.17186204,13.5146245 3.28461471,13.6425067 3.54708814,13.6425067 L11.4601076,13.6407055 C11.704097,13.6407055 11.859363,13.7469738 11.859363,13.966715 C11.859363,14.2044678 11.7466103,14.3971916 11.5044693,14.526875 L9.60061272,15.5607393 C9.08860469,15.843521 8.55811261,15.9515905 8.02577213,15.9515905 L3.240253,15.9533916 C1.66726082,15.9533916 0.00184840445,14.8546856 0.00184840445,12.8445939" id="Fill-10"></path>
                                        <path d="M24.6610425,2.8180909 C24.6610425,2.53530919 24.4614148,2.38401196 24.128702,2.38401196 L17.7461615,2.38761428 C17.4578104,2.38941544 17.3469061,2.54071266 17.3469061,2.82169322 L17.3524513,13.2287808 C17.3524513,13.5097614 17.465204,13.6394447 17.7535551,13.6359154 L24.1323988,13.6340412 C24.4651116,13.6340412 24.6628909,13.5043579 24.6628909,13.2233773 L24.6610425,2.8180909 Z M17.4208423,15.9917563 C15.2729963,15.9917563 14.1639536,14.2860602 14.1639536,12.8379296 L14.160252,4.65527147 C14.1584084,3.46830873 14.6907489,2.54071266 15.7720655,1.89229599 L18.365377,0.422551531 C18.8552041,0.137968659 19.3635154,0.011887639 19.9365207,0.011887639 L24.5039281,0.010077998 C25.9419868,0.00648416672 27.7608168,1.15021913 27.7608168,3.22515248 L27.7682104,11.3843956 C27.7682104,12.5929722 27.2136891,13.5241706 26.1286756,14.1455699 L23.6037552,15.599104 C23.0510822,15.8764822 22.5409226,15.9863528 21.9401912,15.9863528 L17.4208423,15.9917563 Z" id="Fill-12"></path>
                                        <path d="M40.9889232,2.80800442 C40.9889232,2.52522271 40.791144,2.37572664 40.4565828,2.37572664 L34.077739,2.3775278 C33.7912363,2.3775278 33.6784836,2.52702386 33.6784836,2.81160674 L33.6858773,13.215092 C33.6858773,13.4960726 33.7967815,13.6257559 34.0832842,13.6257559 L40.4639764,13.6239547 C40.7985376,13.6239547 40.9963169,13.4942714 40.9963169,13.215092 L40.9889232,2.80800442 Z M33.7542682,15.9798743 C31.6027254,15.983471 30.4918344,14.2759737 30.4918344,12.8296443 L30.489986,4.64518499 C30.489986,3.45822225 31.020478,2.53062618 32.1054914,1.88401066 L34.6988029,0.414266207 C35.1867817,0.127882177 35.6913961,0.00180115742 36.2699467,0.00180115742 L40.8318089,0 C42.2735643,0 44.0905459,1.14193381 44.0942427,3.21686716 L44.0979441,11.3779114 C44.0997879,12.5882892 43.5452666,13.5158853 42.4602532,14.1372846 L39.9353327,15.5890175 C39.3808114,15.8681969 38.8706517,15.9780675 38.2736171,15.9780675 L33.7542682,15.9798743 Z" id="Fill-14"></path>
                                        <path d="M59.8347005,15.6635854 C59.9437564,15.8815255 59.9437564,15.9247532 59.6775861,15.9247532 L56.8181044,15.9265544 C56.5316018,15.9265544 56.2894608,15.8599116 56.1341948,15.6455738 L50.3893538,8.41572794 C50.3024788,8.34908512 50.1915745,8.26443072 50.056641,8.26443072 C49.7682899,8.26443072 49.659234,8.43554067 49.659234,8.71652123 L49.6629308,15.5609194 C49.6629308,15.8419 49.485484,15.9265544 49.2193137,15.9301567 L46.9162018,15.9301567 C46.6722124,15.9301567 46.583489,15.8437011 46.583489,15.5843345 L46.574247,0.449208661 C46.574247,0.19164315 46.661122,0.0619598153 46.9069598,0.0619598153 L49.2119201,0.0619598153 C49.476242,0.0601586579 49.6536888,0.188040835 49.6536888,0.447407504 L49.659234,6.85952793 C49.659234,7.14050848 49.7682899,7.25037909 50.056641,7.25037909 C50.1915745,7.25037909 50.3006303,7.20715131 50.3893538,7.11709344 L56.1693145,0.35915079 C56.3467613,0.164625788 56.5667214,0.0583575005 56.8550725,0.0583575005 L59.5814691,0.0547551856 C59.8254585,0.0547551856 59.8661234,0.141210742 59.7145542,0.335735744 L53.5353381,7.33323233 C53.3597397,7.54937122 53.3597397,7.80873789 53.5353381,7.97804669 L59.8347005,15.6635854 Z" id="Fill-16"></path>
                                        <path d="M64.0673619,15.5771299 C64.0673619,15.8346954 63.9120959,15.9211509 63.6496225,15.9211509 L61.2966036,15.9247532 C61.0766435,15.9247532 60.98792,15.8382977 60.98792,15.578931 L60.978678,0.420390142 C60.978678,0.18443852 61.0674014,0.0547551856 61.2873616,0.0547551856 L63.6366836,0.0511528708 C63.9010055,0.0511528708 64.0581198,0.180836205 64.0581198,0.418588985 L64.0673619,15.5771299 Z" id="Fill-18"></path>
                                        <path d="M81.596151,15.564882 C81.596151,15.8242486 81.4612174,15.9107042 81.2153796,15.9125054 L76.5000999,15.9143065 C76.2302328,15.9143065 76.0564828,15.827851 75.9640626,15.5937005 L70.3301258,2.42363743 C70.2857641,2.33718187 70.2192216,2.2723402 70.1083173,2.2723402 C69.9530513,2.2723402 69.8643279,2.38040965 69.8643279,2.51009298 L69.8717215,15.5504727 C69.8717215,15.8314533 69.7164555,15.9161077 69.4299529,15.9161077 L67.2377452,15.91971 C67.0140882,15.91971 66.9272132,15.8332544 66.9272132,15.5756889 L66.9179712,0.417148059 C66.9179712,0.179395279 67.0029978,0.0497119449 67.2285032,0.0497119449 L72.0121739,0.0479107874 C72.2543149,0.0479107874 72.4373069,0.155980233 72.5241819,0.393733013 L78.1581187,13.5385799 C78.2246612,13.6250354 78.2912038,13.6682632 78.3577464,13.6682632 C78.5111639,13.6682632 78.6442491,13.6016204 78.6442491,13.4719371 L78.6387038,0.408142272 C78.6387038,0.17219065 78.771789,0.0425073152 79.0379592,0.0425073152 L81.2098344,0.0425073152 C81.4538238,0.0425073152 81.5850605,0.17219065 81.5850605,0.408142272 L81.596151,15.564882 Z" id="Fill-20"></path>
                                        <path d="M87.0025491,16.1268431 C85.717908,16.1268431 84.3445435,15.1740308 84.3408467,13.5133637 L84.3371499,4.61564601 C84.3371499,3.40887054 84.8436127,2.48307562 85.9082937,1.85267052 L88.4997567,0.453171207 C88.9877355,0.170389492 89.5182276,0.0389050003 90.0727489,0.0389050003 L96.7214597,0.0353026855 C96.9636007,0.0353026855 97.0985343,0.16498602 97.0985343,0.422551531 L97.0985343,2.00216659 C97.0985343,2.23811821 96.9636007,2.34618766 96.7214597,2.34618766 L87.8583604,2.34978997 C87.5940386,2.34978997 87.459105,2.5010872 87.459105,2.78206775 L87.4664987,13.1909565 C87.4664987,13.4701359 87.5977354,13.5998192 87.8639056,13.5998192 L93.7806483,13.5962169 C94.0264861,13.5962169 94.2002361,13.4665336 94.2002361,13.185553 L94.2002361,10.1830236 C94.2002361,9.90204304 94.0264861,9.75254698 93.8009807,9.75254698 L91.3185735,9.75434814 C91.0320708,9.75434814 90.9193182,9.64627869 90.9193182,9.40852591 L90.9193182,7.8523259 C90.9193182,7.5731465 91.028374,7.46327589 91.2945443,7.46327589 L96.900755,7.46147474 C97.1687736,7.45967358 97.3018587,7.59115807 97.3037072,7.86853631 L97.3055556,15.5576774 C97.3055556,15.817044 97.170622,15.9034996 96.9044518,15.9071019 L94.6031882,15.9071019 C94.337018,15.9071019 94.2057813,15.8188452 94.2057813,15.5360635 L94.2002361,15.1704285 C94.2002361,14.8930503 94.0061536,14.786782 93.7399834,14.8498225 L87.8010599,16.0367852 C87.4664987,16.1268431 87.2021768,16.1268431 87.0025491,16.1268431" id="Fill-22"></path>
                                    </g>
                                </g>
                            </g>
                        </g>
                    </g>
                </g>
            </g>
        </g>
    </g>
</svg>