<?xml version="1.0" encoding="UTF-8"?>
<svg width="108px" height="52px" viewBox="0 0 108 52" version="1.1" xmlns="http://www.w3.org/2000/svg" xmlns:xlink="http://www.w3.org/1999/xlink">
    <title>logo_super_concert</title>
    <g id="logo_super_concert" stroke="none" stroke-width="1" fill="none" fill-rule="evenodd">
        <path d="M33.475242,21.638157 C33.475242,21.7486308 33.436805,21.8234073 33.247488,21.8234073 L30.471436,21.8234073 C30.288016,21.8234073 30.259934,21.7681703 30.259934,21.638157 L30.259934,16.807333 C30.259934,16.6220827 30.310202,16.5623367 30.471436,16.5623367 L33.247488,16.5623367 C33.405737,16.5623367 33.475242,16.6386162 33.475242,16.807333 L33.475242,21.638157 Z M33.822808,14.7053999 C33.714864,14.7053999 33.596527,14.7279455 33.473768,14.7546246 C33.429397,14.7658975 33.386499,14.7734126 33.334757,14.7809279 L30.450747,15.5736713 C30.409324,15.5887018 30.373834,15.5924594 30.347226,15.5924594 C30.30584,15.5924594 30.259957,15.5924594 30.259957,15.4643249 L30.259957,15.2061768 C30.259957,14.9807202 30.132738,14.8401854 29.927169,14.8401854 L28.400883,14.8401854 C28.181972,14.8401854 28.071081,14.9638109 28.071081,15.2061768 L28.071081,26.8637181 C28.071081,27.1816121 28.250042,27.2473703 28.400883,27.2473703 L29.927196,27.2473703 C30.128342,27.2473703 30.259945,27.0963142 30.259945,26.8637181 L30.259945,23.7869476 C30.259945,23.5840365 30.345741,23.54383 30.471448,23.54383 L31.858731,23.54383 C32.283198,23.54383 32.632241,23.4540231 32.923601,23.2736577 L34.571184,22.3286934 C35.28553,21.8898042 35.647885,21.2448853 35.647885,20.4193754 L35.647885,16.5618858 C35.647885,15.4138977 34.701336,14.7047986 33.822823,14.7047986 L33.822808,14.7053999 Z M41.401101,38.0518584 L37.367921,38.0518584 C37.188961,38.0518584 37.165339,37.9669363 37.165339,37.8726203 L37.165339,33.1223971 C37.165339,32.9074617 37.28069,32.8822857 37.367921,32.8822857 L41.371522,32.8822857 C41.568247,32.8822857 41.677702,32.7774483 41.677702,32.5854343 L41.677702,31.5554352 C41.677702,31.2597112 41.510571,31.196959 41.371522,31.196959 L38.733023,31.196959 C38.360323,31.196959 38.015714,31.2969115 37.708087,31.4926831 L36.097479,32.4630113 C35.389048,32.8795427 35.031134,33.5094688 35.031134,34.3320477 L35.031134,37.5745289 C35.031134,38.6150118 35.835697,39.7390639 37.132767,39.7390639 L39.253622,39.7390639 C39.670697,39.7390639 40.013821,39.6522631 40.305178,39.476031 L41.464699,38.790868 C41.625896,38.7070733 41.708705,38.5684173 41.708705,38.3817768 C41.708705,38.1713504 41.594828,38.0518584 41.401089,38.0518584 L41.401101,38.0518584 Z M63.060776,38.0518584 L60.188596,38.0518584 C60.040703,38.0518584 60.000791,38.0142823 60.000791,37.8726203 L60.000791,33.1373524 C60.000791,32.9374475 60.067349,32.898744 60.188596,32.898744 L62.756105,32.898744 C63.060772,32.898744 63.10367,32.7119907 63.10367,32.6018927 L63.10367,31.5688123 C63.10367,31.3358404 62.983897,31.2118392 62.756105,31.2118392 L60.114646,31.2118392 C60.037732,31.2118392 60.000769,31.1968087 60.000769,31.0758136 L60.000769,29.5098286 C60.000769,29.3245783 59.85881,29.2110985 59.662085,29.2573171 L58.157965,29.6484094 C57.962753,29.7303253 57.88138,29.8588357 57.88138,30.0738838 L57.88138,37.6186433 C57.88138,38.645749 58.680028,39.753418 59.969701,39.753418 L60.942865,39.753418 C61.370292,39.753418 61.695668,39.6730051 61.995906,39.4877548 L63.140634,38.7891019 C63.324054,38.6842646 63.409812,38.55613 63.409812,38.3815889 C63.409812,38.1696596 63.285579,38.0516705 63.060772,38.0516705 L63.060776,38.0518584 Z M56.591714,31.1206419 L55.733905,31.1206419 C55.358258,31.1206419 55.029907,31.205564 54.69122,31.3893112 L53.860034,31.9520887 C53.815662,31.9708769 53.772765,31.9708769 53.731379,31.9708769 C53.571694,31.9708769 53.54501,31.9201491 53.54501,31.8051661 L53.54501,31.5665578 C53.54501,31.3501193 53.413407,31.2095846 53.209275,31.2095846 L51.745086,31.2095846 C51.471486,31.2095846 51.438906,31.4124957 51.438906,31.5665578 L51.438906,39.4398077 C51.438906,39.6457248 51.533546,39.7366591 51.745086,39.7366591 L53.209275,39.7366591 C53.422251,39.7366591 53.54501,39.6235549 53.54501,39.4232742 L53.54501,33.1205184 C53.54501,32.933765 53.613004,32.8965646 53.731379,32.8965646 L56.591729,32.8965646 C56.798809,32.8965646 56.925991,32.7834605 56.925991,32.5997132 L56.925991,31.4502596 C56.925991,31.2458455 56.798772,31.1188383 56.591729,31.1188383 L56.591714,31.1206419 Z M22.294145,37.8861853 C22.294145,38.0068046 22.260129,38.0684295 22.075235,38.0684295 L19.405675,38.0684295 C19.222254,38.0684295 19.18975,38.0071804 19.18975,37.8861853 L19.18975,33.1374651 C19.18975,32.9747606 19.2489,32.9135115 19.405675,32.9135115 L22.075235,32.9135115 C22.230535,32.9135115 22.294145,32.9773909 22.294145,33.1374651 L22.294145,37.8861853 Z M22.309263,31.2116888 L20.785909,31.2116888 C20.420618,31.2116888 20.070085,31.3101383 19.746188,31.5059099 L18.151703,32.4612828 C17.443272,32.8718395 17.083877,33.5003378 17.083877,34.3318222 L17.083877,37.6041013 C17.083877,38.6371441 17.882529,39.7538313 19.175161,39.7538313 L20.699989,39.7538313 C21.111145,39.7538313 21.440954,39.6700365 21.735274,39.4896711 L23.378423,38.5327576 C24.055798,38.0924031 24.400396,37.4579302 24.400396,36.6488035 L24.400396,33.4063599 C24.400396,31.8911403 23.177281,31.2119143 22.309119,31.2119143 L22.309263,31.2116888 Z M15.300227,37.9936906 L10.120842,37.9936906 C10.008439,37.9936906 9.947815,37.959872 9.947815,37.7847673 L9.947815,30.5833033 C9.947815,30.3980531 10.017321,30.3593497 10.120842,30.3593497 L15.156771,30.3593497 C15.37417,30.3593497 15.493981,30.2473728 15.493981,30.0459648 L15.493981,28.9562196 C15.493981,28.7367751 15.369748,28.6127739 15.156771,28.6127739 L11.559889,28.6127739 C11.185716,28.6127739 10.815965,28.7176112 10.521646,28.9069949 L8.822294,29.8773232 C8.096115,30.3207214 7.727849,30.9850297 7.727849,31.8538272 L7.727849,37.5146702 C7.727849,38.9597726 8.856314,39.7389888 9.918221,39.7389888 L13.053661,39.7389888 C13.448546,39.7389888 13.796107,39.6476788 14.11705,39.4597982 L15.366781,38.7432215 C15.542793,38.6443963 15.635959,38.4877039 15.635959,38.2908801 C15.635959,38.1056298 15.510252,37.9940287 15.300223,37.9940287 L15.300227,37.9936906 Z M47.942817,34.5556257 C47.942817,34.6063534 47.942817,34.7198333 47.697295,34.7198333 L45.114993,34.7198333 C44.915321,34.7198333 44.899069,34.6469356 44.899069,34.5556257 L44.899069,33.0792222 C44.899069,32.8537654 45.008524,32.8225772 45.114993,32.8225772 L47.697299,32.8225772 C47.861444,32.8225772 47.942817,32.9074992 47.942817,33.0792222 L47.942817,34.5556257 Z M47.886611,31.1803504 L46.52151,31.1803504 C46.156219,31.1803504 45.807164,31.2803029 45.484748,31.4756987 L43.890407,32.4445614 C43.180499,32.8416659 42.822585,33.465655 42.822585,34.3031516 L42.822585,37.5739652 C42.822585,38.7682472 43.758774,39.7385378 44.910902,39.7385378 L47.435521,39.7385378 C47.880697,39.7385378 48.222339,39.6547431 48.504829,39.475505 L49.645124,38.7917698 C49.822572,38.7068478 49.91725,38.5644343 49.91725,38.3812507 C49.91725,38.1843518 49.794491,38.0674901 49.582988,38.0674901 L45.114986,38.0674901 C44.940485,38.0674901 44.913839,38.0137563 44.913839,37.8852459 L44.913839,36.4521677 C44.913839,36.3056208 44.972989,36.2432444 45.114986,36.2432444 L48.654188,36.2432444 C49.100841,36.2432444 50.020767,35.8997987 50.020767,34.8384987 L50.020767,33.3755099 C50.020767,31.8782141 48.747365,31.1795237 47.8866,31.1795237 L47.886611,31.1803504 Z M31.622265,31.0785191 C31.508387,31.0785191 31.403392,31.1048223 31.298359,31.1277438 C31.262832,31.135259 31.225906,31.1465318 31.18297,31.1540471 L28.412818,31.9332631 C28.371432,31.9482936 28.332957,31.9520512 28.304875,31.9520512 C28.253133,31.9520512 28.214658,31.9407784 28.214658,31.8265469 L28.214658,31.5710293 C28.214658,31.3545909 28.094884,31.2140561 27.908478,31.2140561 L26.441307,31.2140561 C26.232791,31.2140561 26.124809,31.3335482 26.124809,31.5710293 L26.124809,39.4442792 C26.124809,39.7114454 26.306718,39.7411306 26.441307,39.7411306 L27.908455,39.7411306 C28.103668,39.7411306 28.214635,39.6280264 28.214635,39.4277457 L28.214635,33.1249899 C28.214635,32.9637883 28.27677,32.9010362 28.430559,32.9010362 L31.088285,32.9010362 C31.227296,32.9010362 31.302736,32.978443 31.302736,33.1249899 L31.302736,39.4277457 C31.302736,39.6471903 31.392953,39.7411306 31.608915,39.7411306 L33.058319,39.7411306 C33.349683,39.7411306 33.394054,39.5558803 33.394054,39.4442792 L33.394054,32.9011489 C33.394054,31.8979415 32.598362,31.0813749 31.622234,31.0813749 L31.622265,31.0785191 Z M51.984867,14.7498524 L51.094523,14.7498524 C50.705553,14.7498524 50.362429,14.8336471 50.010434,15.0215278 L49.140787,15.5948267 C49.099401,15.6173723 49.052006,15.6173723 49.009146,15.6173723 C48.842016,15.6173723 48.812422,15.5621355 48.812422,15.4456495 L48.812422,15.2055381 C48.812422,14.9830875 48.676359,14.8395466 48.464857,14.8395466 L46.941454,14.8395466 C46.656024,14.8395466 46.623482,15.0484698 46.623482,15.2055381 L46.623482,23.2369459 C46.623482,23.4473721 46.722581,23.5431913 46.941454,23.5431913 L48.464804,23.5431913 C48.688136,23.5431913 48.812369,23.427081 48.812369,23.2222911 L48.812369,16.7896723 C48.812369,16.5984098 48.886334,16.5612094 49.009093,16.5612094 L51.984802,16.5612094 C52.197779,16.5612094 52.330856,16.4450992 52.330856,16.2583458 L52.330856,15.0849938 C52.330856,14.8805797 52.196305,14.7490633 51.984802,14.7490633 L51.984867,14.7498524 Z M39.588054,16.7457834 C39.588054,16.5620361 39.656048,16.4846293 39.815808,16.4846293 L42.50298,16.4846293 C42.674571,16.4846293 42.760329,16.5725574 42.760329,16.7457834 L42.760329,18.2550284 C42.760329,18.3042531 42.760329,18.4218663 42.50298,18.4218663 L39.815672,18.4218663 C39.60417,18.4218663 39.587918,18.3429564 39.587918,18.2550284 L39.588054,16.7457834 Z M44.813292,22.1573087 C44.813292,21.9574037 44.684599,21.8364085 44.467201,21.8364085 L39.815699,21.8364085 C39.63379,21.8364085 39.604196,21.7841778 39.604196,21.6526613 L39.604196,20.1896726 C39.604196,20.0404954 39.666332,19.9762402 39.815699,19.9762402 L43.498361,19.9762402 C43.962763,19.9762402 44.918182,19.6267822 44.918182,18.5446274 L44.918182,17.0518033 C44.918182,15.5231315 43.595975,14.8110639 42.699712,14.8110639 L41.279891,14.8110639 C40.896832,14.8110639 40.533004,14.9113922 40.201713,15.1109214 L38.543778,16.099211 C37.804287,16.5022525 37.430102,17.1381907 37.430102,17.9951142 L37.430102,21.3330764 C37.430102,22.3974952 38.261292,23.5439804 39.604208,23.5439804 L42.232355,23.5439804 C42.695272,23.5439804 43.047274,23.4571795 43.340112,23.2734323 L44.529212,22.5747794 C44.714068,22.4879785 44.813168,22.3433105 44.813168,22.1567826 L44.813292,22.1573087 Z M14.226494,16.8219501 L10.31607,16.8219501 C10.168177,16.8219501 10.119345,16.7881316 10.119345,16.5934873 L10.119345,14.2004895 C10.119345,14.0047179 10.180007,13.9690205 10.301254,13.9690205 L15.782359,13.9690205 C16.110686,13.9690205 16.15948,13.7706186 16.15948,13.6511266 L16.15948,12.540414 C16.15948,12.3164603 16.021943,12.189453 15.782359,12.189453 L11.826085,12.189453 C11.426759,12.189453 11.042226,12.2942903 10.718325,12.4893104 L8.934679,13.480531 C8.198143,13.9194953 7.82544,14.592709 7.82544,15.4809711 L7.82544,16.4244324 C7.82544,17.7366657 8.806001,18.7263832 10.104552,18.7263832 L14.032721,18.7263832 C14.153968,18.7263832 14.229445,18.8113052 14.229445,18.9563491 L14.229445,21.5463961 C14.229445,21.7331494 14.105212,21.7598285 14.032721,21.7598285 L8.47471,21.7598285 C8.238036,21.7598285 8.112367,21.8823266 8.112367,22.1107895 L8.112367,23.2229675 C8.112367,23.5077945 8.298735,23.5438676 8.459932,23.5438676 L12.491634,23.5438676 C12.905749,23.5438676 13.284367,23.4484243 13.615658,23.2590406 L15.397833,22.266317 C16.143239,21.8303964 16.521857,21.1511704 16.521857,20.2494937 L16.521857,19.1686917 C16.521857,17.5683623 15.153801,16.8219501 14.226478,16.8219501 L14.226494,16.8219501 Z M25.564358,14.8409745 L24.055801,14.8409745 C23.771808,14.8409745 23.73783,15.0498978 23.73783,15.2069659 L23.73783,21.6380818 C23.73783,21.7169917 23.714397,21.8233321 23.510038,21.8233321 L20.747301,21.8233321 C20.556548,21.8233321 20.522495,21.7575739 20.522495,21.6380818 L20.522495,15.2069659 C20.522495,14.9845153 20.396788,14.8409745 20.204523,14.8409745 L18.678214,14.8409745 C18.459304,14.8409745 18.346938,14.9646 18.346938,15.2069659 L18.346938,21.8515517 C18.346938,22.8607337 19.16038,23.680269 20.157215,23.680269 C20.312516,23.680269 20.487017,23.680269 20.646754,23.6321715 L23.551473,22.8364971 C23.668336,22.7947876 23.737841,22.8394657 23.737841,22.9781591 L23.737841,23.2227797 C23.737841,23.4482364 23.832481,23.5436797 24.055813,23.5436797 L25.56437,23.5436797 C25.866089,23.5436797 25.911935,23.3524173 25.911935,23.2374343 L25.911935,15.2059889 C25.911935,14.9760231 25.781768,14.8399975 25.56437,14.8399975 L25.564358,14.8409745 Z M67.450569,4 C69.402824,4 71.000124,5.61224113 71.000124,7.58280818 L71.000124,45.4157264 C71.000124,47.3862559 69.402824,49 67.450569,49 L3.549551,49 C1.597296,49 0,47.3862559 0,45.4157264 L0,7.58280818 C0,5.61224113 1.597296,4 3.549551,4 L67.450569,4 Z" id="su_b" fill="#000000" fill-rule="nonzero"></path>
    </g>
</svg>