<?xml version="1.0" encoding="UTF-8"?>
<svg width="108px" height="52px" viewBox="0 0 108 52" version="1.1" xmlns="http://www.w3.org/2000/svg" xmlns:xlink="http://www.w3.org/1999/xlink">
    <title>logo_artlibrary</title>
    <defs>
        <polygon id="path-1" points="0 0 14.9598612 0 14.9598612 16.2769114 0 16.2769114"></polygon>
        <polygon id="path-3" points="0 0 14.8358114 0 14.8358114 16.3915353 0 16.3915353"></polygon>
    </defs>
    <g id="logo_artlibrary" stroke="none" stroke-width="1" fill="none" fill-rule="evenodd">
        <g id="Group-23" transform="translate(0.000000, 8.000000)">
            <g id="Group-3" transform="translate(0.000000, 0.114676)">
                <mask id="mask-2" fill="white">
                    <use xlink:href="#path-1"></use>
                </mask>
                <g id="Clip-2"></g>
                <path d="M4.93223089,9.72033898 L9.84377718,9.72033898 L7.3882652,1.5818833 L4.93223089,9.72033898 Z M0.376396922,16.2769114 C0.238499632,16.2769114 0.135076664,16.2252602 0.0661280188,16.1224795 C-0.00282062639,16.0191771 -0.0179684348,15.9064835 0.0206845936,15.7843989 L4.7943336,0.447122028 C4.84029936,0.302081277 4.92073945,0.190952932 5.03565386,0.114780451 C5.15056826,0.0386079698 5.27279541,0 5.40285763,0 L9.56850494,0 C9.69856716,0 9.8207943,0.0386079698 9.93570871,0.114780451 C10.0506231,0.190952932 10.1310632,0.302081277 10.1765066,0.447122028 L14.9391865,15.7843989 C14.9778396,15.9064835 14.9621694,16.0191771 14.8932208,16.1224795 C14.8242721,16.2252602 14.7250279,16.2769114 14.595488,16.2769114 L12.2538457,16.2769114 C12.1086357,16.2769114 11.9801405,16.2367382 11.8699271,16.1563919 C11.7581468,16.0760456 11.6803184,15.9675259 11.6343526,15.8297893 L10.5097584,12.11612 L4.25475822,12.11612 L3.10770348,15.8297893 C3.06905045,15.9675259 2.99644544,16.0760456 2.8893661,16.1563919 C2.78228677,16.2367382 2.66005963,16.2769114 2.52216234,16.2769114 L0.376396922,16.2769114 Z" id="Fill-1" fill="#000000" mask="url(#mask-2)"></path>
            </g>
            <g id="Group-6" transform="translate(16.717957, 0.000000)">
                <mask id="mask-4" fill="white">
                    <use xlink:href="#path-3"></use>
                </mask>
                <g id="Clip-5"></g>
                <path d="M3.29334249,8.03551849 L3.29334249,3.03735159 C3.29334249,2.90744099 3.33930825,2.79318227 3.43123978,2.6940537 C3.5231713,2.5944034 3.64174208,2.54483911 3.7869521,2.54483911 L9.63975187,2.54483911 C9.84607547,2.54483911 10.0262822,2.59075129 10.1788049,2.68257565 C10.33185,2.77387828 10.4545995,2.89804986 10.546531,3.05456866 C10.6379402,3.21160918 10.6844283,3.39317099 10.6844283,3.59925407 L10.6844283,6.96910375 C10.6844283,7.1835345 10.6379402,7.36874841 10.546531,7.52526721 C10.4545995,7.68178601 10.33185,7.80595758 10.1788049,7.89778195 C10.0262822,7.98960631 9.84973184,8.03551849 9.65124331,8.03551849 L3.29334249,8.03551849 Z M14.781127,15.9329352 L11.1111786,9.44314419 L12.5084334,8.43672833 C12.9754038,8.12316901 13.3446969,7.726133 13.6163128,7.24457684 C13.8879286,6.76302067 14.0237366,6.23190022 14.0237366,5.65121549 L14.0237366,3.65664429 C14.0237366,3.03004738 13.8628564,2.43944979 13.5416184,1.88589498 C13.2203804,1.33181844 12.7821386,0.878957387 12.2274154,0.527311825 C11.6726922,0.175666262 11.0396183,-0.000156518796 10.3281936,-0.000156518796 C10.1829836,-0.000156518796 10.0205364,0.00558250374 9.84032975,0.0170605488 C9.6606454,0.0290603232 9.46372389,0.0457556615 9.24956522,0.0687117516 C9.03540655,0.0916678417 8.79199694,0.118276037 8.5209034,0.149058067 C8.24876519,0.179840097 7.94319733,0.222100172 7.60263281,0.275316563 C7.26206829,0.328532954 6.87762736,0.393749119 6.44931002,0.4699216 C6.02099268,0.54661581 5.54462022,0.632701148 5.02071498,0.727655884 C4.49680975,0.823654079 3.90552288,0.928521673 3.24789906,1.04278039 L3.24789906,0.56174596 C3.24789906,0.439661299 3.20558966,0.334271976 3.12149321,0.246099721 C3.03739676,0.158970924 2.92979508,0.114623932 2.79973287,0.114623932 L0.447643856,0.114623932 C0.325416712,0.114623932 0.219382053,0.158970924 0.13215157,0.246099721 C0.0438764106,0.334271976 0,0.439661299 0,0.56174596 L0,15.9444133 C0,16.0591937 0.0438764106,16.1624961 0.13215157,16.2537988 C0.219382053,16.3456231 0.325416712,16.3915353 0.447643856,16.3915353 L2.84622097,16.3915353 C2.96061304,16.3915353 3.06403601,16.3456231 3.15596753,16.2537988 C3.24789906,16.1624961 3.29334249,16.0591937 3.29334249,15.9444133 L3.29334249,10.3853873 L7.40205493,10.3853873 C7.75358856,10.3853873 8.01423533,10.526776 8.1819059,10.8090316 L11.0861064,15.9903254 C11.2313164,16.2579726 11.4527878,16.3915353 11.7515653,16.3915353 L14.493841,16.3915353 C14.6317383,16.3915353 14.7315049,16.3440579 14.7926184,16.2480597 C14.853732,16.153105 14.8500756,16.0477157 14.781127,15.9329352 L14.781127,15.9329352 Z" id="Fill-4" fill="#000000" mask="url(#mask-4)"></path>
            </g>
            <path d="M37.7877751,16.3916918 C37.665548,16.3916918 37.5579463,16.3457796 37.4665371,16.2539553 C37.3746056,16.1621309 37.3286398,16.0593502 37.3286398,15.9445698 L37.3286398,2.56742999 L32.3596363,2.56742999 C32.2374092,2.56742999 32.1282405,2.52203954 32.0326526,2.43021518 C31.9365424,2.33839082 31.8890096,2.23143631 31.8890096,2.10935165 L31.8890096,0.561902479 C31.8890096,0.439296088 31.9365424,0.334428495 32.0326526,0.24625624 C32.1282405,0.158605714 32.2374092,0.114780451 32.3596363,0.114780451 L45.5685253,0.114780451 C45.6985875,0.114780451 45.8072338,0.158605714 45.895509,0.24625624 C45.9837841,0.334428495 46.0276606,0.439296088 46.0276606,0.561902479 L46.0276606,2.10935165 C46.0276606,2.23143631 45.9837841,2.33839082 45.895509,2.43021518 C45.8072338,2.52203954 45.6985875,2.56742999 45.5685253,2.56742999 L40.6110132,2.56742999 L40.6110132,15.9445698 C40.6110132,16.0593502 40.5666144,16.1621309 40.4788616,16.2539553 C40.3911088,16.3457796 40.2855965,16.3916918 40.1633693,16.3916918 L37.7877751,16.3916918 Z" id="Fill-7" fill="#000000"></path>
            <path d="M3.93869136,37 C3.45709552,37 3.00840699,36.9118277 2.59158108,36.7365267 C2.17527752,36.5612256 1.80650674,36.3128825 1.48579107,35.9925407 C1.16455306,35.6716771 0.916442409,35.3017711 0.740414429,34.8812572 C0.564908786,34.4617869 0.477155965,34.0115344 0.477155965,33.5310217 L0.477155965,21.1764714 C0.477155965,21.0549085 0.521032376,20.9500409 0.608785197,20.8618686 C0.696538018,20.7742181 0.805184368,20.7303928 0.935246585,20.7303928 L3.31972057,20.7303928 C3.44194771,20.7303928 3.54693769,20.7742181 3.63521285,20.8618686 C3.72244333,20.9500409 3.76684208,21.0549085 3.76684208,21.1764714 L3.76684208,33.4845878 C3.76684208,33.6911926 3.81228551,33.8706675 3.90421704,34.0230125 C3.99614856,34.1758792 4.11994272,34.299529 4.27664419,34.3950055 C4.43334565,34.490482 4.61094065,34.5384811 4.80995151,34.5384811 L11.8594281,34.5384811 C12.0046382,34.5384811 12.0960474,34.6010886 12.134178,34.7273471 C12.1723087,34.8530838 12.1383568,34.9616035 12.0312774,35.0534279 L10.6099951,36.2325362 C10.3195751,36.4694013 10.0098285,36.6567021 9.68127776,36.7933952 C9.35272702,36.9311317 8.99388066,37 8.60369401,37 L3.93869136,37 Z" id="Fill-9" fill="#000000"></path>
            <path d="M14.0825518,36.9884698 C13.960847,36.9884698 13.8553347,36.9425576 13.7675819,36.8507332 C13.6798291,36.7594306 13.6354303,36.6566499 13.6354303,36.5418695 L13.6354303,21.176941 C13.6354303,21.0548563 13.6798291,20.9499887 13.7675819,20.8618165 C13.8553347,20.7741659 13.960847,20.7303407 14.0825518,20.7303407 L16.4440429,20.7303407 C16.5662701,20.7303407 16.6691707,20.7741659 16.7537895,20.8618165 C16.8373636,20.9499887 16.879673,21.0548563 16.879673,21.176941 L16.879673,36.5418695 C16.879673,36.6566499 16.8373636,36.7594306 16.7537895,36.8507332 C16.6691707,36.9425576 16.5662701,36.9884698 16.4440429,36.9884698 L14.0825518,36.9884698 Z" id="Fill-11" fill="#000000"></path>
            <path d="M23.2435807,34.6183056 L29.5591722,34.6183056 C29.7576607,34.6183056 29.934211,34.5723935 30.0872561,34.4810908 C30.2397789,34.3892665 30.363573,34.2677035 30.4596833,34.1143151 C30.5552712,33.9619702 30.6022816,33.7903212 30.6022816,33.5993683 L30.6022816,30.8169858 C30.6022816,30.6187287 30.5568382,30.4434276 30.465429,30.2905609 C30.3729751,30.1376942 30.249181,30.0176965 30.0924795,29.9295242 C29.935778,29.8418737 29.7576607,29.7980485 29.5591722,29.7980485 L23.2435807,29.7980485 L23.2435807,34.6183056 Z M23.2435807,27.5426126 L29.5022373,27.5426126 C29.7080386,27.5426126 29.8877229,27.4987873 30.0412904,27.4106151 C30.1932908,27.3234863 30.3181296,27.1993147 30.4131952,27.0391438 C30.5093054,26.8784512 30.5568382,26.7068022 30.5568382,26.5236752 L30.5568382,24.1419809 C30.5568382,23.9358978 30.5093054,23.7564229 30.4131952,23.6040779 C30.3181296,23.451733 30.1932908,23.3312135 30.0412904,23.243563 C29.8877229,23.1559125 29.7080386,23.1120872 29.5022373,23.1120872 L23.7021937,23.1120872 C23.5642964,23.1120872 23.454083,23.1538255 23.3694643,23.2373022 C23.2853678,23.3218224 23.2435807,23.4402549 23.2435807,23.5925999 L23.2435807,27.5426126 Z M20.4119852,36.988522 C20.2902804,36.988522 20.1847681,36.9426098 20.0970153,36.8507854 C20.0092625,36.7594828 19.9648637,36.6567021 19.9648637,36.5419217 L19.9648637,21.1764714 C19.9648637,21.0549085 20.0092625,20.9500409 20.0970153,20.8618686 C20.1847681,20.7742181 20.2902804,20.7303928 20.4119852,20.7303928 L22.7625072,20.7303928 C22.8920471,20.7303928 22.9991265,20.7742181 23.0837452,20.8618686 C23.1673194,20.9500409 23.2091064,21.0549085 23.2091064,21.1764714 L23.2091064,21.6460278 C23.8510601,21.5317691 24.4319002,21.4289884 24.9511044,21.337164 C25.4713533,21.2453397 25.9487704,21.161863 26.3844005,21.0851688 C26.8200305,21.0089963 27.2076055,20.9458671 27.54817,20.8963028 C27.8876899,20.8467385 28.1958694,20.8029132 28.470097,20.764827 C28.7458916,20.726219 28.9919129,20.6975239 29.2102502,20.6787416 C29.4275429,20.6594377 29.6228974,20.6463944 29.7947467,20.6385685 C29.966596,20.6312643 30.1326995,20.6270904 30.2935797,20.6270904 C30.9961246,20.6270904 31.6187518,20.7778702 32.1619835,21.0799515 C32.7046929,21.3809893 33.1324879,21.7910686 33.4453685,22.3101892 C33.7587715,22.8293099 33.9149506,23.4282552 33.9149506,24.1080685 L33.9149506,25.1384839 C33.9149506,25.6576046 33.8047372,26.1287261 33.5832658,26.5523703 C33.3617944,26.9760146 33.0520479,27.3365295 32.6550708,27.634437 L32.0925126,28.0690375 C32.6968579,28.389901 33.1706186,28.8213712 33.5137949,29.3629262 C33.8580157,29.9055247 34.029865,30.515948 34.029865,31.1947178 L34.029865,32.4661722 C34.029865,32.9852929 33.9102496,33.4772836 33.6689293,33.9426662 C33.4281314,34.4085705 33.0980136,34.7784766 32.677009,35.0534279 L30.820619,36.4276629 C30.5834774,36.595138 30.3082052,36.7307877 29.9948023,36.8335683 C29.6819217,36.9368708 29.36434,36.988522 29.0436244,36.988522 L20.4119852,36.988522 Z" id="Fill-13" fill="#000000"></path>
            <path d="M39.9122814,28.6417919 L39.9122814,23.6498858 C39.9122814,23.5204969 39.9582471,23.4057165 40.0501787,23.3060662 C40.1415878,23.2069376 40.2601586,23.1573733 40.4053686,23.1573733 L46.251378,23.1573733 C46.4577016,23.1573733 46.6368636,23.2032855 46.7904311,23.2945881 C46.9429538,23.3864125 47.065181,23.5105841 47.1565902,23.6671029 C47.249044,23.8236216 47.2944874,24.0046617 47.2944874,24.2107448 L47.2944874,27.5769424 C47.2944874,27.7908514 47.249044,27.9760653 47.1565902,28.1325841 C47.065181,28.2891029 46.9429538,28.4127528 46.7904311,28.5040554 C46.6368636,28.5958797 46.461358,28.6417919 46.2628695,28.6417919 L39.9122814,28.6417919 Z M51.3870074,36.5303393 L47.7212378,30.0478524 L49.1169255,29.04248 C49.5833735,28.7294425 49.9521443,28.3324064 50.2232378,27.8518937 C50.4943314,27.3708593 50.6301393,26.8402606 50.6301393,26.2600976 L50.6301393,24.268135 C50.6301393,23.6425816 50.4697815,23.0530274 50.1485435,22.4989509 C49.8278278,21.9459178 49.3901084,21.4935785 48.8364299,21.1424547 C48.2817067,20.7913308 47.6496774,20.6155081 46.9392975,20.6155081 C46.7940874,20.6155081 46.6316402,20.6217688 46.4519559,20.6332468 C46.2722715,20.6442032 46.07535,20.661942 45.8617137,20.6843763 C45.647555,20.7073324 45.4051901,20.7339406 45.1335742,20.7647226 C44.8619583,20.7949829 44.5569128,20.837243 44.2168706,20.8904594 C43.8763061,20.9441975 43.4923875,21.0094137 43.0645925,21.0850644 C42.6367975,21.1617587 42.1609474,21.247844 41.6375645,21.3427987 C41.1136593,21.4382752 40.5234171,21.5431428 39.8663156,21.6579232 L39.8663156,21.1768888 C39.8663156,21.0548041 39.8245285,20.9499365 39.7409544,20.8617643 C39.6563356,20.7741138 39.5492563,20.7302885 39.4197164,20.7302885 L37.0697168,20.7302885 C36.9474896,20.7302885 36.8419773,20.7741138 36.7542245,20.8617643 C36.6664717,20.9499365 36.6225952,21.0548041 36.6225952,21.1768888 L36.6225952,36.5418173 C36.6225952,36.6565978 36.6664717,36.7593784 36.7542245,36.8506811 C36.8419773,36.9425054 36.9474896,36.9884176 37.0697168,36.9884176 L39.4651598,36.9884176 C39.5800743,36.9884176 39.6834972,36.9425054 39.7749064,36.8506811 C39.8663156,36.7593784 39.9122814,36.6565978 39.9122814,36.5418173 L39.9122814,30.9890521 L44.0157704,30.9890521 C44.3678264,30.9890521 44.6274285,31.1304408 44.7956214,31.4121746 L47.6956432,36.5877295 C47.8408532,36.8548549 48.0623246,36.9884176 48.3605798,36.9884176 L51.1002437,36.9884176 C51.2376187,36.9884176 51.3368629,36.9404185 51.3979765,36.8454638 C51.4590901,36.7499873 51.4554337,36.6451197 51.3870074,36.5303393 L51.3870074,36.5303393 Z" id="Fill-15" fill="#000000"></path>
            <path d="M57.0973133,30.4394103 L62.0031139,30.4394103 L59.5502136,22.3103458 L57.0973133,30.4394103 Z M52.5467027,36.9886785 C52.4093278,36.9886785 52.3059048,36.9365055 52.2374785,36.8337249 C52.1685299,36.7309442 52.1528597,36.6182507 52.1915127,36.496166 L56.9599384,21.1766279 C57.0059041,21.0315872 57.0858219,20.9209806 57.2002139,20.8448081 C57.3151283,20.7686356 57.4373555,20.7300276 57.5674177,20.7300276 L61.7278416,20.7300276 C61.8579039,20.7300276 61.9806533,20.7686356 62.0950454,20.8448081 C62.2099598,20.9209806 62.2898776,21.0315872 62.3358433,21.1766279 L67.0927775,36.496166 C67.1309082,36.6182507 67.1157604,36.7309442 67.0468117,36.8337249 C66.9783854,36.9365055 66.8786188,36.9886785 66.749079,36.9886785 L64.4105707,36.9886785 C64.2653607,36.9886785 64.1373879,36.9485053 64.0266522,36.868159 C63.9159164,36.7878127 63.8375657,36.679293 63.7916,36.5420782 L62.6685728,32.832061 L56.4208853,32.832061 L55.2748753,36.5420782 C55.2362222,36.679293 55.1636172,36.7878127 55.0565379,36.868159 C54.9499809,36.9485053 54.8277537,36.9886785 54.6903788,36.9886785 L52.5467027,36.9886785 Z" id="Fill-17" fill="#000000"></path>
            <path d="M71.2420234,28.6417919 L71.2420234,23.6498858 C71.2420234,23.5204969 71.2879892,23.4057165 71.3799207,23.3060662 C71.4713299,23.2069376 71.5899007,23.1573733 71.7351107,23.1573733 L77.5811201,23.1573733 C77.7874437,23.1573733 77.9666057,23.2032855 78.1201731,23.2945881 C78.2726959,23.3864125 78.394923,23.5105841 78.4868545,23.6671029 C78.5787861,23.8236216 78.6242295,24.0046617 78.6242295,24.2107448 L78.6242295,27.5769424 C78.6242295,27.7908514 78.5787861,27.9760653 78.4868545,28.1325841 C78.394923,28.2891029 78.2726959,28.4127528 78.1201731,28.5040554 C77.9666057,28.5958797 77.7911,28.6417919 77.5926115,28.6417919 L71.2420234,28.6417919 Z M82.7167495,36.5303393 L79.0509798,30.0478524 L80.4466675,29.04248 C80.9131156,28.7294425 81.2818864,28.3324064 81.5529799,27.8518937 C81.8240734,27.3708593 81.9598814,26.8402606 81.9598814,26.2600976 L81.9598814,24.268135 C81.9598814,23.6425816 81.7995235,23.0530274 81.4782855,22.4989509 C81.1575699,21.9459178 80.7198504,21.4935785 80.1661719,21.1424547 C79.6114487,20.7913308 78.9794195,20.6155081 78.2690395,20.6155081 C78.1238295,20.6155081 77.9613823,20.6217688 77.7816979,20.6332468 C77.6020136,20.6442032 77.4050921,20.661942 77.1914557,20.6843763 C76.9772971,20.7073324 76.7349321,20.7339406 76.4638386,20.7647226 C76.1917004,20.7949829 75.8866549,20.837243 75.5466127,20.8904594 C75.2065705,20.9441975 74.8221296,21.0094137 74.3943346,21.0850644 C73.9665396,21.1617587 73.4906894,21.247844 72.9673066,21.3427987 C72.4439237,21.4382752 71.8531591,21.5431428 71.1960576,21.6579232 L71.1960576,21.1768888 C71.1960576,21.0548041 71.1542706,20.9499365 71.0706965,20.8617643 C70.9860777,20.7741138 70.8795207,20.7302885 70.7494585,20.7302885 L68.3994588,20.7302885 C68.2772317,20.7302885 68.1717193,20.7741138 68.0839665,20.8617643 C67.9962137,20.9499365 67.9523373,21.0548041 67.9523373,21.1768888 L67.9523373,36.5418173 C67.9523373,36.6565978 67.9962137,36.7593784 68.0839665,36.8506811 C68.1717193,36.9425054 68.2772317,36.9884176 68.3994588,36.9884176 L70.7949019,36.9884176 C70.9098163,36.9884176 71.0132393,36.9425054 71.1046485,36.8506811 C71.1960576,36.7593784 71.2420234,36.6565978 71.2420234,36.5418173 L71.2420234,30.9890521 L75.3460348,30.9890521 C75.6975684,30.9890521 75.9571705,31.1304408 76.1253634,31.4121746 L79.0253852,36.5877295 C79.1705953,36.8548549 79.3920667,36.9884176 79.6903218,36.9884176 L82.4299858,36.9884176 C82.5673607,36.9884176 82.666605,36.9404185 82.7277186,36.8454638 C82.7888321,36.7499873 82.7851758,36.6451197 82.7167495,36.5303393 L82.7167495,36.5303393 Z" id="Fill-19" fill="#000000"></path>
            <path d="M88.4475832,36.9884698 C88.3253561,36.9884698 88.2198438,36.9425576 88.132091,36.8507332 C88.0443381,36.7594306 88.0004617,36.6566499 88.0004617,36.5418695 L88.0004617,31.3897924 C88.0004617,31.275012 87.9853139,31.1644054 87.9550183,31.0579726 C87.9242003,30.9510181 87.8782346,30.8477157 87.817121,30.7485871 L82.3263016,21.1998971 C82.257353,21.0929426 82.2536966,20.988075 82.3148102,20.8847726 C82.3759238,20.7819919 82.4673329,20.7303407 82.5900824,20.7303407 L85.2952721,20.7303407 C85.4331694,20.7303407 85.5585305,20.7626879 85.673445,20.8273823 C85.787837,20.8925985 85.8797685,20.985988 85.9481949,21.1085944 L89.7085077,27.7601215 L93.4453153,21.1085944 C93.5137417,20.985988 93.5999275,20.8925985 93.7028281,20.8273823 C93.8062511,20.7626879 93.9305676,20.7303407 94.0757776,20.7303407 L96.6775443,20.7303407 C96.8076065,20.7303407 96.901105,20.7819919 96.9585622,20.8847726 C97.0154971,20.988075 97.0139301,21.0929426 96.9528165,21.1998971 L91.4505057,30.7485871 C91.3893921,30.8404115 91.3455157,30.9416269 91.3188764,31.0517118 C91.2917149,31.1623185 91.2786564,31.275012 91.2786564,31.3897924 L91.2786564,36.5418695 C91.2786564,36.6566499 91.23478,36.7594306 91.1470272,36.8507332 C91.0592744,36.9425576 90.953762,36.9884698 90.8315349,36.9884698 L88.4475832,36.9884698 Z" id="Fill-21" fill="#000000"></path>
        </g>
    </g>
</svg>