<svg width="126" height="49" viewBox="0 0 126 49" fill="none" xmlns="http://www.w3.org/2000/svg">
<mask id="path-1-outside-1_29_53" maskUnits="userSpaceOnUse" x="-1" y="0" width="128" height="50" fill="black">
<rect fill="white" x="-1" width="128" height="50"/>
<path d="M11.2873 10.212V3.452C11.2873 3.12267 11.1227 2.958 10.7933 2.958L2.70732 2.984C2.37799 2.984 2.21332 3.13133 2.21332 3.426V10.186C2.21332 10.4807 2.35199 10.628 2.62932 10.628H10.8713C11.1487 10.628 11.2873 10.4893 11.2873 10.212ZM2.21332 12.682V19.39C2.21332 19.6847 2.07465 19.832 1.79732 19.832H0.65332C0.375987 19.832 0.23732 19.6847 0.23732 19.39V1.424C0.23732 1.12933 0.384654 0.982 0.67932 0.982H1.84932C2.12665 0.982 2.26532 1.12933 2.26532 1.424V1.502C2.26532 1.79667 2.45599 1.918 2.83732 1.866L9.77932 0.929999C10.0913 0.895332 10.3513 0.877999 10.5593 0.877999C12.362 0.877999 13.2633 1.77933 13.2633 3.582V8.886C13.2633 9.80467 12.8907 10.4893 12.1453 10.94L10.4033 11.954C10.022 12.1447 9.59732 12.24 9.12932 12.24H2.70732C2.37799 12.24 2.21332 12.3873 2.21332 12.682ZM28.8329 9.718V3.452C28.8329 3.12267 28.6682 2.958 28.3389 2.958H20.2789C19.9495 2.958 19.7849 3.10533 19.7849 3.4V9.692C19.7849 9.98667 19.9235 10.134 20.2009 10.134H28.4169C28.6942 10.134 28.8329 9.99533 28.8329 9.718ZM29.6909 10.42L27.7669 11.538C27.5069 11.7113 27.4635 11.9193 27.6369 12.162L31.9009 19.442C32.0395 19.702 31.9702 19.832 31.6929 19.832H30.2889C29.9769 19.832 29.7602 19.702 29.6389 19.442L25.4529 12.11C25.3142 11.85 25.0975 11.72 24.8029 11.72H20.2789C19.9495 11.72 19.7849 11.8673 19.7849 12.162V19.39C19.7849 19.6847 19.6462 19.832 19.3689 19.832H18.2249C17.9475 19.832 17.8089 19.6847 17.8089 19.39V1.424C17.8089 1.12933 17.9562 0.982 18.2509 0.982H19.4209C19.6982 0.982 19.8369 1.12933 19.8369 1.424V1.606C19.8369 1.90067 20.0275 2.022 20.4089 1.97L27.3249 1.034C27.6369 0.999333 27.8969 0.982 28.1049 0.982C29.9075 0.982 30.8089 1.88333 30.8089 3.686V8.366C30.8089 9.28467 30.4362 9.96933 29.6909 10.42ZM36.2727 16.556V4.388C36.2727 3.46933 36.6454 2.78467 37.3907 2.334L39.1587 1.32C39.54 1.12933 39.9647 1.034 40.4327 1.034H47.9467C48.224 1.034 48.3627 1.18133 48.3627 1.476V2.256C48.3627 2.55067 48.224 2.698 47.9467 2.698H38.6647C38.3874 2.698 38.2487 2.83667 38.2487 3.114V8.912C38.2487 9.20667 38.4134 9.354 38.7427 9.354H47.3487C47.626 9.354 47.7647 9.50133 47.7647 9.796V10.55C47.7647 10.8447 47.626 10.992 47.3487 10.992H38.7427C38.4134 10.992 38.2487 11.1393 38.2487 11.434V17.752C38.2487 18.0293 38.3874 18.168 38.6647 18.168H48.1547C48.3974 18.168 48.5187 18.272 48.5187 18.48C48.5187 18.688 48.4147 18.844 48.2067 18.948L47.0367 19.598C46.742 19.754 46.378 19.832 45.9447 19.832H39.4967C37.3474 19.832 36.2727 18.74 36.2727 16.556ZM64.4632 19.832H62.2272C61.9672 19.832 61.7765 19.6847 61.6552 19.39L56.1432 2.776C56.0565 2.53333 55.9179 2.412 55.7272 2.412C55.4499 2.412 55.3112 2.55933 55.3112 2.854V19.39C55.3112 19.6847 55.1725 19.832 54.8952 19.832H53.8292C53.5519 19.832 53.4132 19.6847 53.4132 19.39V1.476C53.4132 1.18133 53.5519 1.034 53.8292 1.034H56.9492C57.1919 1.034 57.3652 1.17267 57.4692 1.45L62.9292 17.31C63.0159 17.5527 63.1545 17.674 63.3452 17.674C63.5359 17.674 63.6745 17.5527 63.7612 17.31L69.2212 1.45C69.3252 1.17267 69.4985 1.034 69.7412 1.034H72.8612C73.1385 1.034 73.2772 1.18133 73.2772 1.476V19.39C73.2772 19.6847 73.1385 19.832 72.8612 19.832H71.7952C71.5179 19.832 71.3792 19.6847 71.3792 19.39V2.854C71.3792 2.55933 71.2405 2.412 70.9632 2.412C70.7725 2.412 70.6339 2.53333 70.5472 2.776L65.0352 19.39C64.9139 19.6847 64.7232 19.832 64.4632 19.832ZM80.8735 1.424V19.39C80.8735 19.6847 80.7348 19.832 80.4575 19.832H79.2615C78.9841 19.832 78.8455 19.6847 78.8455 19.39V1.424C78.8455 1.12933 78.9841 0.982 79.2615 0.982H80.4575C80.7348 0.982 80.8735 1.12933 80.8735 1.424ZM98.5074 17.414V1.424C98.5074 1.12933 98.646 0.982 98.9234 0.982H100.067C100.362 0.982 100.509 1.12933 100.509 1.424V19.39C100.509 19.6847 100.362 19.832 100.067 19.832H98.7674C98.49 19.832 98.3514 19.6847 98.3514 19.39V19.286C98.3514 18.9913 98.1607 18.87 97.7794 18.922L89.9274 19.858C89.6154 19.8927 89.3554 19.91 89.1474 19.91C87.3447 19.91 86.4434 19.0087 86.4434 17.206V1.424C86.4434 1.12933 86.582 0.982 86.8594 0.982H88.0294C88.3067 0.982 88.4454 1.12933 88.4454 1.424V17.44C88.4454 17.7347 88.61 17.882 88.9394 17.882L98.0134 17.856C98.3427 17.856 98.5074 17.7087 98.5074 17.414ZM116.996 19.832H114.76C114.5 19.832 114.31 19.6847 114.188 19.39L108.676 2.776C108.59 2.53333 108.451 2.412 108.26 2.412C107.983 2.412 107.844 2.55933 107.844 2.854V19.39C107.844 19.6847 107.706 19.832 107.428 19.832H106.362C106.085 19.832 105.946 19.6847 105.946 19.39V1.476C105.946 1.18133 106.085 1.034 106.362 1.034H109.482C109.725 1.034 109.898 1.17267 110.002 1.45L115.462 17.31C115.549 17.5527 115.688 17.674 115.878 17.674C116.069 17.674 116.208 17.5527 116.294 17.31L121.754 1.45C121.858 1.17267 122.032 1.034 122.274 1.034H125.394C125.672 1.034 125.81 1.18133 125.81 1.476V19.39C125.81 19.6847 125.672 19.832 125.394 19.832H124.328C124.051 19.832 123.912 19.6847 123.912 19.39V2.854C123.912 2.55933 123.774 2.412 123.496 2.412C123.306 2.412 123.167 2.53333 123.08 2.776L117.568 19.39C117.447 19.6847 117.256 19.832 116.996 19.832ZM12.9536 38.432H20.1556C22.3049 38.432 23.3796 39.524 23.3796 41.708V45.478C23.3796 46.3967 23.0069 47.0813 22.2616 47.532L20.4936 48.546C20.1122 48.7367 19.6876 48.832 19.2196 48.832H11.4196C11.1422 48.832 11.0036 48.6847 11.0036 48.39V47.584C11.0036 47.2893 11.1422 47.142 11.4196 47.142H20.9616C21.2389 47.142 21.3776 47.0033 21.3776 46.726V40.512C21.3776 40.2347 21.2389 40.096 20.9616 40.096H13.7596C11.6102 40.096 10.5356 39.004 10.5356 36.82V33.388C10.5356 32.4693 10.9082 31.7847 11.6536 31.334L13.4216 30.32C13.8029 30.1293 14.2276 30.034 14.6956 30.034H22.2096C22.4869 30.034 22.6256 30.1813 22.6256 30.476V31.282C22.6256 31.5767 22.4869 31.724 22.2096 31.724H12.9536C12.6762 31.724 12.5376 31.8627 12.5376 32.14V38.016C12.5376 38.2933 12.6762 38.432 12.9536 38.432ZM27.5891 45.556V33.388C27.5891 32.4693 27.9618 31.7847 28.7071 31.334L30.4751 30.32C30.8565 30.1293 31.2811 30.034 31.7491 30.034H39.2631C39.5405 30.034 39.6791 30.1813 39.6791 30.476V31.256C39.6791 31.5507 39.5405 31.698 39.2631 31.698H29.9811C29.7038 31.698 29.5651 31.8367 29.5651 32.114V37.912C29.5651 38.2067 29.7298 38.354 30.0591 38.354H38.6651C38.9425 38.354 39.0811 38.5013 39.0811 38.796V39.55C39.0811 39.8447 38.9425 39.992 38.6651 39.992H30.0591C29.7298 39.992 29.5651 40.1393 29.5651 40.434V46.752C29.5651 47.0293 29.7038 47.168 29.9811 47.168H39.4711C39.7138 47.168 39.8351 47.272 39.8351 47.48C39.8351 47.688 39.7311 47.844 39.5231 47.948L38.3531 48.598C38.0585 48.754 37.6945 48.832 37.2611 48.832H30.8131C28.6638 48.832 27.5891 47.74 27.5891 45.556ZM55.4676 38.718V32.452C55.4676 32.1227 55.303 31.958 54.9736 31.958H46.9136C46.5843 31.958 46.4196 32.1053 46.4196 32.4V38.692C46.4196 38.9867 46.5583 39.134 46.8356 39.134H55.0516C55.329 39.134 55.4676 38.9953 55.4676 38.718ZM56.3256 39.42L54.4016 40.538C54.1416 40.7113 54.0983 40.9193 54.2716 41.162L58.5356 48.442C58.6743 48.702 58.605 48.832 58.3276 48.832H56.9236C56.6116 48.832 56.395 48.702 56.2736 48.442L52.0876 41.11C51.949 40.85 51.7323 40.72 51.4376 40.72H46.9136C46.5843 40.72 46.4196 40.8673 46.4196 41.162V48.39C46.4196 48.6847 46.281 48.832 46.0036 48.832H44.8596C44.5823 48.832 44.4436 48.6847 44.4436 48.39V30.424C44.4436 30.1293 44.591 29.982 44.8856 29.982H46.0556C46.333 29.982 46.4716 30.1293 46.4716 30.424V30.606C46.4716 30.9007 46.6623 31.022 47.0436 30.97L53.9596 30.034C54.2716 29.9993 54.5316 29.982 54.7396 29.982C56.5423 29.982 57.4436 30.8833 57.4436 32.686V37.366C57.4436 38.2847 57.071 38.9693 56.3256 39.42ZM63.0115 30.45L68.2375 47.298C68.2895 47.454 68.4021 47.532 68.5755 47.532C68.7488 47.532 68.8701 47.454 68.9395 47.298L74.1655 30.45C74.2868 30.138 74.5121 29.982 74.8415 29.982H76.1155C76.4448 29.982 76.5575 30.138 76.4535 30.45L70.6035 48.39C70.4995 48.6847 70.2741 48.832 69.9275 48.832H67.1715C66.8595 48.832 66.6601 48.6847 66.5735 48.39L60.7235 30.45C60.6195 30.138 60.7321 29.982 61.0615 29.982H62.3355C62.6648 29.982 62.8901 30.138 63.0115 30.45ZM81.559 30.424V48.39C81.559 48.6847 81.4204 48.832 81.143 48.832H79.947C79.6697 48.832 79.531 48.6847 79.531 48.39V30.424C79.531 30.1293 79.6697 29.982 79.947 29.982H81.143C81.4204 29.982 81.559 30.1293 81.559 30.424ZM88.9489 32.114V46.752C88.9489 47.0293 89.0876 47.168 89.3649 47.168H99.1409C99.3836 47.168 99.5049 47.272 99.5049 47.48C99.5049 47.688 99.4009 47.844 99.1929 47.948L98.0229 48.598C97.7282 48.754 97.3642 48.832 96.9309 48.832H90.1709C88.0216 48.832 86.9469 47.74 86.9469 45.556V33.388C86.9469 32.4693 87.3196 31.7847 88.0649 31.334L89.8329 30.32C90.2142 30.1293 90.6389 30.034 91.1069 30.034H98.9329C99.2102 30.034 99.3489 30.1813 99.3489 30.476V31.256C99.3489 31.5507 99.2102 31.698 98.9329 31.698H89.3649C89.0876 31.698 88.9489 31.8367 88.9489 32.114ZM103.888 45.556V33.388C103.888 32.4693 104.261 31.7847 105.006 31.334L106.774 30.32C107.155 30.1293 107.58 30.034 108.048 30.034H115.562C115.839 30.034 115.978 30.1813 115.978 30.476V31.256C115.978 31.5507 115.839 31.698 115.562 31.698H106.28C106.003 31.698 105.864 31.8367 105.864 32.114V37.912C105.864 38.2067 106.029 38.354 106.358 38.354H114.964C115.241 38.354 115.38 38.5013 115.38 38.796V39.55C115.38 39.8447 115.241 39.992 114.964 39.992H106.358C106.029 39.992 105.864 40.1393 105.864 40.434V46.752C105.864 47.0293 106.003 47.168 106.28 47.168H115.77C116.013 47.168 116.134 47.272 116.134 47.48C116.134 47.688 116.03 47.844 115.822 47.948L114.652 48.598C114.357 48.754 113.993 48.832 113.56 48.832H107.112C104.963 48.832 103.888 47.74 103.888 45.556Z"/>
</mask>
<path d="M11.2873 10.212V3.452C11.2873 3.12267 11.1227 2.958 10.7933 2.958L2.70732 2.984C2.37799 2.984 2.21332 3.13133 2.21332 3.426V10.186C2.21332 10.4807 2.35199 10.628 2.62932 10.628H10.8713C11.1487 10.628 11.2873 10.4893 11.2873 10.212ZM2.21332 12.682V19.39C2.21332 19.6847 2.07465 19.832 1.79732 19.832H0.65332C0.375987 19.832 0.23732 19.6847 0.23732 19.39V1.424C0.23732 1.12933 0.384654 0.982 0.67932 0.982H1.84932C2.12665 0.982 2.26532 1.12933 2.26532 1.424V1.502C2.26532 1.79667 2.45599 1.918 2.83732 1.866L9.77932 0.929999C10.0913 0.895332 10.3513 0.877999 10.5593 0.877999C12.362 0.877999 13.2633 1.77933 13.2633 3.582V8.886C13.2633 9.80467 12.8907 10.4893 12.1453 10.94L10.4033 11.954C10.022 12.1447 9.59732 12.24 9.12932 12.24H2.70732C2.37799 12.24 2.21332 12.3873 2.21332 12.682ZM28.8329 9.718V3.452C28.8329 3.12267 28.6682 2.958 28.3389 2.958H20.2789C19.9495 2.958 19.7849 3.10533 19.7849 3.4V9.692C19.7849 9.98667 19.9235 10.134 20.2009 10.134H28.4169C28.6942 10.134 28.8329 9.99533 28.8329 9.718ZM29.6909 10.42L27.7669 11.538C27.5069 11.7113 27.4635 11.9193 27.6369 12.162L31.9009 19.442C32.0395 19.702 31.9702 19.832 31.6929 19.832H30.2889C29.9769 19.832 29.7602 19.702 29.6389 19.442L25.4529 12.11C25.3142 11.85 25.0975 11.72 24.8029 11.72H20.2789C19.9495 11.72 19.7849 11.8673 19.7849 12.162V19.39C19.7849 19.6847 19.6462 19.832 19.3689 19.832H18.2249C17.9475 19.832 17.8089 19.6847 17.8089 19.39V1.424C17.8089 1.12933 17.9562 0.982 18.2509 0.982H19.4209C19.6982 0.982 19.8369 1.12933 19.8369 1.424V1.606C19.8369 1.90067 20.0275 2.022 20.4089 1.97L27.3249 1.034C27.6369 0.999333 27.8969 0.982 28.1049 0.982C29.9075 0.982 30.8089 1.88333 30.8089 3.686V8.366C30.8089 9.28467 30.4362 9.96933 29.6909 10.42ZM36.2727 16.556V4.388C36.2727 3.46933 36.6454 2.78467 37.3907 2.334L39.1587 1.32C39.54 1.12933 39.9647 1.034 40.4327 1.034H47.9467C48.224 1.034 48.3627 1.18133 48.3627 1.476V2.256C48.3627 2.55067 48.224 2.698 47.9467 2.698H38.6647C38.3874 2.698 38.2487 2.83667 38.2487 3.114V8.912C38.2487 9.20667 38.4134 9.354 38.7427 9.354H47.3487C47.626 9.354 47.7647 9.50133 47.7647 9.796V10.55C47.7647 10.8447 47.626 10.992 47.3487 10.992H38.7427C38.4134 10.992 38.2487 11.1393 38.2487 11.434V17.752C38.2487 18.0293 38.3874 18.168 38.6647 18.168H48.1547C48.3974 18.168 48.5187 18.272 48.5187 18.48C48.5187 18.688 48.4147 18.844 48.2067 18.948L47.0367 19.598C46.742 19.754 46.378 19.832 45.9447 19.832H39.4967C37.3474 19.832 36.2727 18.74 36.2727 16.556ZM64.4632 19.832H62.2272C61.9672 19.832 61.7765 19.6847 61.6552 19.39L56.1432 2.776C56.0565 2.53333 55.9179 2.412 55.7272 2.412C55.4499 2.412 55.3112 2.55933 55.3112 2.854V19.39C55.3112 19.6847 55.1725 19.832 54.8952 19.832H53.8292C53.5519 19.832 53.4132 19.6847 53.4132 19.39V1.476C53.4132 1.18133 53.5519 1.034 53.8292 1.034H56.9492C57.1919 1.034 57.3652 1.17267 57.4692 1.45L62.9292 17.31C63.0159 17.5527 63.1545 17.674 63.3452 17.674C63.5359 17.674 63.6745 17.5527 63.7612 17.31L69.2212 1.45C69.3252 1.17267 69.4985 1.034 69.7412 1.034H72.8612C73.1385 1.034 73.2772 1.18133 73.2772 1.476V19.39C73.2772 19.6847 73.1385 19.832 72.8612 19.832H71.7952C71.5179 19.832 71.3792 19.6847 71.3792 19.39V2.854C71.3792 2.55933 71.2405 2.412 70.9632 2.412C70.7725 2.412 70.6339 2.53333 70.5472 2.776L65.0352 19.39C64.9139 19.6847 64.7232 19.832 64.4632 19.832ZM80.8735 1.424V19.39C80.8735 19.6847 80.7348 19.832 80.4575 19.832H79.2615C78.9841 19.832 78.8455 19.6847 78.8455 19.39V1.424C78.8455 1.12933 78.9841 0.982 79.2615 0.982H80.4575C80.7348 0.982 80.8735 1.12933 80.8735 1.424ZM98.5074 17.414V1.424C98.5074 1.12933 98.646 0.982 98.9234 0.982H100.067C100.362 0.982 100.509 1.12933 100.509 1.424V19.39C100.509 19.6847 100.362 19.832 100.067 19.832H98.7674C98.49 19.832 98.3514 19.6847 98.3514 19.39V19.286C98.3514 18.9913 98.1607 18.87 97.7794 18.922L89.9274 19.858C89.6154 19.8927 89.3554 19.91 89.1474 19.91C87.3447 19.91 86.4434 19.0087 86.4434 17.206V1.424C86.4434 1.12933 86.582 0.982 86.8594 0.982H88.0294C88.3067 0.982 88.4454 1.12933 88.4454 1.424V17.44C88.4454 17.7347 88.61 17.882 88.9394 17.882L98.0134 17.856C98.3427 17.856 98.5074 17.7087 98.5074 17.414ZM116.996 19.832H114.76C114.5 19.832 114.31 19.6847 114.188 19.39L108.676 2.776C108.59 2.53333 108.451 2.412 108.26 2.412C107.983 2.412 107.844 2.55933 107.844 2.854V19.39C107.844 19.6847 107.706 19.832 107.428 19.832H106.362C106.085 19.832 105.946 19.6847 105.946 19.39V1.476C105.946 1.18133 106.085 1.034 106.362 1.034H109.482C109.725 1.034 109.898 1.17267 110.002 1.45L115.462 17.31C115.549 17.5527 115.688 17.674 115.878 17.674C116.069 17.674 116.208 17.5527 116.294 17.31L121.754 1.45C121.858 1.17267 122.032 1.034 122.274 1.034H125.394C125.672 1.034 125.81 1.18133 125.81 1.476V19.39C125.81 19.6847 125.672 19.832 125.394 19.832H124.328C124.051 19.832 123.912 19.6847 123.912 19.39V2.854C123.912 2.55933 123.774 2.412 123.496 2.412C123.306 2.412 123.167 2.53333 123.08 2.776L117.568 19.39C117.447 19.6847 117.256 19.832 116.996 19.832ZM12.9536 38.432H20.1556C22.3049 38.432 23.3796 39.524 23.3796 41.708V45.478C23.3796 46.3967 23.0069 47.0813 22.2616 47.532L20.4936 48.546C20.1122 48.7367 19.6876 48.832 19.2196 48.832H11.4196C11.1422 48.832 11.0036 48.6847 11.0036 48.39V47.584C11.0036 47.2893 11.1422 47.142 11.4196 47.142H20.9616C21.2389 47.142 21.3776 47.0033 21.3776 46.726V40.512C21.3776 40.2347 21.2389 40.096 20.9616 40.096H13.7596C11.6102 40.096 10.5356 39.004 10.5356 36.82V33.388C10.5356 32.4693 10.9082 31.7847 11.6536 31.334L13.4216 30.32C13.8029 30.1293 14.2276 30.034 14.6956 30.034H22.2096C22.4869 30.034 22.6256 30.1813 22.6256 30.476V31.282C22.6256 31.5767 22.4869 31.724 22.2096 31.724H12.9536C12.6762 31.724 12.5376 31.8627 12.5376 32.14V38.016C12.5376 38.2933 12.6762 38.432 12.9536 38.432ZM27.5891 45.556V33.388C27.5891 32.4693 27.9618 31.7847 28.7071 31.334L30.4751 30.32C30.8565 30.1293 31.2811 30.034 31.7491 30.034H39.2631C39.5405 30.034 39.6791 30.1813 39.6791 30.476V31.256C39.6791 31.5507 39.5405 31.698 39.2631 31.698H29.9811C29.7038 31.698 29.5651 31.8367 29.5651 32.114V37.912C29.5651 38.2067 29.7298 38.354 30.0591 38.354H38.6651C38.9425 38.354 39.0811 38.5013 39.0811 38.796V39.55C39.0811 39.8447 38.9425 39.992 38.6651 39.992H30.0591C29.7298 39.992 29.5651 40.1393 29.5651 40.434V46.752C29.5651 47.0293 29.7038 47.168 29.9811 47.168H39.4711C39.7138 47.168 39.8351 47.272 39.8351 47.48C39.8351 47.688 39.7311 47.844 39.5231 47.948L38.3531 48.598C38.0585 48.754 37.6945 48.832 37.2611 48.832H30.8131C28.6638 48.832 27.5891 47.74 27.5891 45.556ZM55.4676 38.718V32.452C55.4676 32.1227 55.303 31.958 54.9736 31.958H46.9136C46.5843 31.958 46.4196 32.1053 46.4196 32.4V38.692C46.4196 38.9867 46.5583 39.134 46.8356 39.134H55.0516C55.329 39.134 55.4676 38.9953 55.4676 38.718ZM56.3256 39.42L54.4016 40.538C54.1416 40.7113 54.0983 40.9193 54.2716 41.162L58.5356 48.442C58.6743 48.702 58.605 48.832 58.3276 48.832H56.9236C56.6116 48.832 56.395 48.702 56.2736 48.442L52.0876 41.11C51.949 40.85 51.7323 40.72 51.4376 40.72H46.9136C46.5843 40.72 46.4196 40.8673 46.4196 41.162V48.39C46.4196 48.6847 46.281 48.832 46.0036 48.832H44.8596C44.5823 48.832 44.4436 48.6847 44.4436 48.39V30.424C44.4436 30.1293 44.591 29.982 44.8856 29.982H46.0556C46.333 29.982 46.4716 30.1293 46.4716 30.424V30.606C46.4716 30.9007 46.6623 31.022 47.0436 30.97L53.9596 30.034C54.2716 29.9993 54.5316 29.982 54.7396 29.982C56.5423 29.982 57.4436 30.8833 57.4436 32.686V37.366C57.4436 38.2847 57.071 38.9693 56.3256 39.42ZM63.0115 30.45L68.2375 47.298C68.2895 47.454 68.4021 47.532 68.5755 47.532C68.7488 47.532 68.8701 47.454 68.9395 47.298L74.1655 30.45C74.2868 30.138 74.5121 29.982 74.8415 29.982H76.1155C76.4448 29.982 76.5575 30.138 76.4535 30.45L70.6035 48.39C70.4995 48.6847 70.2741 48.832 69.9275 48.832H67.1715C66.8595 48.832 66.6601 48.6847 66.5735 48.39L60.7235 30.45C60.6195 30.138 60.7321 29.982 61.0615 29.982H62.3355C62.6648 29.982 62.8901 30.138 63.0115 30.45ZM81.559 30.424V48.39C81.559 48.6847 81.4204 48.832 81.143 48.832H79.947C79.6697 48.832 79.531 48.6847 79.531 48.39V30.424C79.531 30.1293 79.6697 29.982 79.947 29.982H81.143C81.4204 29.982 81.559 30.1293 81.559 30.424ZM88.9489 32.114V46.752C88.9489 47.0293 89.0876 47.168 89.3649 47.168H99.1409C99.3836 47.168 99.5049 47.272 99.5049 47.48C99.5049 47.688 99.4009 47.844 99.1929 47.948L98.0229 48.598C97.7282 48.754 97.3642 48.832 96.9309 48.832H90.1709C88.0216 48.832 86.9469 47.74 86.9469 45.556V33.388C86.9469 32.4693 87.3196 31.7847 88.0649 31.334L89.8329 30.32C90.2142 30.1293 90.6389 30.034 91.1069 30.034H98.9329C99.2102 30.034 99.3489 30.1813 99.3489 30.476V31.256C99.3489 31.5507 99.2102 31.698 98.9329 31.698H89.3649C89.0876 31.698 88.9489 31.8367 88.9489 32.114ZM103.888 45.556V33.388C103.888 32.4693 104.261 31.7847 105.006 31.334L106.774 30.32C107.155 30.1293 107.58 30.034 108.048 30.034H115.562C115.839 30.034 115.978 30.1813 115.978 30.476V31.256C115.978 31.5507 115.839 31.698 115.562 31.698H106.28C106.003 31.698 105.864 31.8367 105.864 32.114V37.912C105.864 38.2067 106.029 38.354 106.358 38.354H114.964C115.241 38.354 115.38 38.5013 115.38 38.796V39.55C115.38 39.8447 115.241 39.992 114.964 39.992H106.358C106.029 39.992 105.864 40.1393 105.864 40.434V46.752C105.864 47.0293 106.003 47.168 106.28 47.168H115.77C116.013 47.168 116.134 47.272 116.134 47.48C116.134 47.688 116.03 47.844 115.822 47.948L114.652 48.598C114.357 48.754 113.993 48.832 113.56 48.832H107.112C104.963 48.832 103.888 47.74 103.888 45.556Z" fill="#D9D9D9"/>
<path d="M10.7933 2.958V2.258L10.7911 2.258L10.7933 2.958ZM2.70732 2.984L2.70732 3.684L2.70957 3.68399L2.70732 2.984ZM2.83732 1.866L2.74378 1.17228L2.74274 1.17242L2.83732 1.866ZM9.77932 0.929999L9.70202 0.23428L9.69389 0.235183L9.68578 0.236276L9.77932 0.929999ZM12.1453 10.94L12.4975 11.5451L12.5075 11.539L12.1453 10.94ZM10.4033 11.954L10.7164 12.5801L10.7363 12.5702L10.7555 12.559L10.4033 11.954ZM11.9873 10.212V3.452H10.5873V10.212H11.9873ZM11.9873 3.452C11.9873 3.17943 11.9187 2.84643 11.6588 2.58652C11.3989 2.32661 11.0659 2.258 10.7933 2.258V3.658C10.8501 3.658 10.7641 3.67172 10.6688 3.57647C10.5736 3.48123 10.5873 3.39523 10.5873 3.452H11.9873ZM10.7911 2.258L2.70507 2.284L2.70957 3.68399L10.7956 3.658L10.7911 2.258ZM2.70732 2.284C2.45277 2.284 2.13112 2.33925 1.87006 2.57283C1.59419 2.81967 1.51332 3.14938 1.51332 3.426H2.91332C2.91332 3.41576 2.91495 3.43729 2.90015 3.477C2.88384 3.52079 2.85271 3.57221 2.80358 3.61617C2.70719 3.70241 2.63254 3.684 2.70732 3.684V2.284ZM1.51332 3.426V10.186H2.91332V3.426H1.51332ZM1.51332 10.186C1.51332 10.431 1.57016 10.745 1.80758 10.9973C2.0525 11.2575 2.37154 11.328 2.62932 11.328V9.928C2.60977 9.928 2.7208 9.92485 2.82706 10.0377C2.92581 10.1427 2.91332 10.2356 2.91332 10.186H1.51332ZM2.62932 11.328H10.8713V9.928H2.62932V11.328ZM10.8713 11.328C11.1179 11.328 11.4314 11.2659 11.6783 11.019C11.9252 10.7721 11.9873 10.4586 11.9873 10.212H10.5873C10.5873 10.2428 10.5801 10.1373 10.6883 10.029C10.7966 9.92078 10.9021 9.928 10.8713 9.928V11.328ZM1.51332 12.682V19.39H2.91332V12.682H1.51332ZM1.51332 19.39C1.51332 19.4396 1.50083 19.3467 1.59958 19.2417C1.70584 19.1288 1.81687 19.132 1.79732 19.132V20.532C2.0551 20.532 2.37414 20.4615 2.61906 20.2013C2.85648 19.949 2.91332 19.635 2.91332 19.39H1.51332ZM1.79732 19.132H0.65332V20.532H1.79732V19.132ZM0.65332 19.132C0.633771 19.132 0.744804 19.1288 0.85106 19.2417C0.949814 19.3467 0.93732 19.4396 0.93732 19.39H-0.46268C-0.46268 19.635 -0.40584 19.949 -0.16842 20.2013C0.0765031 20.4615 0.395536 20.532 0.65332 20.532V19.132ZM0.93732 19.39V1.424H-0.46268V19.39H0.93732ZM0.93732 1.424C0.93732 1.38457 0.946704 1.48357 0.842795 1.58747C0.738885 1.69138 0.639888 1.682 0.67932 1.682V0.282C0.424086 0.282 0.104089 0.346282 -0.147154 0.597524C-0.398397 0.848766 -0.46268 1.16876 -0.46268 1.424H0.93732ZM0.67932 1.682H1.84932V0.282H0.67932V1.682ZM1.84932 1.682C1.86887 1.682 1.75784 1.68515 1.65158 1.57226C1.55283 1.46733 1.56532 1.37435 1.56532 1.424H2.96532C2.96532 1.17898 2.90848 0.865002 2.67106 0.612743C2.42614 0.352513 2.1071 0.282 1.84932 0.282V1.682ZM1.56532 1.424V1.502H2.96532V1.424H1.56532ZM1.56532 1.502C1.56532 1.80672 1.67467 2.17685 2.03251 2.40456C2.33673 2.59816 2.6827 2.59356 2.9319 2.55958L2.74274 1.17242C2.6882 1.17985 2.66733 1.1771 2.6713 1.17759C2.67598 1.17815 2.72284 1.18443 2.78413 1.22344C2.8518 1.26649 2.90577 1.3298 2.93742 1.39884C2.95167 1.42994 2.95863 1.45618 2.962 1.47394C2.96531 1.49142 2.96532 1.50151 2.96532 1.502H1.56532ZM2.93086 2.55972L9.87286 1.62372L9.68578 0.236276L2.74378 1.17228L2.93086 2.55972ZM9.85662 1.62572C10.1545 1.59263 10.3866 1.578 10.5593 1.578V0.177999C10.3161 0.177999 10.0282 0.19804 9.70202 0.23428L9.85662 1.62572ZM10.5593 1.578C11.3528 1.578 11.8193 1.77588 12.0923 2.04897C12.3654 2.32206 12.5633 2.78857 12.5633 3.582H13.9633C13.9633 2.57276 13.7105 1.68727 13.0823 1.05902C12.4541 0.430782 11.5686 0.177999 10.5593 0.177999V1.578ZM12.5633 3.582V8.886H13.9633V3.582H12.5633ZM12.5633 8.886C12.5633 9.57594 12.3052 10.0253 11.7831 10.341L12.5075 11.539C13.4761 10.9533 13.9633 10.0334 13.9633 8.886H12.5633ZM11.7932 10.335L10.0512 11.349L10.7555 12.559L12.4975 11.545L11.7932 10.335ZM10.0903 11.3279C9.81535 11.4654 9.49944 11.54 9.12932 11.54V12.94C9.6952 12.94 10.2286 12.824 10.7164 12.5801L10.0903 11.3279ZM9.12932 11.54H2.70732V12.94H9.12932V11.54ZM2.70732 11.54C2.45277 11.54 2.13112 11.5953 1.87006 11.8288C1.59419 12.0757 1.51332 12.4054 1.51332 12.682H2.91332C2.91332 12.6718 2.91495 12.6933 2.90015 12.733C2.88384 12.7768 2.85271 12.8282 2.80358 12.8722C2.70719 12.9584 2.63254 12.94 2.70732 12.94V11.54ZM29.6909 10.42L30.0426 11.0253L30.053 11.019L29.6909 10.42ZM27.7669 11.538L27.4152 10.9328L27.3965 10.9436L27.3786 10.9556L27.7669 11.538ZM27.6369 12.162L28.2409 11.8082L28.2249 11.7809L28.2065 11.7551L27.6369 12.162ZM31.9009 19.442L32.5185 19.1126L32.5119 19.1003L32.5049 19.0882L31.9009 19.442ZM29.6389 19.442L30.2732 19.146L30.261 19.1199L30.2468 19.0949L29.6389 19.442ZM25.4529 12.11L24.8352 12.4394L24.84 12.4483L24.8449 12.4571L25.4529 12.11ZM20.4089 1.97L20.315 1.27632L20.3143 1.27642L20.4089 1.97ZM27.3249 1.034L27.2476 0.33828L27.2392 0.339203L27.231 0.340323L27.3249 1.034ZM29.5329 9.718V3.452H28.1329V9.718H29.5329ZM29.5329 3.452C29.5329 3.17943 29.4642 2.84643 29.2043 2.58652C28.9444 2.32661 28.6114 2.258 28.3389 2.258V3.658C28.3956 3.658 28.3096 3.67172 28.2144 3.57647C28.1191 3.48123 28.1329 3.39523 28.1329 3.452H29.5329ZM28.3389 2.258H20.2789V3.658H28.3389V2.258ZM20.2789 2.258C20.0243 2.258 19.7027 2.31325 19.4416 2.54683C19.1657 2.79367 19.0849 3.12338 19.0849 3.4H20.4849C20.4849 3.38976 20.4865 3.41129 20.4717 3.451C20.4554 3.49479 20.4242 3.54621 20.3751 3.59017C20.2787 3.67641 20.2041 3.658 20.2789 3.658V2.258ZM19.0849 3.4V9.692H20.4849V3.4H19.0849ZM19.0849 9.692C19.0849 9.93702 19.1417 10.251 19.3791 10.5033C19.624 10.7635 19.9431 10.834 20.2009 10.834V9.434C20.1813 9.434 20.2923 9.43085 20.3986 9.54374C20.4973 9.64867 20.4849 9.74165 20.4849 9.692H19.0849ZM20.2009 10.834H28.4169V9.434H20.2009V10.834ZM28.4169 10.834C28.6634 10.834 28.9769 10.7719 29.2238 10.525C29.4707 10.2781 29.5329 9.96457 29.5329 9.718H28.1329C28.1329 9.74877 28.1256 9.64327 28.2339 9.53503C28.3421 9.42678 28.4476 9.434 28.4169 9.434V10.834ZM29.3392 9.81476L27.4152 10.9328L28.1185 12.1432L30.0425 11.0252L29.3392 9.81476ZM27.3786 10.9556C27.1672 11.0965 26.9277 11.3279 26.8541 11.6812C26.7786 12.0436 26.9141 12.3544 27.0672 12.5689L28.2065 11.7551C28.1863 11.7269 28.2568 11.8124 28.2246 11.9668C28.1944 12.1121 28.1065 12.1529 28.1551 12.1204L27.3786 10.9556ZM27.0328 12.5158L31.2968 19.7958L32.5049 19.0882L28.2409 11.8082L27.0328 12.5158ZM31.2832 19.7714C31.2985 19.8 31.2855 19.7847 31.2767 19.7351C31.2673 19.6824 31.2569 19.5519 31.3352 19.4051C31.417 19.2517 31.5422 19.1799 31.6161 19.1522C31.6802 19.1281 31.7159 19.132 31.6929 19.132V20.532C31.8636 20.532 32.3357 20.5042 32.5705 20.0639C32.6835 19.8521 32.6818 19.6403 32.655 19.4901C32.6289 19.343 32.5726 19.214 32.5185 19.1126L31.2832 19.7714ZM31.6929 19.132H30.2889V20.532H31.6929V19.132ZM30.2889 19.132C30.2592 19.132 30.244 19.1289 30.2399 19.1279C30.2379 19.1274 30.2385 19.1274 30.2411 19.1284C30.2437 19.1295 30.2477 19.1314 30.2525 19.1343C30.2573 19.1372 30.2622 19.1406 30.2667 19.1444C30.2711 19.1481 30.2745 19.1516 30.2767 19.1542C30.2814 19.1596 30.2791 19.1587 30.2732 19.146L29.0045 19.738C29.1159 19.9768 29.2885 20.1885 29.5322 20.3347C29.7722 20.4788 30.0356 20.532 30.2889 20.532V19.132ZM30.2468 19.0949L26.0608 11.7629L24.8449 12.4571L29.0309 19.7891L30.2468 19.0949ZM26.0705 11.7806C25.9515 11.5575 25.7806 11.3577 25.5465 11.2173C25.3124 11.0768 25.0557 11.02 24.8029 11.02V12.42C24.825 12.42 24.8353 12.4224 24.8367 12.4228C24.8376 12.423 24.833 12.4218 24.8262 12.4177C24.8194 12.4137 24.8162 12.4102 24.8168 12.4108C24.8178 12.4119 24.8248 12.4198 24.8352 12.4394L26.0705 11.7806ZM24.8029 11.02H20.2789V12.42H24.8029V11.02ZM20.2789 11.02C20.0243 11.02 19.7027 11.0753 19.4416 11.3088C19.1657 11.5557 19.0849 11.8854 19.0849 12.162H20.4849C20.4849 12.1518 20.4865 12.1733 20.4717 12.213C20.4554 12.2568 20.4242 12.3082 20.3751 12.3522C20.2787 12.4384 20.2041 12.42 20.2789 12.42V11.02ZM19.0849 12.162V19.39H20.4849V12.162H19.0849ZM19.0849 19.39C19.0849 19.4396 19.0724 19.3467 19.1711 19.2417C19.2774 19.1288 19.3884 19.132 19.3689 19.132V20.532C19.6266 20.532 19.9457 20.4615 20.1906 20.2013C20.428 19.949 20.4849 19.635 20.4849 19.39H19.0849ZM19.3689 19.132H18.2249V20.532H19.3689V19.132ZM18.2249 19.132C18.2053 19.132 18.3163 19.1288 18.4226 19.2417C18.5213 19.3467 18.5089 19.4396 18.5089 19.39H17.1089C17.1089 19.635 17.1657 19.949 17.4031 20.2013C17.648 20.4615 17.9671 20.532 18.2249 20.532V19.132ZM18.5089 19.39V1.424H17.1089V19.39H18.5089ZM18.5089 1.424C18.5089 1.38457 18.5182 1.48357 18.4143 1.58747C18.3104 1.69138 18.2114 1.682 18.2509 1.682V0.282C17.9956 0.282 17.6756 0.346282 17.4244 0.597524C17.1731 0.848766 17.1089 1.16876 17.1089 1.424H18.5089ZM18.2509 1.682H19.4209V0.282H18.2509V1.682ZM19.4209 1.682C19.4404 1.682 19.3294 1.68515 19.2231 1.57226C19.1244 1.46733 19.1369 1.37435 19.1369 1.424H20.5369C20.5369 1.17898 20.48 0.865002 20.2426 0.612743C19.9977 0.352513 19.6786 0.282 19.4209 0.282V1.682ZM19.1369 1.424V1.606H20.5369V1.424H19.1369ZM19.1369 1.606C19.1369 1.91072 19.2462 2.28085 19.604 2.50856C19.9083 2.70216 20.2542 2.69756 20.5034 2.66358L20.3143 1.27642C20.2597 1.28386 20.2389 1.2811 20.2428 1.28159C20.2475 1.28215 20.2944 1.28843 20.3557 1.32744C20.4233 1.37049 20.4773 1.4338 20.5089 1.50284C20.5232 1.53394 20.5302 1.56018 20.5335 1.57794C20.5368 1.59542 20.5369 1.60551 20.5369 1.606H19.1369ZM20.5027 2.66368L27.4187 1.72767L27.231 0.340323L20.315 1.27632L20.5027 2.66368ZM27.4022 1.72972C27.7 1.69663 27.9321 1.682 28.1049 1.682V0.282C27.8616 0.282 27.5737 0.30204 27.2476 0.33828L27.4022 1.72972ZM28.1049 1.682C28.8983 1.682 29.3648 1.87988 29.6379 2.15297C29.911 2.42606 30.1089 2.89257 30.1089 3.686H31.5089C31.5089 2.67676 31.2561 1.79127 30.6278 1.16302C29.9996 0.534782 29.1141 0.282 28.1049 0.282V1.682ZM30.1089 3.686V8.366H31.5089V3.686H30.1089ZM30.1089 8.366C30.1089 9.05594 29.8507 9.50532 29.3287 9.82099L30.053 11.019C31.0217 10.4333 31.5089 9.51339 31.5089 8.366H30.1089ZM37.3907 2.334L37.0425 1.72678L37.0354 1.7308L37.0285 1.73499L37.3907 2.334ZM39.1587 1.32L38.8457 0.693901L38.8278 0.702838L38.8105 0.71278L39.1587 1.32ZM48.2067 18.948L47.8937 18.3219L47.8801 18.3287L47.8668 18.3361L48.2067 18.948ZM47.0367 19.598L47.3643 20.2168L47.3767 20.2099L47.0367 19.598ZM36.9727 16.556V4.388H35.5727V16.556H36.9727ZM36.9727 4.388C36.9727 3.69805 37.2308 3.24868 37.7529 2.93301L37.0285 1.73499C36.0599 2.32066 35.5727 3.24061 35.5727 4.388H36.9727ZM37.739 2.94122L39.507 1.92722L38.8105 0.71278L37.0425 1.72678L37.739 2.94122ZM39.4718 1.9461C39.7467 1.80864 40.0626 1.734 40.4327 1.734V0.333999C39.8668 0.333999 39.3334 0.450029 38.8457 0.693901L39.4718 1.9461ZM40.4327 1.734H47.9467V0.333999H40.4327V1.734ZM47.9467 1.734C47.9663 1.734 47.8552 1.73715 47.749 1.62425C47.6502 1.51933 47.6627 1.42635 47.6627 1.476H49.0627C49.0627 1.23098 49.0059 0.917002 48.7685 0.664743C48.5235 0.404513 48.2045 0.333999 47.9467 0.333999V1.734ZM47.6627 1.476V2.256H49.0627V1.476H47.6627ZM47.6627 2.256C47.6627 2.30565 47.6502 2.21267 47.749 2.10774C47.8552 1.99485 47.9663 1.998 47.9467 1.998V3.398C48.2045 3.398 48.5235 3.32748 48.7685 3.06725C49.0059 2.815 49.0627 2.50102 49.0627 2.256H47.6627ZM47.9467 1.998H38.6647V3.398H47.9467V1.998ZM38.6647 1.998C38.4181 1.998 38.1046 2.06012 37.8577 2.30703C37.6108 2.55393 37.5487 2.86743 37.5487 3.114H38.9487C38.9487 3.08323 38.9559 3.18873 38.8477 3.29697C38.7394 3.40522 38.6339 3.398 38.6647 3.398V1.998ZM37.5487 3.114V8.912H38.9487V3.114H37.5487ZM37.5487 8.912C37.5487 9.18862 37.6296 9.51833 37.9055 9.76517C38.1665 9.99875 38.4882 10.054 38.7427 10.054V8.654C38.6679 8.654 38.7426 8.63559 38.839 8.72183C38.8881 8.76579 38.9192 8.81721 38.9355 8.861C38.9503 8.9007 38.9487 8.92223 38.9487 8.912H37.5487ZM38.7427 10.054H47.3487V8.654H38.7427V10.054ZM47.3487 10.054C47.3683 10.054 47.2572 10.0572 47.151 9.94426C47.0522 9.83933 47.0647 9.74635 47.0647 9.796H48.4647C48.4647 9.55098 48.4079 9.237 48.1705 8.98474C47.9255 8.72451 47.6065 8.654 47.3487 8.654V10.054ZM47.0647 9.796V10.55H48.4647V9.796H47.0647ZM47.0647 10.55C47.0647 10.5996 47.0522 10.5067 47.151 10.4017C47.2572 10.2888 47.3683 10.292 47.3487 10.292V11.692C47.6065 11.692 47.9255 11.6215 48.1705 11.3613C48.4079 11.109 48.4647 10.795 48.4647 10.55H47.0647ZM47.3487 10.292H38.7427V11.692H47.3487V10.292ZM38.7427 10.292C38.4882 10.292 38.1665 10.3473 37.9055 10.5808C37.6296 10.8277 37.5487 11.1574 37.5487 11.434H38.9487C38.9487 11.4238 38.9503 11.4453 38.9355 11.485C38.9192 11.5288 38.8881 11.5802 38.839 11.6242C38.7426 11.7104 38.6679 11.692 38.7427 11.692V10.292ZM37.5487 11.434V17.752H38.9487V11.434H37.5487ZM37.5487 17.752C37.5487 17.9986 37.6108 18.3121 37.8577 18.559C38.1046 18.8059 38.4181 18.868 38.6647 18.868V17.468C38.6339 17.468 38.7394 17.4608 38.8477 17.569C38.9559 17.6773 38.9487 17.7828 38.9487 17.752H37.5487ZM38.6647 18.868H48.1547V17.468H38.6647V18.868ZM48.1547 18.868C48.1923 18.868 48.0898 18.8784 47.9722 18.7775C47.8338 18.6589 47.8187 18.5145 47.8187 18.48H49.2187C49.2187 18.2375 49.1429 17.9371 48.8833 17.7145C48.6442 17.5096 48.3598 17.468 48.1547 17.468V18.868ZM47.8187 18.48C47.8187 18.4733 47.8196 18.4568 47.8261 18.4339C47.8328 18.4105 47.8437 18.3865 47.8583 18.3647C47.8883 18.3197 47.9146 18.3114 47.8937 18.3219L48.5198 19.5741C48.7068 19.4806 48.8891 19.3423 49.0231 19.1413C49.1601 18.9359 49.2187 18.7065 49.2187 18.48H47.8187ZM47.8668 18.3361L46.6968 18.9861L47.3767 20.2099L48.5467 19.5599L47.8668 18.3361ZM46.7092 18.9793C46.5411 19.0683 46.297 19.132 45.9447 19.132V20.532C46.4591 20.532 46.943 20.4397 47.3642 20.2167L46.7092 18.9793ZM45.9447 19.132H39.4967V20.532H45.9447V19.132ZM39.4967 19.132C38.5328 19.132 37.9378 18.888 37.5776 18.522C37.2154 18.1539 36.9727 17.5429 36.9727 16.556H35.5727C35.5727 17.7531 35.8673 18.7801 36.5798 19.504C37.2943 20.23 38.3113 20.532 39.4967 20.532V19.132ZM61.6552 19.39L60.9908 19.6104L60.9986 19.6338L61.0079 19.6565L61.6552 19.39ZM56.1432 2.776L56.8076 2.55558L56.8051 2.54804L56.8024 2.54056L56.1432 2.776ZM57.4692 1.45L58.1311 1.22214L58.128 1.21313L58.1246 1.20421L57.4692 1.45ZM62.9292 17.31L62.2673 17.5379L62.27 17.5454L62.9292 17.31ZM63.7612 17.31L64.4205 17.5455L64.4231 17.5379L63.7612 17.31ZM69.2212 1.45L68.5658 1.20421L68.5624 1.21313L68.5593 1.22214L69.2212 1.45ZM70.5472 2.776L69.888 2.54056L69.8853 2.54804L69.8828 2.55558L70.5472 2.776ZM65.0352 19.39L65.6825 19.6565L65.6919 19.6338L65.6996 19.6104L65.0352 19.39ZM64.4632 19.132H62.2272V20.532H64.4632V19.132ZM62.2272 19.132C62.229 19.132 62.2424 19.1324 62.2627 19.139C62.2837 19.1459 62.3027 19.1563 62.3172 19.1676C62.3453 19.1893 62.3311 19.1929 62.3025 19.1235L61.0079 19.6565C61.1007 19.8818 61.2425 20.1064 61.4612 20.2754C61.689 20.4515 61.9553 20.532 62.2272 20.532V19.132ZM62.3196 19.1696L56.8076 2.55558L55.4788 2.99642L60.9908 19.6104L62.3196 19.1696ZM56.8024 2.54056C56.7341 2.34926 56.6231 2.14063 56.4352 1.9762C56.2334 1.79969 55.9856 1.712 55.7272 1.712V3.112C55.6995 3.112 55.6612 3.10734 55.6185 3.09159C55.5753 3.0757 55.5398 3.05299 55.5133 3.0298C55.464 2.9867 55.4656 2.96008 55.484 3.01143L56.8024 2.54056ZM55.7272 1.712C55.4694 1.712 55.1504 1.78251 54.9055 2.04274C54.6681 2.295 54.6112 2.60898 54.6112 2.854H56.0112C56.0112 2.80435 56.0237 2.89733 55.925 3.00226C55.8187 3.11515 55.7077 3.112 55.7272 3.112V1.712ZM54.6112 2.854V19.39H56.0112V2.854H54.6112ZM54.6112 19.39C54.6112 19.4396 54.5987 19.3467 54.6975 19.2417C54.8037 19.1288 54.9148 19.132 54.8952 19.132V20.532C55.153 20.532 55.472 20.4615 55.717 20.2013C55.9544 19.949 56.0112 19.635 56.0112 19.39H54.6112ZM54.8952 19.132H53.8292V20.532H54.8952V19.132ZM53.8292 19.132C53.8097 19.132 53.9207 19.1288 54.027 19.2417C54.1257 19.3467 54.1132 19.4396 54.1132 19.39H52.7132C52.7132 19.635 52.7701 19.949 53.0075 20.2013C53.2524 20.4615 53.5714 20.532 53.8292 20.532V19.132ZM54.1132 19.39V1.476H52.7132V19.39H54.1132ZM54.1132 1.476C54.1132 1.42635 54.1257 1.51933 54.027 1.62425C53.9207 1.73715 53.8097 1.734 53.8292 1.734V0.333999C53.5714 0.333999 53.2524 0.404513 53.0075 0.664744C52.7701 0.917003 52.7132 1.23098 52.7132 1.476H54.1132ZM53.8292 1.734H56.9492V0.333999H53.8292V1.734ZM56.9492 1.734C56.9426 1.734 56.9234 1.73293 56.8969 1.72408C56.8695 1.71497 56.8443 1.70087 56.8239 1.68461C56.7845 1.65303 56.7917 1.63694 56.8138 1.69579L58.1246 1.20421C58.0427 0.985721 57.9113 0.761636 57.6985 0.591391C57.4759 0.413326 57.2137 0.333999 56.9492 0.333999V1.734ZM56.8073 1.67786L62.2673 17.5379L63.5911 17.0821L58.1311 1.22214L56.8073 1.67786ZM62.27 17.5454C62.3383 17.7367 62.4493 17.9454 62.6373 18.1098C62.839 18.2863 63.0868 18.374 63.3452 18.374V16.974C63.373 16.974 63.4112 16.9787 63.454 16.9944C63.4971 17.0103 63.5327 17.033 63.5592 17.0562C63.6084 17.0993 63.6068 17.1259 63.5884 17.0746L62.27 17.5454ZM63.3452 18.374C63.6036 18.374 63.8514 18.2863 64.0532 18.1098C64.2411 17.9454 64.3521 17.7367 64.4204 17.5454L63.102 17.0746C63.0837 17.1259 63.082 17.0993 63.1313 17.0562C63.1578 17.033 63.1933 17.0103 63.2365 16.9944C63.2792 16.9787 63.3175 16.974 63.3452 16.974V18.374ZM64.4231 17.5379L69.8831 1.67786L68.5593 1.22214L63.0993 17.0821L64.4231 17.5379ZM69.8766 1.69579C69.8987 1.63695 69.906 1.65303 69.8665 1.68461C69.8462 1.70087 69.8209 1.71497 69.7936 1.72408C69.767 1.73293 69.7478 1.734 69.7412 1.734V0.333999C69.4767 0.333999 69.2145 0.413326 68.9919 0.591391C68.7791 0.761635 68.6477 0.98572 68.5658 1.20421L69.8766 1.69579ZM69.7412 1.734H72.8612V0.333999H69.7412V1.734ZM72.8612 1.734C72.8808 1.734 72.7697 1.73715 72.6635 1.62425C72.5647 1.51933 72.5772 1.42635 72.5772 1.476H73.9772C73.9772 1.23098 73.9204 0.917003 73.683 0.664744C73.438 0.404513 73.119 0.333999 72.8612 0.333999V1.734ZM72.5772 1.476V19.39H73.9772V1.476H72.5772ZM72.5772 19.39C72.5772 19.4396 72.5647 19.3467 72.6635 19.2417C72.7697 19.1288 72.8808 19.132 72.8612 19.132V20.532C73.119 20.532 73.438 20.4615 73.683 20.2013C73.9204 19.949 73.9772 19.635 73.9772 19.39H72.5772ZM72.8612 19.132H71.7952V20.532H72.8612V19.132ZM71.7952 19.132C71.7757 19.132 71.8867 19.1288 71.993 19.2417C72.0917 19.3467 72.0792 19.4396 72.0792 19.39H70.6792C70.6792 19.635 70.7361 19.949 70.9735 20.2013C71.2184 20.4615 71.5374 20.532 71.7952 20.532V19.132ZM72.0792 19.39V2.854H70.6792V19.39H72.0792ZM72.0792 2.854C72.0792 2.60898 72.0224 2.295 71.785 2.04274C71.54 1.78251 71.221 1.712 70.9632 1.712V3.112C70.9828 3.112 70.8717 3.11515 70.7655 3.00225C70.6667 2.89733 70.6792 2.80435 70.6792 2.854H72.0792ZM70.9632 1.712C70.7048 1.712 70.457 1.79969 70.2553 1.9762C70.0673 2.14063 69.9563 2.34926 69.888 2.54056L71.2064 3.01143C71.2248 2.96008 71.2264 2.9867 71.1772 3.0298C71.1507 3.05299 71.1151 3.0757 71.072 3.09159C71.0292 3.10734 70.991 3.112 70.9632 3.112V1.712ZM69.8828 2.55558L64.3708 19.1696L65.6996 19.6104L71.2116 2.99642L69.8828 2.55558ZM64.3879 19.1235C64.3593 19.1929 64.3452 19.1893 64.3732 19.1676C64.3878 19.1563 64.4068 19.1459 64.4277 19.139C64.448 19.1324 64.4614 19.132 64.4632 19.132V20.532C64.7351 20.532 65.0014 20.4515 65.2292 20.2754C65.4479 20.1064 65.5897 19.8818 65.6825 19.6565L64.3879 19.1235ZM80.1735 1.424V19.39H81.5735V1.424H80.1735ZM80.1735 19.39C80.1735 19.4396 80.161 19.3467 80.2597 19.2417C80.366 19.1288 80.477 19.132 80.4575 19.132V20.532C80.7153 20.532 81.0343 20.4615 81.2792 20.2013C81.5166 19.949 81.5735 19.635 81.5735 19.39H80.1735ZM80.4575 19.132H79.2615V20.532H80.4575V19.132ZM79.2615 19.132C79.2419 19.132 79.353 19.1288 79.4592 19.2417C79.558 19.3467 79.5455 19.4396 79.5455 19.39H78.1455C78.1455 19.635 78.2023 19.949 78.4397 20.2013C78.6847 20.4615 79.0037 20.532 79.2615 20.532V19.132ZM79.5455 19.39V1.424H78.1455V19.39H79.5455ZM79.5455 1.424C79.5455 1.37435 79.558 1.46733 79.4592 1.57226C79.353 1.68515 79.2419 1.682 79.2615 1.682V0.282C79.0037 0.282 78.6847 0.352513 78.4397 0.612743C78.2023 0.865002 78.1455 1.17898 78.1455 1.424H79.5455ZM79.2615 1.682H80.4575V0.282H79.2615V1.682ZM80.4575 1.682C80.477 1.682 80.366 1.68515 80.2597 1.57225C80.161 1.46733 80.1735 1.37435 80.1735 1.424H81.5735C81.5735 1.17898 81.5166 0.865002 81.2792 0.612744C81.0343 0.352514 80.7153 0.282 80.4575 0.282V1.682ZM97.7794 18.922L97.8622 19.6172L97.8739 19.6156L97.7794 18.922ZM89.9274 19.858L90.0047 20.5537L90.0102 20.5531L89.9274 19.858ZM88.9394 17.882L88.9394 18.582L88.9414 18.582L88.9394 17.882ZM98.0134 17.856L98.0134 17.156L98.0114 17.156L98.0134 17.856ZM99.2074 17.414V1.424H97.8074V17.414H99.2074ZM99.2074 1.424C99.2074 1.37435 99.2199 1.46733 99.1211 1.57225C99.0149 1.68515 98.9038 1.682 98.9234 1.682V0.282C98.6656 0.282 98.3466 0.352514 98.1016 0.612744C97.8642 0.865002 97.8074 1.17898 97.8074 1.424H99.2074ZM98.9234 1.682H100.067V0.282H98.9234V1.682ZM100.067 1.682C100.107 1.682 100.008 1.69138 99.9039 1.58747C99.8 1.48357 99.8094 1.38457 99.8094 1.424H101.209C101.209 1.16876 101.145 0.848766 100.894 0.597524C100.643 0.346282 100.323 0.282 100.067 0.282V1.682ZM99.8094 1.424V19.39H101.209V1.424H99.8094ZM99.8094 19.39C99.8094 19.4294 99.8 19.3304 99.9039 19.2265C100.008 19.1226 100.107 19.132 100.067 19.132V20.532C100.323 20.532 100.643 20.4677 100.894 20.2165C101.145 19.9652 101.209 19.6452 101.209 19.39H99.8094ZM100.067 19.132H98.7674V20.532H100.067V19.132ZM98.7674 19.132C98.7478 19.132 98.8589 19.1288 98.9651 19.2417C99.0639 19.3467 99.0514 19.4396 99.0514 19.39H97.6514C97.6514 19.635 97.7082 19.949 97.9456 20.2013C98.1906 20.4615 98.5096 20.532 98.7674 20.532V19.132ZM99.0514 19.39V19.286H97.6514V19.39H99.0514ZM99.0514 19.286C99.0514 18.9813 98.942 18.6112 98.5842 18.3834C98.28 18.1898 97.934 18.1944 97.6848 18.2284L97.8739 19.6156C97.9285 19.6081 97.9494 19.6109 97.9454 19.6104C97.9407 19.6098 97.8939 19.6036 97.8326 19.5646C97.7649 19.5215 97.7109 19.4582 97.6793 19.3892C97.665 19.3581 97.6581 19.3318 97.6547 19.3141C97.6514 19.2966 97.6514 19.2865 97.6514 19.286H99.0514ZM97.6965 18.2269L89.8445 19.1629L90.0102 20.5531L97.8622 19.6171L97.6965 18.2269ZM89.8501 19.1623C89.5522 19.1954 89.3201 19.21 89.1474 19.21V20.61C89.3906 20.61 89.6785 20.59 90.0047 20.5537L89.8501 19.1623ZM89.1474 19.21C88.3539 19.21 87.8874 19.0121 87.6143 18.739C87.3413 18.4659 87.1434 17.9994 87.1434 17.206H85.7434C85.7434 18.2152 85.9962 19.1007 86.6244 19.729C87.2526 20.3572 88.1381 20.61 89.1474 20.61V19.21ZM87.1434 17.206V1.424H85.7434V17.206H87.1434ZM87.1434 1.424C87.1434 1.37435 87.1559 1.46733 87.0571 1.57226C86.9509 1.68515 86.8398 1.682 86.8594 1.682V0.282C86.6016 0.282 86.2826 0.352513 86.0376 0.612743C85.8002 0.865002 85.7434 1.17898 85.7434 1.424H87.1434ZM86.8594 1.682H88.0294V0.282H86.8594V1.682ZM88.0294 1.682C88.0489 1.682 87.9379 1.68515 87.8316 1.57226C87.7329 1.46733 87.7454 1.37435 87.7454 1.424H89.1454C89.1454 1.17898 89.0885 0.865002 88.8511 0.612743C88.6062 0.352513 88.2872 0.282 88.0294 0.282V1.682ZM87.7454 1.424V17.44H89.1454V1.424H87.7454ZM87.7454 17.44C87.7454 17.7166 87.8262 18.0463 88.1021 18.2932C88.3632 18.5267 88.6848 18.582 88.9394 18.582V17.182C88.8646 17.182 88.9392 17.1636 89.0356 17.2498C89.0848 17.2938 89.1159 17.3452 89.1322 17.389C89.147 17.4287 89.1454 17.4502 89.1454 17.44H87.7454ZM88.9414 18.582L98.0154 18.556L98.0114 17.156L88.9374 17.182L88.9414 18.582ZM98.0134 18.556C98.2679 18.556 98.5896 18.5007 98.8506 18.2672C99.1265 18.0203 99.2074 17.6906 99.2074 17.414H97.8074C97.8074 17.4242 97.8057 17.4027 97.8205 17.363C97.8369 17.3192 97.868 17.2678 97.9171 17.2238C98.0135 17.1376 98.0881 17.156 98.0134 17.156V18.556ZM114.188 19.39L113.524 19.6104L113.532 19.6338L113.541 19.6565L114.188 19.39ZM108.676 2.776L109.341 2.55558L109.338 2.54804L109.336 2.54056L108.676 2.776ZM110.002 1.45L110.664 1.22214L110.661 1.21313L110.658 1.20421L110.002 1.45ZM115.462 17.31L114.8 17.5379L114.803 17.5454L115.462 17.31ZM116.294 17.31L116.954 17.5455L116.956 17.5379L116.294 17.31ZM121.754 1.45L121.099 1.20421L121.096 1.21313L121.093 1.22214L121.754 1.45ZM123.08 2.776L122.421 2.54056L122.419 2.54804L122.416 2.55558L123.08 2.776ZM117.568 19.39L118.216 19.6565L118.225 19.6338L118.233 19.6104L117.568 19.39ZM116.996 19.132H114.76V20.532H116.996V19.132ZM114.76 19.132C114.762 19.132 114.776 19.1324 114.796 19.139C114.817 19.1459 114.836 19.1563 114.85 19.1676C114.878 19.1893 114.864 19.1929 114.836 19.1235L113.541 19.6565C113.634 19.8818 113.776 20.1064 113.994 20.2754C114.222 20.4515 114.489 20.532 114.76 20.532V19.132ZM114.853 19.1696L109.341 2.55558L108.012 2.99642L113.524 19.6104L114.853 19.1696ZM109.336 2.54056C109.267 2.34926 109.156 2.14063 108.968 1.9762C108.767 1.79969 108.519 1.712 108.26 1.712V3.112C108.233 3.112 108.194 3.10734 108.152 3.09159C108.109 3.0757 108.073 3.05299 108.046 3.0298C107.997 2.9867 107.999 2.96008 108.017 3.01143L109.336 2.54056ZM108.26 1.712C108.003 1.712 107.684 1.78251 107.439 2.04274C107.201 2.295 107.144 2.60898 107.144 2.854H108.544C108.544 2.80435 108.557 2.89733 108.458 3.00226C108.352 3.11515 108.241 3.112 108.26 3.112V1.712ZM107.144 2.854V19.39H108.544V2.854H107.144ZM107.144 19.39C107.144 19.4396 107.132 19.3467 107.231 19.2417C107.337 19.1288 107.448 19.132 107.428 19.132V20.532C107.686 20.532 108.005 20.4615 108.25 20.2013C108.488 19.949 108.544 19.635 108.544 19.39H107.144ZM107.428 19.132H106.362V20.532H107.428V19.132ZM106.362 19.132C106.343 19.132 106.454 19.1288 106.56 19.2417C106.659 19.3467 106.646 19.4396 106.646 19.39H105.246C105.246 19.635 105.303 19.949 105.541 20.2013C105.786 20.4615 106.105 20.532 106.362 20.532V19.132ZM106.646 19.39V1.476H105.246V19.39H106.646ZM106.646 1.476C106.646 1.42635 106.659 1.51933 106.56 1.62425C106.454 1.73715 106.343 1.734 106.362 1.734V0.333999C106.105 0.333999 105.786 0.404513 105.541 0.664744C105.303 0.917003 105.246 1.23098 105.246 1.476H106.646ZM106.362 1.734H109.482V0.333999H106.362V1.734ZM109.482 1.734C109.476 1.734 109.457 1.73293 109.43 1.72408C109.403 1.71497 109.377 1.70087 109.357 1.68461C109.318 1.65303 109.325 1.63694 109.347 1.69579L110.658 1.20421C110.576 0.985721 110.445 0.761636 110.232 0.591391C110.009 0.413326 109.747 0.333999 109.482 0.333999V1.734ZM109.341 1.67786L114.801 17.5379L116.124 17.0821L110.664 1.22214L109.341 1.67786ZM114.803 17.5454C114.872 17.7367 114.983 17.9454 115.17 18.1098C115.372 18.2863 115.62 18.374 115.878 18.374V16.974C115.906 16.974 115.944 16.9787 115.987 16.9944C116.03 17.0103 116.066 17.033 116.092 17.0562C116.142 17.0993 116.14 17.1259 116.122 17.0746L114.803 17.5454ZM115.878 18.374C116.137 18.374 116.385 18.2863 116.586 18.1098C116.774 17.9454 116.885 17.7367 116.954 17.5454L115.635 17.0746C115.617 17.1259 115.615 17.0993 115.664 17.0562C115.691 17.033 115.727 17.0103 115.77 16.9944C115.812 16.9787 115.851 16.974 115.878 16.974V18.374ZM116.956 17.5379L122.416 1.67786L121.093 1.22214L115.633 17.0821L116.956 17.5379ZM122.41 1.69579C122.432 1.63695 122.439 1.65303 122.4 1.68461C122.379 1.70087 122.354 1.71497 122.327 1.72408C122.3 1.73293 122.281 1.734 122.274 1.734V0.333999C122.01 0.333999 121.748 0.413326 121.525 0.591391C121.312 0.761635 121.181 0.98572 121.099 1.20421L122.41 1.69579ZM122.274 1.734H125.394V0.333999H122.274V1.734ZM125.394 1.734C125.414 1.734 125.303 1.73715 125.197 1.62425C125.098 1.51933 125.11 1.42635 125.11 1.476H126.51C126.51 1.23098 126.454 0.917003 126.216 0.664744C125.971 0.404513 125.652 0.333999 125.394 0.333999V1.734ZM125.11 1.476V19.39H126.51V1.476H125.11ZM125.11 19.39C125.11 19.4396 125.098 19.3467 125.197 19.2417C125.303 19.1288 125.414 19.132 125.394 19.132V20.532C125.652 20.532 125.971 20.4615 126.216 20.2013C126.454 19.949 126.51 19.635 126.51 19.39H125.11ZM125.394 19.132H124.328V20.532H125.394V19.132ZM124.328 19.132C124.309 19.132 124.42 19.1288 124.526 19.2417C124.625 19.3467 124.612 19.4396 124.612 19.39H123.212C123.212 19.635 123.269 19.949 123.507 20.2013C123.752 20.4615 124.071 20.532 124.328 20.532V19.132ZM124.612 19.39V2.854H123.212V19.39H124.612ZM124.612 2.854C124.612 2.60898 124.556 2.295 124.318 2.04274C124.073 1.78251 123.754 1.712 123.496 1.712V3.112C123.516 3.112 123.405 3.11515 123.299 3.00225C123.2 2.89733 123.212 2.80435 123.212 2.854H124.612ZM123.496 1.712C123.238 1.712 122.99 1.79969 122.788 1.9762C122.601 2.14063 122.49 2.34926 122.421 2.54056L123.74 3.01143C123.758 2.96008 123.76 2.9867 123.71 3.0298C123.684 3.05299 123.648 3.0757 123.605 3.09159C123.562 3.10734 123.524 3.112 123.496 3.112V1.712ZM122.416 2.55558L116.904 19.1696L118.233 19.6104L123.745 2.99642L122.416 2.55558ZM116.921 19.1235C116.893 19.1929 116.878 19.1893 116.906 19.1676C116.921 19.1563 116.94 19.1459 116.961 19.139C116.981 19.1324 116.995 19.132 116.996 19.132V20.532C117.268 20.532 117.535 20.4515 117.762 20.2754C117.981 20.1064 118.123 19.8818 118.216 19.6565L116.921 19.1235ZM22.2616 47.532L22.6098 48.1392L22.6168 48.1352L22.6237 48.131L22.2616 47.532ZM20.4936 48.546L20.8066 49.1721L20.8245 49.1632L20.8418 49.1532L20.4936 48.546ZM11.6536 31.334L11.3053 30.7268L11.2983 30.7308L11.2914 30.735L11.6536 31.334ZM13.4216 30.32L13.1085 29.6939L13.0906 29.7028L13.0733 29.7128L13.4216 30.32ZM12.9536 39.132H20.1556V37.732H12.9536V39.132ZM20.1556 39.132C21.1195 39.132 21.7145 39.376 22.0746 39.742C22.4369 40.1101 22.6796 40.7211 22.6796 41.708H24.0796C24.0796 40.5109 23.7849 39.4839 23.0725 38.76C22.358 38.034 21.341 37.732 20.1556 37.732V39.132ZM22.6796 41.708V45.478H24.0796V41.708H22.6796ZM22.6796 45.478C22.6796 46.1679 22.4214 46.6173 21.8994 46.933L22.6237 48.131C23.5924 47.5453 24.0796 46.6254 24.0796 45.478H22.6796ZM21.9133 46.9248L20.1453 47.9388L20.8418 49.1532L22.6098 48.1392L21.9133 46.9248ZM20.1805 47.9199C19.9056 48.0574 19.5897 48.132 19.2196 48.132V49.532C19.7854 49.532 20.3189 49.416 20.8066 49.1721L20.1805 47.9199ZM19.2196 48.132H11.4196V49.532H19.2196V48.132ZM11.4196 48.132C11.4 48.132 11.511 48.1288 11.6173 48.2417C11.716 48.3467 11.7036 48.4396 11.7036 48.39H10.3036C10.3036 48.635 10.3604 48.949 10.5978 49.2013C10.8427 49.4615 11.1618 49.532 11.4196 49.532V48.132ZM11.7036 48.39V47.584H10.3036V48.39H11.7036ZM11.7036 47.584C11.7036 47.5344 11.716 47.6273 11.6173 47.7323C11.511 47.8452 11.4 47.842 11.4196 47.842V46.442C11.1618 46.442 10.8427 46.5125 10.5978 46.7727C10.3604 47.025 10.3036 47.339 10.3036 47.584H11.7036ZM11.4196 47.842H20.9616V46.442H11.4196V47.842ZM20.9616 47.842C21.2081 47.842 21.5216 47.7799 21.7685 47.533C22.0154 47.2861 22.0776 46.9726 22.0776 46.726H20.6776C20.6776 46.7568 20.6703 46.6513 20.7786 46.543C20.8868 46.4348 20.9923 46.442 20.9616 46.442V47.842ZM22.0776 46.726V40.512H20.6776V46.726H22.0776ZM22.0776 40.512C22.0776 40.2654 22.0154 39.9519 21.7685 39.705C21.5216 39.4581 21.2081 39.396 20.9616 39.396V40.796C20.9923 40.796 20.8868 40.8032 20.7786 40.695C20.6703 40.5867 20.6776 40.4812 20.6776 40.512H22.0776ZM20.9616 39.396H13.7596V40.796H20.9616V39.396ZM13.7596 39.396C12.7957 39.396 12.2007 39.152 11.8405 38.786C11.4783 38.4179 11.2356 37.8069 11.2356 36.82H9.83555C9.83555 38.0171 10.1302 39.0441 10.8426 39.768C11.5571 40.494 12.5741 40.796 13.7596 40.796V39.396ZM11.2356 36.82V33.388H9.83555V36.82H11.2356ZM11.2356 33.388C11.2356 32.6981 11.4937 32.2487 12.0157 31.933L11.2914 30.735C10.3228 31.3207 9.83555 32.2406 9.83555 33.388H11.2356ZM12.0018 31.9412L13.7698 30.9272L13.0733 29.7128L11.3053 30.7268L12.0018 31.9412ZM13.7346 30.9461C14.0095 30.8086 14.3254 30.734 14.6956 30.734V29.334C14.1297 29.334 13.5962 29.45 13.1085 29.6939L13.7346 30.9461ZM14.6956 30.734H22.2096V29.334H14.6956V30.734ZM22.2096 30.734C22.2291 30.734 22.1181 30.7372 22.0118 30.6243C21.9131 30.5193 21.9256 30.4264 21.9256 30.476H23.3256C23.3256 30.231 23.2687 29.917 23.0313 29.6647C22.7864 29.4045 22.4673 29.334 22.2096 29.334V30.734ZM21.9256 30.476V31.282H23.3256V30.476H21.9256ZM21.9256 31.282C21.9256 31.3316 21.9131 31.2387 22.0118 31.1337C22.1181 31.0208 22.2291 31.024 22.2096 31.024V32.424C22.4673 32.424 22.7864 32.3535 23.0313 32.0933C23.2687 31.841 23.3256 31.527 23.3256 31.282H21.9256ZM22.2096 31.024H12.9536V32.424H22.2096V31.024ZM12.9536 31.024C12.707 31.024 12.3935 31.0861 12.1466 31.333C11.8997 31.5799 11.8376 31.8934 11.8376 32.14H13.2376C13.2376 32.1092 13.2448 32.2147 13.1365 32.323C13.0283 32.4312 12.9228 32.424 12.9536 32.424V31.024ZM11.8376 32.14V38.016H13.2376V32.14H11.8376ZM11.8376 38.016C11.8376 38.2626 11.8997 38.5761 12.1466 38.823C12.3935 39.0699 12.707 39.132 12.9536 39.132V37.732C12.9228 37.732 13.0283 37.7248 13.1365 37.833C13.2448 37.9413 13.2376 38.0468 13.2376 38.016H11.8376ZM28.7071 31.334L28.3589 30.7268L28.3518 30.7308L28.3449 30.735L28.7071 31.334ZM30.4751 30.32L30.1621 29.6939L30.1442 29.7028L30.1269 29.7128L30.4751 30.32ZM39.5231 47.948L39.2101 47.3219L39.1965 47.3287L39.1832 47.3361L39.5231 47.948ZM38.3531 48.598L38.6807 49.2168L38.6931 49.2099L38.3531 48.598ZM28.2891 45.556V33.388H26.8891V45.556H28.2891ZM28.2891 33.388C28.2891 32.6981 28.5473 32.2487 29.0693 31.933L28.3449 30.735C27.3763 31.3207 26.8891 32.2406 26.8891 33.388H28.2891ZM29.0554 31.9412L30.8234 30.9272L30.1269 29.7128L28.3589 30.7268L29.0554 31.9412ZM30.7882 30.9461C31.0631 30.8086 31.379 30.734 31.7491 30.734V29.334C31.1832 29.334 30.6498 29.45 30.1621 29.6939L30.7882 30.9461ZM31.7491 30.734H39.2631V29.334H31.7491V30.734ZM39.2631 30.734C39.2827 30.734 39.1716 30.7372 39.0654 30.6243C38.9666 30.5193 38.9791 30.4264 38.9791 30.476H40.3791C40.3791 30.231 40.3223 29.917 40.0849 29.6647C39.8399 29.4045 39.5209 29.334 39.2631 29.334V30.734ZM38.9791 30.476V31.256H40.3791V30.476H38.9791ZM38.9791 31.256C38.9791 31.3056 38.9666 31.2127 39.0654 31.1077C39.1716 30.9948 39.2827 30.998 39.2631 30.998V32.398C39.5209 32.398 39.8399 32.3275 40.0849 32.0673C40.3223 31.815 40.3791 31.501 40.3791 31.256H38.9791ZM39.2631 30.998H29.9811V32.398H39.2631V30.998ZM29.9811 30.998C29.7345 30.998 29.4211 31.0601 29.1741 31.307C28.9272 31.5539 28.8651 31.8674 28.8651 32.114H30.2651C30.2651 32.0832 30.2723 32.1887 30.1641 32.297C30.0559 32.4052 29.9504 32.398 29.9811 32.398V30.998ZM28.8651 32.114V37.912H30.2651V32.114H28.8651ZM28.8651 37.912C28.8651 38.1886 28.946 38.5183 29.2219 38.7652C29.4829 38.9987 29.8046 39.054 30.0591 39.054V37.654C29.9843 37.654 30.059 37.6356 30.1554 37.7218C30.2045 37.7658 30.2356 37.8172 30.2519 37.861C30.2667 37.9007 30.2651 37.9222 30.2651 37.912H28.8651ZM30.0591 39.054H38.6651V37.654H30.0591V39.054ZM38.6651 39.054C38.6847 39.054 38.5736 39.0572 38.4674 38.9443C38.3686 38.8393 38.3811 38.7464 38.3811 38.796H39.7811C39.7811 38.551 39.7243 38.237 39.4869 37.9847C39.2419 37.7245 38.9229 37.654 38.6651 37.654V39.054ZM38.3811 38.796V39.55H39.7811V38.796H38.3811ZM38.3811 39.55C38.3811 39.5996 38.3686 39.5067 38.4674 39.4017C38.5736 39.2888 38.6847 39.292 38.6651 39.292V40.692C38.9229 40.692 39.2419 40.6215 39.4869 40.3613C39.7243 40.109 39.7811 39.795 39.7811 39.55H38.3811ZM38.6651 39.292H30.0591V40.692H38.6651V39.292ZM30.0591 39.292C29.8046 39.292 29.4829 39.3473 29.2219 39.5808C28.946 39.8277 28.8651 40.1574 28.8651 40.434H30.2651C30.2651 40.4238 30.2667 40.4453 30.2519 40.485C30.2356 40.5288 30.2045 40.5802 30.1554 40.6242C30.059 40.7104 29.9843 40.692 30.0591 40.692V39.292ZM28.8651 40.434V46.752H30.2651V40.434H28.8651ZM28.8651 46.752C28.8651 46.9986 28.9272 47.3121 29.1741 47.559C29.4211 47.8059 29.7345 47.868 29.9811 47.868V46.468C29.9504 46.468 30.0558 46.4608 30.1641 46.569C30.2723 46.6773 30.2651 46.7828 30.2651 46.752H28.8651ZM29.9811 47.868H39.4711V46.468H29.9811V47.868ZM39.4711 47.868C39.5087 47.868 39.4062 47.8784 39.2886 47.7775C39.1502 47.6589 39.1351 47.5145 39.1351 47.48H40.5351C40.5351 47.2375 40.4593 46.9371 40.1997 46.7145C39.9607 46.5096 39.6762 46.468 39.4711 46.468V47.868ZM39.1351 47.48C39.1351 47.4733 39.136 47.4568 39.1426 47.4339C39.1493 47.4105 39.1601 47.3865 39.1747 47.3647C39.2047 47.3197 39.231 47.3114 39.2101 47.3219L39.8362 48.5741C40.0232 48.4806 40.2055 48.3423 40.3396 48.1413C40.4765 47.9359 40.5351 47.7065 40.5351 47.48H39.1351ZM39.1832 47.3361L38.0132 47.9861L38.6931 49.2099L39.8631 48.5599L39.1832 47.3361ZM38.0256 47.9793C37.8575 48.0683 37.6134 48.132 37.2611 48.132V49.532C37.7755 49.532 38.2594 49.4397 38.6806 49.2167L38.0256 47.9793ZM37.2611 48.132H30.8131V49.532H37.2611V48.132ZM30.8131 48.132C29.8492 48.132 29.2542 47.888 28.894 47.522C28.5318 47.1539 28.2891 46.5429 28.2891 45.556H26.8891C26.8891 46.7531 27.1838 47.7801 27.8962 48.504C28.6107 49.23 29.6277 49.532 30.8131 49.532V48.132ZM56.3256 39.42L56.6774 40.0253L56.6878 40.019L56.3256 39.42ZM54.4016 40.538L54.0499 39.9328L54.0313 39.9436L54.0133 39.9556L54.4016 40.538ZM54.2716 41.162L54.8756 40.8082L54.8596 40.7809L54.8412 40.7551L54.2716 41.162ZM58.5356 48.442L59.1533 48.1126L59.1467 48.1003L59.1396 48.0882L58.5356 48.442ZM56.2736 48.442L56.9079 48.146L56.8958 48.1199L56.8815 48.0949L56.2736 48.442ZM52.0876 41.11L51.47 41.4394L51.4747 41.4483L51.4797 41.4571L52.0876 41.11ZM47.0436 30.97L46.9497 30.2763L46.949 30.2764L47.0436 30.97ZM53.9596 30.034L53.8823 29.3383L53.874 29.3392L53.8657 29.3403L53.9596 30.034ZM56.1676 38.718V32.452H54.7676V38.718H56.1676ZM56.1676 32.452C56.1676 32.1794 56.099 31.8464 55.8391 31.5865C55.5792 31.3266 55.2462 31.258 54.9736 31.258V32.658C55.0304 32.658 54.9444 32.6717 54.8491 32.5765C54.7539 32.4812 54.7676 32.3952 54.7676 32.452H56.1676ZM54.9736 31.258H46.9136V32.658H54.9736V31.258ZM46.9136 31.258C46.6591 31.258 46.3374 31.3133 46.0764 31.5468C45.8005 31.7937 45.7196 32.1234 45.7196 32.4H47.1196C47.1196 32.3898 47.1212 32.4113 47.1064 32.451C47.0901 32.4948 47.059 32.5462 47.0099 32.5902C46.9135 32.6764 46.8388 32.658 46.9136 32.658V31.258ZM45.7196 32.4V38.692H47.1196V32.4H45.7196ZM45.7196 38.692C45.7196 38.937 45.7765 39.251 46.0139 39.5033C46.2588 39.7635 46.5778 39.834 46.8356 39.834V38.434C46.8161 38.434 46.9271 38.4308 47.0334 38.5437C47.1321 38.6487 47.1196 38.7416 47.1196 38.692H45.7196ZM46.8356 39.834H55.0516V38.434H46.8356V39.834ZM55.0516 39.834C55.2982 39.834 55.6117 39.7719 55.8586 39.525C56.1055 39.2781 56.1676 38.9646 56.1676 38.718H54.7676C54.7676 38.7488 54.7604 38.6433 54.8686 38.535C54.9769 38.4268 55.0824 38.434 55.0516 38.434V39.834ZM55.9739 38.8148L54.0499 39.9328L54.7533 41.1432L56.6773 40.0252L55.9739 38.8148ZM54.0133 39.9556C53.802 40.0965 53.5624 40.3279 53.4888 40.6812C53.4133 41.0436 53.5488 41.3544 53.702 41.5689L54.8412 40.7551C54.8211 40.7269 54.8916 40.8124 54.8594 40.9668C54.8291 41.1121 54.7413 41.1529 54.7899 41.1204L54.0133 39.9556ZM53.6676 41.5158L57.9316 48.7958L59.1396 48.0882L54.8756 40.8082L53.6676 41.5158ZM57.918 48.7714C57.9332 48.8 57.9202 48.7847 57.9114 48.7351C57.9021 48.6824 57.8917 48.5519 57.97 48.4051C58.0518 48.2517 58.177 48.1799 58.2508 48.1522C58.315 48.1281 58.3507 48.132 58.3276 48.132V49.532C58.4983 49.532 58.9705 49.5042 59.2053 49.0639C59.3182 48.8521 59.3165 48.6403 59.2898 48.4901C59.2637 48.343 59.2073 48.214 59.1533 48.1126L57.918 48.7714ZM58.3276 48.132H56.9236V49.532H58.3276V48.132ZM56.9236 48.132C56.8939 48.132 56.8788 48.1289 56.8746 48.1279C56.8727 48.1274 56.8733 48.1274 56.8758 48.1284C56.8785 48.1295 56.8824 48.1314 56.8873 48.1343C56.8921 48.1372 56.8969 48.1406 56.9014 48.1444C56.9059 48.1481 56.9092 48.1516 56.9115 48.1542C56.9161 48.1596 56.9139 48.1587 56.9079 48.146L55.6393 48.738C55.7507 48.9768 55.9232 49.1885 56.167 49.3347C56.407 49.4788 56.6704 49.532 56.9236 49.532V48.132ZM56.8815 48.0949L52.6955 40.7629L51.4797 41.4571L55.6657 48.7891L56.8815 48.0949ZM52.7053 40.7806C52.5863 40.5575 52.4154 40.3577 52.1813 40.2173C51.9472 40.0768 51.6905 40.02 51.4376 40.02V41.42C51.4598 41.42 51.4701 41.4224 51.4715 41.4228C51.4723 41.423 51.4678 41.4218 51.461 41.4177C51.4542 41.4137 51.451 41.4102 51.4516 41.4108C51.4525 41.4119 51.4595 41.4198 51.47 41.4394L52.7053 40.7806ZM51.4376 40.02H46.9136V41.42H51.4376V40.02ZM46.9136 40.02C46.6591 40.02 46.3374 40.0753 46.0764 40.3088C45.8005 40.5557 45.7196 40.8854 45.7196 41.162H47.1196C47.1196 41.1518 47.1212 41.1733 47.1064 41.213C47.0901 41.2568 47.059 41.3082 47.0099 41.3522C46.9135 41.4384 46.8388 41.42 46.9136 41.42V40.02ZM45.7196 41.162V48.39H47.1196V41.162H45.7196ZM45.7196 48.39C45.7196 48.4396 45.7071 48.3467 45.8059 48.2417C45.9121 48.1288 46.0232 48.132 46.0036 48.132V49.532C46.2614 49.532 46.5804 49.4615 46.8254 49.2013C47.0628 48.949 47.1196 48.635 47.1196 48.39H45.7196ZM46.0036 48.132H44.8596V49.532H46.0036V48.132ZM44.8596 48.132C44.8401 48.132 44.9511 48.1288 45.0574 48.2417C45.1561 48.3467 45.1436 48.4396 45.1436 48.39H43.7436C43.7436 48.635 43.8005 48.949 44.0379 49.2013C44.2828 49.4615 44.6018 49.532 44.8596 49.532V48.132ZM45.1436 48.39V30.424H43.7436V48.39H45.1436ZM45.1436 30.424C45.1436 30.3846 45.153 30.4836 45.0491 30.5875C44.9452 30.6914 44.8462 30.682 44.8856 30.682V29.282C44.6304 29.282 44.3104 29.3463 44.0591 29.5975C43.8079 29.8488 43.7436 30.1688 43.7436 30.424H45.1436ZM44.8856 30.682H46.0556V29.282H44.8856V30.682ZM46.0556 30.682C46.0752 30.682 45.9641 30.6852 45.8579 30.5723C45.7591 30.4673 45.7716 30.3744 45.7716 30.424H47.1716C47.1716 30.179 47.1148 29.865 46.8774 29.6127C46.6324 29.3525 46.3134 29.282 46.0556 29.282V30.682ZM45.7716 30.424V30.606H47.1716V30.424H45.7716ZM45.7716 30.606C45.7716 30.9107 45.881 31.2808 46.2388 31.5086C46.543 31.7022 46.889 31.6976 47.1382 31.6636L46.949 30.2764C46.8945 30.2839 46.8736 30.2811 46.8776 30.2816C46.8823 30.2822 46.9291 30.2884 46.9904 30.3274C47.0581 30.3705 47.1121 30.4338 47.1437 30.5028C47.158 30.5339 47.1649 30.5602 47.1683 30.5779C47.1716 30.5954 47.1716 30.6055 47.1716 30.606H45.7716ZM47.1375 31.6637L54.0535 30.7277L53.8657 29.3403L46.9497 30.2763L47.1375 31.6637ZM54.0369 30.7297C54.3348 30.6966 54.5669 30.682 54.7396 30.682V29.282C54.4964 29.282 54.2085 29.302 53.8823 29.3383L54.0369 30.7297ZM54.7396 30.682C55.533 30.682 55.9996 30.8799 56.2726 31.153C56.5457 31.4261 56.7436 31.8926 56.7436 32.686H58.1436C58.1436 31.6768 57.8908 30.7913 57.2626 30.163C56.6343 29.5348 55.7489 29.282 54.7396 29.282V30.682ZM56.7436 32.686V37.366H58.1436V32.686H56.7436ZM56.7436 37.366C56.7436 38.0559 56.4855 38.5053 55.9634 38.821L56.6878 40.019C57.6564 39.4333 58.1436 38.5134 58.1436 37.366H56.7436ZM63.0115 30.45L63.6801 30.2426L63.6728 30.2192L63.6639 30.1963L63.0115 30.45ZM68.2375 47.298L67.5689 47.5054L67.5711 47.5124L67.5734 47.5194L68.2375 47.298ZM68.9395 47.298L69.5791 47.5823L69.5959 47.5447L69.6081 47.5054L68.9395 47.298ZM74.1655 30.45L73.5131 30.1963L73.5042 30.2192L73.4969 30.2426L74.1655 30.45ZM76.4535 30.45L75.7894 30.2286L75.788 30.233L76.4535 30.45ZM70.6035 48.39L71.2636 48.623L71.2664 48.615L71.269 48.607L70.6035 48.39ZM66.5735 48.39L67.245 48.1925L67.2422 48.1827L67.239 48.173L66.5735 48.39ZM60.7235 30.45L61.389 30.233L61.3876 30.2286L60.7235 30.45ZM62.3429 30.6574L67.5689 47.5054L68.9061 47.0906L63.6801 30.2426L62.3429 30.6574ZM67.5734 47.5194C67.6374 47.7115 67.7583 47.9076 67.9625 48.049C68.1636 48.1882 68.3842 48.232 68.5755 48.232V46.832C68.5934 46.832 68.6711 46.8368 68.7594 46.898C68.851 46.9614 68.8895 47.0405 68.9016 47.0766L67.5734 47.5194ZM68.5755 48.232C68.769 48.232 68.9804 48.1874 69.175 48.0623C69.3703 47.9368 69.4994 47.7618 69.5791 47.5823L68.2998 47.0137C68.3103 46.9902 68.344 46.9322 68.4179 46.8847C68.4912 46.8376 68.5553 46.832 68.5755 46.832V48.232ZM69.6081 47.5054L74.8341 30.6574L73.4969 30.2426L68.2709 47.0906L69.6081 47.5054ZM74.8179 30.7037C74.8289 30.6753 74.8373 30.6635 74.8385 30.6619C74.839 30.6611 74.8381 30.6625 74.8354 30.6652C74.8326 30.6679 74.8287 30.6712 74.8239 30.6745C74.8191 30.6779 74.8144 30.6805 74.8103 30.6824C74.8062 30.6843 74.8037 30.685 74.8035 30.6851C74.8031 30.6852 74.8142 30.682 74.8415 30.682V29.282C74.5637 29.282 74.2787 29.3492 74.027 29.5235C73.7762 29.6971 73.613 29.9392 73.5131 30.1963L74.8179 30.7037ZM74.8415 30.682H76.1155V29.282H74.8415V30.682ZM76.1155 30.682C76.1481 30.682 76.1321 30.6866 76.0889 30.6713C76.0395 30.6539 75.9515 30.6085 75.8795 30.5088C75.8075 30.4091 75.792 30.3111 75.791 30.2582C75.7901 30.2121 75.7996 30.198 75.7894 30.2286L77.1176 30.6714C77.1909 30.4512 77.2737 30.0481 77.0145 29.6892C76.7556 29.3307 76.3473 29.282 76.1155 29.282V30.682ZM75.788 30.233L69.938 48.173L71.269 48.607L77.119 30.667L75.788 30.233ZM69.9434 48.157C69.9377 48.1731 69.9353 48.1733 69.9414 48.1651C69.9444 48.1612 69.9488 48.156 69.9547 48.1504C69.9606 48.1449 69.967 48.1398 69.9734 48.1356C69.987 48.1268 69.9947 48.1253 69.9901 48.1265C69.9845 48.1279 69.9652 48.132 69.9275 48.132V49.532C70.1981 49.532 70.4844 49.4742 70.7396 49.3074C71.0007 49.1366 71.169 48.8909 71.2636 48.623L69.9434 48.157ZM69.9275 48.132H67.1715V49.532H69.9275V48.132ZM67.1715 48.132C67.148 48.132 67.1436 48.1292 67.1524 48.1317C67.1626 48.1347 67.1821 48.1424 67.2041 48.1586C67.2261 48.1748 67.2402 48.1921 67.2473 48.2031C67.2537 48.2129 67.2508 48.212 67.245 48.1925L65.9019 48.5875C65.9778 48.8456 66.1226 49.1002 66.3719 49.2844C66.6201 49.4679 66.9049 49.532 67.1715 49.532V48.132ZM67.239 48.173L61.389 30.233L60.058 30.667L65.908 48.607L67.239 48.173ZM61.3876 30.2286C61.3773 30.198 61.3868 30.2121 61.386 30.2582C61.385 30.3111 61.3695 30.4091 61.2975 30.5088C61.2255 30.6085 61.1375 30.6539 61.0881 30.6713C61.0449 30.6866 61.0289 30.682 61.0615 30.682V29.282C60.8296 29.282 60.4214 29.3307 60.1625 29.6892C59.9033 30.0481 59.986 30.4512 60.0594 30.6714L61.3876 30.2286ZM61.0615 30.682H62.3355V29.282H61.0615V30.682ZM62.3355 30.682C62.3627 30.682 62.3739 30.6852 62.3735 30.6851C62.3732 30.685 62.3708 30.6843 62.3667 30.6824C62.3626 30.6805 62.3578 30.6779 62.353 30.6745C62.3482 30.6712 62.3444 30.6679 62.3416 30.6652C62.3389 30.6625 62.3379 30.6611 62.3385 30.6619C62.3397 30.6635 62.348 30.6753 62.3591 30.7037L63.6639 30.1963C63.5639 29.9392 63.4007 29.6971 63.1499 29.5235C62.8982 29.3492 62.6133 29.282 62.3355 29.282V30.682ZM80.859 30.424V48.39H82.259V30.424H80.859ZM80.859 48.39C80.859 48.4396 80.8465 48.3467 80.9453 48.2417C81.0515 48.1288 81.1626 48.132 81.143 48.132V49.532C81.4008 49.532 81.7198 49.4615 81.9648 49.2013C82.2022 48.949 82.259 48.635 82.259 48.39H80.859ZM81.143 48.132H79.947V49.532H81.143V48.132ZM79.947 48.132C79.9275 48.132 80.0385 48.1288 80.1448 48.2417C80.2435 48.3467 80.231 48.4396 80.231 48.39H78.831C78.831 48.635 78.8879 48.949 79.1253 49.2013C79.3702 49.4615 79.6892 49.532 79.947 49.532V48.132ZM80.231 48.39V30.424H78.831V48.39H80.231ZM80.231 30.424C80.231 30.3744 80.2435 30.4673 80.1448 30.5723C80.0385 30.6852 79.9275 30.682 79.947 30.682V29.282C79.6892 29.282 79.3702 29.3525 79.1253 29.6127C78.8879 29.865 78.831 30.179 78.831 30.424H80.231ZM79.947 30.682H81.143V29.282H79.947V30.682ZM81.143 30.682C81.1626 30.682 81.0515 30.6852 80.9453 30.5723C80.8465 30.4673 80.859 30.3744 80.859 30.424H82.259C82.259 30.179 82.2022 29.865 81.9648 29.6127C81.7198 29.3525 81.4008 29.282 81.143 29.282V30.682ZM99.1929 47.948L98.8799 47.3219L98.8663 47.3287L98.853 47.3361L99.1929 47.948ZM98.0229 48.598L98.3505 49.2168L98.3629 49.2099L98.0229 48.598ZM88.0649 31.334L87.7167 30.7268L87.7096 30.7308L87.7027 30.735L88.0649 31.334ZM89.8329 30.32L89.5199 29.6939L89.502 29.7028L89.4847 29.7128L89.8329 30.32ZM88.2489 32.114V46.752H89.6489V32.114H88.2489ZM88.2489 46.752C88.2489 46.9986 88.311 47.3121 88.5579 47.559C88.8048 47.8059 89.1183 47.868 89.3649 47.868V46.468C89.3341 46.468 89.4396 46.4608 89.5479 46.569C89.6561 46.6773 89.6489 46.7828 89.6489 46.752H88.2489ZM89.3649 47.868H99.1409V46.468H89.3649V47.868ZM99.1409 47.868C99.1785 47.868 99.076 47.8784 98.9584 47.7775C98.82 47.6589 98.8049 47.5145 98.8049 47.48H100.205C100.205 47.2375 100.129 46.9371 99.8695 46.7145C99.6305 46.5096 99.346 46.468 99.1409 46.468V47.868ZM98.8049 47.48C98.8049 47.4733 98.8058 47.4568 98.8123 47.4339C98.819 47.4105 98.8299 47.3865 98.8445 47.3647C98.8745 47.3197 98.9008 47.3114 98.8799 47.3219L99.506 48.5741C99.693 48.4806 99.8753 48.3423 100.009 48.1413C100.146 47.9359 100.205 47.7065 100.205 47.48H98.8049ZM98.853 47.3361L97.683 47.9861L98.3629 49.2099L99.5329 48.5599L98.853 47.3361ZM97.6954 47.9793C97.5273 48.0683 97.2832 48.132 96.9309 48.132V49.532C97.4453 49.532 97.9292 49.4397 98.3504 49.2167L97.6954 47.9793ZM96.9309 48.132H90.1709V49.532H96.9309V48.132ZM90.1709 48.132C89.207 48.132 88.612 47.888 88.2518 47.522C87.8896 47.1539 87.6469 46.5429 87.6469 45.556H86.2469C86.2469 46.7531 86.5415 47.7801 87.254 48.504C87.9685 49.23 88.9855 49.532 90.1709 49.532V48.132ZM87.6469 45.556V33.388H86.2469V45.556H87.6469ZM87.6469 33.388C87.6469 32.6981 87.905 32.2487 88.4271 31.933L87.7027 30.735C86.7341 31.3207 86.2469 32.2406 86.2469 33.388H87.6469ZM88.4132 31.9412L90.1812 30.9272L89.4847 29.7128L87.7167 30.7268L88.4132 31.9412ZM90.146 30.9461C90.4209 30.8086 90.7368 30.734 91.1069 30.734V29.334C90.541 29.334 90.0076 29.45 89.5199 29.6939L90.146 30.9461ZM91.1069 30.734H98.9329V29.334H91.1069V30.734ZM98.9329 30.734C98.9525 30.734 98.8414 30.7372 98.7352 30.6243C98.6364 30.5193 98.6489 30.4264 98.6489 30.476H100.049C100.049 30.231 99.9921 29.917 99.7547 29.6647C99.5097 29.4045 99.1907 29.334 98.9329 29.334V30.734ZM98.6489 30.476V31.256H100.049V30.476H98.6489ZM98.6489 31.256C98.6489 31.3056 98.6364 31.2127 98.7352 31.1077C98.8414 30.9948 98.9525 30.998 98.9329 30.998V32.398C99.1907 32.398 99.5097 32.3275 99.7547 32.0673C99.9921 31.815 100.049 31.501 100.049 31.256H98.6489ZM98.9329 30.998H89.3649V32.398H98.9329V30.998ZM89.3649 30.998C89.1183 30.998 88.8048 31.0601 88.5579 31.307C88.311 31.5539 88.2489 31.8674 88.2489 32.114H89.6489C89.6489 32.0832 89.6561 32.1887 89.5479 32.297C89.4396 32.4052 89.3341 32.398 89.3649 32.398V30.998ZM105.006 31.334L104.658 30.7268L104.651 30.7308L104.644 30.735L105.006 31.334ZM106.774 30.32L106.461 29.6939L106.443 29.7028L106.426 29.7128L106.774 30.32ZM115.822 47.948L115.509 47.3219L115.495 47.3287L115.482 47.3361L115.822 47.948ZM114.652 48.598L114.98 49.2168L114.992 49.2099L114.652 48.598ZM104.588 45.556V33.388H103.188V45.556H104.588ZM104.588 33.388C104.588 32.6981 104.846 32.2487 105.368 31.933L104.644 30.735C103.675 31.3207 103.188 32.2406 103.188 33.388H104.588ZM105.354 31.9412L107.122 30.9272L106.426 29.7128L104.658 30.7268L105.354 31.9412ZM107.087 30.9461C107.362 30.8086 107.678 30.734 108.048 30.734V29.334C107.482 29.334 106.949 29.45 106.461 29.6939L107.087 30.9461ZM108.048 30.734H115.562V29.334H108.048V30.734ZM115.562 30.734C115.581 30.734 115.47 30.7372 115.364 30.6243C115.265 30.5193 115.278 30.4264 115.278 30.476H116.678C116.678 30.231 116.621 29.917 116.384 29.6647C116.139 29.4045 115.82 29.334 115.562 29.334V30.734ZM115.278 30.476V31.256H116.678V30.476H115.278ZM115.278 31.256C115.278 31.3056 115.265 31.2127 115.364 31.1077C115.47 30.9948 115.581 30.998 115.562 30.998V32.398C115.82 32.398 116.139 32.3275 116.384 32.0673C116.621 31.815 116.678 31.501 116.678 31.256H115.278ZM115.562 30.998H106.28V32.398H115.562V30.998ZM106.28 30.998C106.033 30.998 105.72 31.0601 105.473 31.307C105.226 31.5539 105.164 31.8674 105.164 32.114H106.564C106.564 32.0832 106.571 32.1887 106.463 32.297C106.355 32.4052 106.249 32.398 106.28 32.398V30.998ZM105.164 32.114V37.912H106.564V32.114H105.164ZM105.164 37.912C105.164 38.1886 105.245 38.5183 105.521 38.7652C105.782 38.9987 106.103 39.054 106.358 39.054V37.654C106.283 37.654 106.358 37.6356 106.454 37.7218C106.503 37.7658 106.534 37.8172 106.551 37.861C106.566 37.9007 106.564 37.9222 106.564 37.912H105.164ZM106.358 39.054H114.964V37.654H106.358V39.054ZM114.964 39.054C114.983 39.054 114.872 39.0572 114.766 38.9443C114.667 38.8393 114.68 38.7464 114.68 38.796H116.08C116.08 38.551 116.023 38.237 115.786 37.9847C115.541 37.7245 115.222 37.654 114.964 37.654V39.054ZM114.68 38.796V39.55H116.08V38.796H114.68ZM114.68 39.55C114.68 39.5996 114.667 39.5067 114.766 39.4017C114.872 39.2888 114.983 39.292 114.964 39.292V40.692C115.222 40.692 115.541 40.6215 115.786 40.3613C116.023 40.109 116.08 39.795 116.08 39.55H114.68ZM114.964 39.292H106.358V40.692H114.964V39.292ZM106.358 39.292C106.103 39.292 105.782 39.3473 105.521 39.5808C105.245 39.8277 105.164 40.1574 105.164 40.434H106.564C106.564 40.4238 106.566 40.4453 106.551 40.485C106.534 40.5288 106.503 40.5802 106.454 40.6242C106.358 40.7104 106.283 40.692 106.358 40.692V39.292ZM105.164 40.434V46.752H106.564V40.434H105.164ZM105.164 46.752C105.164 46.9986 105.226 47.3121 105.473 47.559C105.72 47.8059 106.033 47.868 106.28 47.868V46.468C106.249 46.468 106.355 46.4608 106.463 46.569C106.571 46.6773 106.564 46.7828 106.564 46.752H105.164ZM106.28 47.868H115.77V46.468H106.28V47.868ZM115.77 47.868C115.808 47.868 115.705 47.8784 115.587 47.7775C115.449 47.6589 115.434 47.5145 115.434 47.48H116.834C116.834 47.2375 116.758 46.9371 116.499 46.7145C116.259 46.5096 115.975 46.468 115.77 46.468V47.868ZM115.434 47.48C115.434 47.4733 115.435 47.4568 115.441 47.4339C115.448 47.4105 115.459 47.3865 115.474 47.3647C115.504 47.3197 115.53 47.3114 115.509 47.3219L116.135 48.5741C116.322 48.4806 116.504 48.3423 116.638 48.1413C116.775 47.9359 116.834 47.7065 116.834 47.48H115.434ZM115.482 47.3361L114.312 47.9861L114.992 49.2099L116.162 48.5599L115.482 47.3361ZM114.324 47.9793C114.156 48.0683 113.912 48.132 113.56 48.132V49.532C114.074 49.532 114.558 49.4397 114.979 49.2167L114.324 47.9793ZM113.56 48.132H107.112V49.532H113.56V48.132ZM107.112 48.132C106.148 48.132 105.553 47.888 105.193 47.522C104.831 47.1539 104.588 46.5429 104.588 45.556H103.188C103.188 46.7531 103.483 47.7801 104.195 48.504C104.91 49.23 105.927 49.532 107.112 49.532V48.132Z" fill="#D9D9D9" mask="url(#path-1-outside-1_29_53)"/>
</svg>
