<svg width="110" height="49" viewBox="0 0 110 49" fill="none" xmlns="http://www.w3.org/2000/svg">
<mask id="path-1-outside-1_29_55" maskUnits="userSpaceOnUse" x="-1" y="0" width="112" height="50" fill="black">
<rect fill="white" x="-1" width="112" height="50"/>
<path d="M17.8855 1.45L23.1115 18.298C23.1635 18.454 23.2762 18.532 23.4495 18.532C23.6228 18.532 23.7442 18.454 23.8135 18.298L29.0395 1.45C29.1608 1.138 29.3862 0.982 29.7155 0.982H30.9895C31.3188 0.982 31.4315 1.138 31.3275 1.45L25.4775 19.39C25.3735 19.6847 25.1482 19.832 24.8015 19.832H22.0455C21.7335 19.832 21.5342 19.6847 21.4475 19.39L15.5975 1.45C15.4935 1.138 15.6062 0.982 15.9355 0.982H17.2095C17.5388 0.982 17.7642 1.138 17.8855 1.45ZM43.4169 14.58H36.0589C35.7469 14.58 35.5389 14.7273 35.4349 15.022L33.9529 19.364C33.8316 19.676 33.6062 19.832 33.2769 19.832H32.0809C31.7516 19.832 31.6389 19.676 31.7429 19.364L37.8009 1.424C37.9049 1.12933 38.1042 0.982 38.3989 0.982H40.9989C41.3456 0.982 41.5709 1.12933 41.6749 1.424L47.7329 19.364C47.8369 19.676 47.7242 19.832 47.3949 19.832H46.1989C45.8696 19.832 45.6442 19.676 45.5229 19.364L44.0409 15.022C43.9369 14.7273 43.7289 14.58 43.4169 14.58ZM36.5009 12.942H42.9749C43.2869 12.942 43.3909 12.786 43.2869 12.474L40.0889 2.516C40.0196 2.36 39.8982 2.282 39.7249 2.282C39.5516 2.282 39.4389 2.36 39.3869 2.516L36.1889 12.474C36.0849 12.786 36.1889 12.942 36.5009 12.942ZM59.7508 19.832H53.8488C51.6994 19.832 50.6248 18.74 50.6248 16.556V1.476C50.6248 1.18133 50.7634 1.034 51.0408 1.034H52.2368C52.5141 1.034 52.6528 1.18133 52.6528 1.476V17.726C52.6528 18.0033 52.7914 18.142 53.0688 18.142H61.9608C62.2034 18.142 62.3248 18.246 62.3248 18.454C62.3248 18.662 62.2208 18.818 62.0128 18.922L60.8428 19.598C60.5481 19.754 60.1841 19.832 59.7508 19.832ZM65.5159 16.556V4.388C65.5159 3.46933 65.8885 2.78467 66.6339 2.334L68.4019 1.32C68.7832 1.12933 69.2079 1.034 69.6759 1.034H77.1899C77.4672 1.034 77.6059 1.18133 77.6059 1.476V2.256C77.6059 2.55067 77.4672 2.698 77.1899 2.698H67.9079C67.6305 2.698 67.4919 2.83667 67.4919 3.114V8.912C67.4919 9.20667 67.6565 9.354 67.9859 9.354H76.5919C76.8692 9.354 77.0079 9.50133 77.0079 9.796V10.55C77.0079 10.8447 76.8692 10.992 76.5919 10.992H67.9859C67.6565 10.992 67.4919 11.1393 67.4919 11.434V17.752C67.4919 18.0293 67.6305 18.168 67.9079 18.168H77.3979C77.6405 18.168 77.7619 18.272 77.7619 18.48C77.7619 18.688 77.6579 18.844 77.4499 18.948L76.2799 19.598C75.9852 19.754 75.6212 19.832 75.1879 19.832H68.7399C66.5905 19.832 65.5159 18.74 65.5159 16.556ZM80.1864 1.034H93.9404C94.235 1.034 94.3824 1.18133 94.3824 1.476V2.256C94.3824 2.55067 94.235 2.698 93.9404 2.698H88.5584C88.229 2.698 88.0644 2.84533 88.0644 3.14V19.39C88.0644 19.6847 87.9257 19.832 87.6484 19.832H86.4524C86.175 19.832 86.0364 19.6847 86.0364 19.39V3.14C86.0364 2.84533 85.8717 2.698 85.5424 2.698H80.1864C79.8917 2.698 79.7444 2.55067 79.7444 2.256V1.476C79.7444 1.18133 79.8917 1.034 80.1864 1.034ZM11.3059 39.212V32.452C11.3059 32.1227 11.1412 31.958 10.8119 31.958L2.72588 31.984C2.39654 31.984 2.23188 32.1313 2.23188 32.426V39.186C2.23188 39.4807 2.37054 39.628 2.64788 39.628H10.8899C11.1672 39.628 11.3059 39.4893 11.3059 39.212ZM2.23188 41.682V48.39C2.23188 48.6847 2.09321 48.832 1.81588 48.832H0.671875C0.394542 48.832 0.255875 48.6847 0.255875 48.39V30.424C0.255875 30.1293 0.403208 29.982 0.697875 29.982H1.86788C2.14521 29.982 2.28388 30.1293 2.28388 30.424V30.502C2.28388 30.7967 2.47454 30.918 2.85588 30.866L9.79788 29.93C10.1099 29.8953 10.3699 29.878 10.5779 29.878C12.3805 29.878 13.2819 30.7793 13.2819 32.582V37.886C13.2819 38.8047 12.9092 39.4893 12.1639 39.94L10.4219 40.954C10.0405 41.1447 9.61588 41.24 9.14788 41.24H2.72588C2.39654 41.24 2.23188 41.3873 2.23188 41.682ZM26.1005 43.58H18.7425C18.4305 43.58 18.2225 43.7273 18.1185 44.022L16.6365 48.364C16.5152 48.676 16.2898 48.832 15.9605 48.832H14.7645C14.4352 48.832 14.3225 48.676 14.4265 48.364L20.4845 30.424C20.5885 30.1293 20.7878 29.982 21.0825 29.982H23.6825C24.0292 29.982 24.2545 30.1293 24.3585 30.424L30.4165 48.364C30.5205 48.676 30.4078 48.832 30.0785 48.832H28.8825C28.5532 48.832 28.3278 48.676 28.2065 48.364L26.7245 44.022C26.6205 43.7273 26.4125 43.58 26.1005 43.58ZM19.1845 41.942H25.6585C25.9705 41.942 26.0745 41.786 25.9705 41.474L22.7725 31.516C22.7032 31.36 22.5818 31.282 22.4085 31.282C22.2352 31.282 22.1225 31.36 22.0705 31.516L18.8725 41.474C18.7685 41.786 18.8725 41.942 19.1845 41.942ZM44.6444 38.718V32.452C44.6444 32.1227 44.4797 31.958 44.1504 31.958H36.0904C35.761 31.958 35.5964 32.1053 35.5964 32.4V38.692C35.5964 38.9867 35.735 39.134 36.0124 39.134H44.2284C44.5057 39.134 44.6444 38.9953 44.6444 38.718ZM45.5024 39.42L43.5784 40.538C43.3184 40.7113 43.275 40.9193 43.4484 41.162L47.7124 48.442C47.851 48.702 47.7817 48.832 47.5044 48.832H46.1004C45.7884 48.832 45.5717 48.702 45.4504 48.442L41.2644 41.11C41.1257 40.85 40.909 40.72 40.6144 40.72H36.0904C35.761 40.72 35.5964 40.8673 35.5964 41.162V48.39C35.5964 48.6847 35.4577 48.832 35.1804 48.832H34.0364C33.759 48.832 33.6204 48.6847 33.6204 48.39V30.424C33.6204 30.1293 33.7677 29.982 34.0624 29.982H35.2324C35.5097 29.982 35.6484 30.1293 35.6484 30.424V30.606C35.6484 30.9007 35.839 31.022 36.2204 30.97L43.1364 30.034C43.4484 29.9993 43.7084 29.982 43.9164 29.982C45.719 29.982 46.6204 30.8833 46.6204 32.686V37.366C46.6204 38.2847 46.2477 38.9693 45.5024 39.42ZM53.6702 30.476V38.042C53.6702 38.354 53.8436 38.51 54.1902 38.51C54.2942 38.51 54.4069 38.4493 54.5282 38.328L62.8222 30.346C63.0302 30.1033 63.3076 29.982 63.6542 29.982H65.3442C65.6736 29.982 65.7169 30.1033 65.4742 30.346L56.5822 38.588C56.3396 38.8653 56.3309 39.1167 56.5562 39.342L64.8502 48.468C65.0756 48.7107 65.0149 48.832 64.6682 48.832H62.9782C62.6316 48.832 62.3629 48.7107 62.1722 48.468L54.5022 39.862C54.3809 39.7407 54.2769 39.68 54.1902 39.68C53.8436 39.68 53.6702 39.836 53.6702 40.148V48.39C53.6702 48.6847 53.5316 48.832 53.2542 48.832H52.0842C51.8069 48.832 51.6682 48.6847 51.6682 48.39V30.476C51.6682 30.1813 51.8069 30.034 52.0842 30.034H53.2542C53.5316 30.034 53.6702 30.1813 53.6702 30.476ZM70.2026 30.424V48.39C70.2026 48.6847 70.0639 48.832 69.7866 48.832H68.5906C68.3132 48.832 68.1746 48.6847 68.1746 48.39V30.424C68.1746 30.1293 68.3132 29.982 68.5906 29.982H69.7866C70.0639 29.982 70.2026 30.1293 70.2026 30.424ZM86.3545 48.416L78.2685 31.776C78.1471 31.5333 77.9998 31.412 77.8265 31.412C77.5491 31.412 77.4105 31.5593 77.4105 31.854V48.39C77.4105 48.6847 77.2718 48.832 76.9945 48.832H75.8245C75.5471 48.832 75.4085 48.6847 75.4085 48.39V30.476C75.4085 30.1813 75.5471 30.034 75.8245 30.034H79.1005C79.3951 30.034 79.6118 30.1727 79.7505 30.45L87.8365 47.09C87.9578 47.3327 88.1051 47.454 88.2785 47.454C88.5558 47.454 88.6945 47.3067 88.6945 47.012V30.476C88.6945 30.1813 88.8331 30.034 89.1105 30.034H90.2805C90.5578 30.034 90.6965 30.1813 90.6965 30.476V48.39C90.6965 48.6847 90.5578 48.832 90.2805 48.832H87.0045C86.7445 48.832 86.5278 48.6933 86.3545 48.416ZM95.9822 46.206V33.388C95.9822 32.4693 96.3549 31.7847 97.1002 31.334L98.8682 30.32C99.2495 30.1293 99.6742 30.034 100.142 30.034H108.696C108.974 30.034 109.112 30.1813 109.112 30.476V31.256C109.112 31.5507 108.974 31.698 108.696 31.698H98.4002C98.1229 31.698 97.9842 31.8367 97.9842 32.114V46.44C97.9842 46.7347 98.1489 46.882 98.4782 46.882L106.85 46.778C107.18 46.778 107.344 46.6307 107.344 46.336V41.396C107.344 41.1187 107.206 40.98 106.928 40.98H103.21C102.933 40.98 102.794 40.8327 102.794 40.538V39.758C102.794 39.4633 102.933 39.316 103.21 39.316H108.904C109.182 39.316 109.32 39.4547 109.32 39.732V48.39C109.32 48.6847 109.173 48.832 108.878 48.832H107.734C107.457 48.832 107.318 48.6847 107.318 48.39V48.286C107.318 47.9913 107.128 47.87 106.746 47.922L99.4662 48.858C99.1542 48.8927 98.8942 48.91 98.6862 48.91C96.8835 48.91 95.9822 48.0087 95.9822 46.206Z"/>
</mask>
<path d="M17.8855 1.45L23.1115 18.298C23.1635 18.454 23.2762 18.532 23.4495 18.532C23.6228 18.532 23.7442 18.454 23.8135 18.298L29.0395 1.45C29.1608 1.138 29.3862 0.982 29.7155 0.982H30.9895C31.3188 0.982 31.4315 1.138 31.3275 1.45L25.4775 19.39C25.3735 19.6847 25.1482 19.832 24.8015 19.832H22.0455C21.7335 19.832 21.5342 19.6847 21.4475 19.39L15.5975 1.45C15.4935 1.138 15.6062 0.982 15.9355 0.982H17.2095C17.5388 0.982 17.7642 1.138 17.8855 1.45ZM43.4169 14.58H36.0589C35.7469 14.58 35.5389 14.7273 35.4349 15.022L33.9529 19.364C33.8316 19.676 33.6062 19.832 33.2769 19.832H32.0809C31.7516 19.832 31.6389 19.676 31.7429 19.364L37.8009 1.424C37.9049 1.12933 38.1042 0.982 38.3989 0.982H40.9989C41.3456 0.982 41.5709 1.12933 41.6749 1.424L47.7329 19.364C47.8369 19.676 47.7242 19.832 47.3949 19.832H46.1989C45.8696 19.832 45.6442 19.676 45.5229 19.364L44.0409 15.022C43.9369 14.7273 43.7289 14.58 43.4169 14.58ZM36.5009 12.942H42.9749C43.2869 12.942 43.3909 12.786 43.2869 12.474L40.0889 2.516C40.0196 2.36 39.8982 2.282 39.7249 2.282C39.5516 2.282 39.4389 2.36 39.3869 2.516L36.1889 12.474C36.0849 12.786 36.1889 12.942 36.5009 12.942ZM59.7508 19.832H53.8488C51.6994 19.832 50.6248 18.74 50.6248 16.556V1.476C50.6248 1.18133 50.7634 1.034 51.0408 1.034H52.2368C52.5141 1.034 52.6528 1.18133 52.6528 1.476V17.726C52.6528 18.0033 52.7914 18.142 53.0688 18.142H61.9608C62.2034 18.142 62.3248 18.246 62.3248 18.454C62.3248 18.662 62.2208 18.818 62.0128 18.922L60.8428 19.598C60.5481 19.754 60.1841 19.832 59.7508 19.832ZM65.5159 16.556V4.388C65.5159 3.46933 65.8885 2.78467 66.6339 2.334L68.4019 1.32C68.7832 1.12933 69.2079 1.034 69.6759 1.034H77.1899C77.4672 1.034 77.6059 1.18133 77.6059 1.476V2.256C77.6059 2.55067 77.4672 2.698 77.1899 2.698H67.9079C67.6305 2.698 67.4919 2.83667 67.4919 3.114V8.912C67.4919 9.20667 67.6565 9.354 67.9859 9.354H76.5919C76.8692 9.354 77.0079 9.50133 77.0079 9.796V10.55C77.0079 10.8447 76.8692 10.992 76.5919 10.992H67.9859C67.6565 10.992 67.4919 11.1393 67.4919 11.434V17.752C67.4919 18.0293 67.6305 18.168 67.9079 18.168H77.3979C77.6405 18.168 77.7619 18.272 77.7619 18.48C77.7619 18.688 77.6579 18.844 77.4499 18.948L76.2799 19.598C75.9852 19.754 75.6212 19.832 75.1879 19.832H68.7399C66.5905 19.832 65.5159 18.74 65.5159 16.556ZM80.1864 1.034H93.9404C94.235 1.034 94.3824 1.18133 94.3824 1.476V2.256C94.3824 2.55067 94.235 2.698 93.9404 2.698H88.5584C88.229 2.698 88.0644 2.84533 88.0644 3.14V19.39C88.0644 19.6847 87.9257 19.832 87.6484 19.832H86.4524C86.175 19.832 86.0364 19.6847 86.0364 19.39V3.14C86.0364 2.84533 85.8717 2.698 85.5424 2.698H80.1864C79.8917 2.698 79.7444 2.55067 79.7444 2.256V1.476C79.7444 1.18133 79.8917 1.034 80.1864 1.034ZM11.3059 39.212V32.452C11.3059 32.1227 11.1412 31.958 10.8119 31.958L2.72588 31.984C2.39654 31.984 2.23188 32.1313 2.23188 32.426V39.186C2.23188 39.4807 2.37054 39.628 2.64788 39.628H10.8899C11.1672 39.628 11.3059 39.4893 11.3059 39.212ZM2.23188 41.682V48.39C2.23188 48.6847 2.09321 48.832 1.81588 48.832H0.671875C0.394542 48.832 0.255875 48.6847 0.255875 48.39V30.424C0.255875 30.1293 0.403208 29.982 0.697875 29.982H1.86788C2.14521 29.982 2.28388 30.1293 2.28388 30.424V30.502C2.28388 30.7967 2.47454 30.918 2.85588 30.866L9.79788 29.93C10.1099 29.8953 10.3699 29.878 10.5779 29.878C12.3805 29.878 13.2819 30.7793 13.2819 32.582V37.886C13.2819 38.8047 12.9092 39.4893 12.1639 39.94L10.4219 40.954C10.0405 41.1447 9.61588 41.24 9.14788 41.24H2.72588C2.39654 41.24 2.23188 41.3873 2.23188 41.682ZM26.1005 43.58H18.7425C18.4305 43.58 18.2225 43.7273 18.1185 44.022L16.6365 48.364C16.5152 48.676 16.2898 48.832 15.9605 48.832H14.7645C14.4352 48.832 14.3225 48.676 14.4265 48.364L20.4845 30.424C20.5885 30.1293 20.7878 29.982 21.0825 29.982H23.6825C24.0292 29.982 24.2545 30.1293 24.3585 30.424L30.4165 48.364C30.5205 48.676 30.4078 48.832 30.0785 48.832H28.8825C28.5532 48.832 28.3278 48.676 28.2065 48.364L26.7245 44.022C26.6205 43.7273 26.4125 43.58 26.1005 43.58ZM19.1845 41.942H25.6585C25.9705 41.942 26.0745 41.786 25.9705 41.474L22.7725 31.516C22.7032 31.36 22.5818 31.282 22.4085 31.282C22.2352 31.282 22.1225 31.36 22.0705 31.516L18.8725 41.474C18.7685 41.786 18.8725 41.942 19.1845 41.942ZM44.6444 38.718V32.452C44.6444 32.1227 44.4797 31.958 44.1504 31.958H36.0904C35.761 31.958 35.5964 32.1053 35.5964 32.4V38.692C35.5964 38.9867 35.735 39.134 36.0124 39.134H44.2284C44.5057 39.134 44.6444 38.9953 44.6444 38.718ZM45.5024 39.42L43.5784 40.538C43.3184 40.7113 43.275 40.9193 43.4484 41.162L47.7124 48.442C47.851 48.702 47.7817 48.832 47.5044 48.832H46.1004C45.7884 48.832 45.5717 48.702 45.4504 48.442L41.2644 41.11C41.1257 40.85 40.909 40.72 40.6144 40.72H36.0904C35.761 40.72 35.5964 40.8673 35.5964 41.162V48.39C35.5964 48.6847 35.4577 48.832 35.1804 48.832H34.0364C33.759 48.832 33.6204 48.6847 33.6204 48.39V30.424C33.6204 30.1293 33.7677 29.982 34.0624 29.982H35.2324C35.5097 29.982 35.6484 30.1293 35.6484 30.424V30.606C35.6484 30.9007 35.839 31.022 36.2204 30.97L43.1364 30.034C43.4484 29.9993 43.7084 29.982 43.9164 29.982C45.719 29.982 46.6204 30.8833 46.6204 32.686V37.366C46.6204 38.2847 46.2477 38.9693 45.5024 39.42ZM53.6702 30.476V38.042C53.6702 38.354 53.8436 38.51 54.1902 38.51C54.2942 38.51 54.4069 38.4493 54.5282 38.328L62.8222 30.346C63.0302 30.1033 63.3076 29.982 63.6542 29.982H65.3442C65.6736 29.982 65.7169 30.1033 65.4742 30.346L56.5822 38.588C56.3396 38.8653 56.3309 39.1167 56.5562 39.342L64.8502 48.468C65.0756 48.7107 65.0149 48.832 64.6682 48.832H62.9782C62.6316 48.832 62.3629 48.7107 62.1722 48.468L54.5022 39.862C54.3809 39.7407 54.2769 39.68 54.1902 39.68C53.8436 39.68 53.6702 39.836 53.6702 40.148V48.39C53.6702 48.6847 53.5316 48.832 53.2542 48.832H52.0842C51.8069 48.832 51.6682 48.6847 51.6682 48.39V30.476C51.6682 30.1813 51.8069 30.034 52.0842 30.034H53.2542C53.5316 30.034 53.6702 30.1813 53.6702 30.476ZM70.2026 30.424V48.39C70.2026 48.6847 70.0639 48.832 69.7866 48.832H68.5906C68.3132 48.832 68.1746 48.6847 68.1746 48.39V30.424C68.1746 30.1293 68.3132 29.982 68.5906 29.982H69.7866C70.0639 29.982 70.2026 30.1293 70.2026 30.424ZM86.3545 48.416L78.2685 31.776C78.1471 31.5333 77.9998 31.412 77.8265 31.412C77.5491 31.412 77.4105 31.5593 77.4105 31.854V48.39C77.4105 48.6847 77.2718 48.832 76.9945 48.832H75.8245C75.5471 48.832 75.4085 48.6847 75.4085 48.39V30.476C75.4085 30.1813 75.5471 30.034 75.8245 30.034H79.1005C79.3951 30.034 79.6118 30.1727 79.7505 30.45L87.8365 47.09C87.9578 47.3327 88.1051 47.454 88.2785 47.454C88.5558 47.454 88.6945 47.3067 88.6945 47.012V30.476C88.6945 30.1813 88.8331 30.034 89.1105 30.034H90.2805C90.5578 30.034 90.6965 30.1813 90.6965 30.476V48.39C90.6965 48.6847 90.5578 48.832 90.2805 48.832H87.0045C86.7445 48.832 86.5278 48.6933 86.3545 48.416ZM95.9822 46.206V33.388C95.9822 32.4693 96.3549 31.7847 97.1002 31.334L98.8682 30.32C99.2495 30.1293 99.6742 30.034 100.142 30.034H108.696C108.974 30.034 109.112 30.1813 109.112 30.476V31.256C109.112 31.5507 108.974 31.698 108.696 31.698H98.4002C98.1229 31.698 97.9842 31.8367 97.9842 32.114V46.44C97.9842 46.7347 98.1489 46.882 98.4782 46.882L106.85 46.778C107.18 46.778 107.344 46.6307 107.344 46.336V41.396C107.344 41.1187 107.206 40.98 106.928 40.98H103.21C102.933 40.98 102.794 40.8327 102.794 40.538V39.758C102.794 39.4633 102.933 39.316 103.21 39.316H108.904C109.182 39.316 109.32 39.4547 109.32 39.732V48.39C109.32 48.6847 109.173 48.832 108.878 48.832H107.734C107.457 48.832 107.318 48.6847 107.318 48.39V48.286C107.318 47.9913 107.128 47.87 106.746 47.922L99.4662 48.858C99.1542 48.8927 98.8942 48.91 98.6862 48.91C96.8835 48.91 95.9822 48.0087 95.9822 46.206Z" fill="#D9D9D9"/>
<path d="M17.8855 1.45L18.5541 1.24262L18.5468 1.21917L18.5379 1.19629L17.8855 1.45ZM23.1115 18.298L22.4429 18.5054L22.4451 18.5124L22.4474 18.5194L23.1115 18.298ZM23.8135 18.298L24.4532 18.5823L24.4699 18.5447L24.4821 18.5054L23.8135 18.298ZM29.0395 1.45L28.3871 1.19629L28.3782 1.21917L28.3709 1.24262L29.0395 1.45ZM31.3275 1.45L30.6634 1.22864L30.662 1.23299L31.3275 1.45ZM25.4775 19.39L26.1376 19.623L26.1404 19.615L26.143 19.607L25.4775 19.39ZM21.4475 19.39L22.1191 19.1925L22.1162 19.1827L22.113 19.173L21.4475 19.39ZM15.5975 1.45L16.263 1.23298L16.2616 1.22864L15.5975 1.45ZM17.2169 1.65738L22.4429 18.5054L23.7801 18.0906L18.5541 1.24262L17.2169 1.65738ZM22.4474 18.5194C22.5115 18.7115 22.6323 18.9076 22.8366 19.049C23.0376 19.1882 23.2582 19.232 23.4495 19.232V17.832C23.4674 17.832 23.5451 17.8368 23.6334 17.898C23.725 17.9614 23.7635 18.0405 23.7756 18.0766L22.4474 18.5194ZM23.4495 19.232C23.643 19.232 23.8545 19.1874 24.049 19.0623C24.2443 18.9368 24.3734 18.7618 24.4532 18.5823L23.1738 18.0137C23.1843 17.9902 23.218 17.9322 23.292 17.8847C23.3652 17.8376 23.4293 17.832 23.4495 17.832V19.232ZM24.4821 18.5054L29.7081 1.65738L28.3709 1.24262L23.1449 18.0906L24.4821 18.5054ZM29.6919 1.70371C29.7029 1.67531 29.7113 1.66352 29.7125 1.66191C29.7131 1.66114 29.7121 1.66252 29.7094 1.6652C29.7066 1.66791 29.7028 1.6712 29.6979 1.67453C29.6931 1.67787 29.6884 1.6805 29.6843 1.68242C29.6802 1.68432 29.6777 1.68504 29.6775 1.68511C29.6771 1.68522 29.6883 1.682 29.7155 1.682V0.282C29.4377 0.282 29.1527 0.349229 28.9011 0.523465C28.6502 0.697103 28.4871 0.939222 28.3871 1.19629L29.6919 1.70371ZM29.7155 1.682H30.9895V0.282H29.7155V1.682ZM30.9895 1.682C31.0221 1.682 31.0061 1.68658 30.9629 1.67134C30.9135 1.6539 30.8255 1.6085 30.7535 1.50884C30.6815 1.40911 30.666 1.31109 30.665 1.25821C30.6641 1.21205 30.6736 1.19796 30.6634 1.22864L31.9916 1.67136C32.065 1.45119 32.1477 1.04807 31.8885 0.689156C31.6296 0.330699 31.2214 0.282 30.9895 0.282V1.682ZM30.662 1.23299L24.812 19.173L26.143 19.607L31.993 1.66701L30.662 1.23299ZM24.8174 19.157C24.8117 19.1731 24.8094 19.1733 24.8154 19.1651C24.8184 19.1612 24.8228 19.156 24.8287 19.1504C24.8346 19.1449 24.841 19.1398 24.8474 19.1356C24.861 19.1268 24.8687 19.1253 24.8641 19.1265C24.8585 19.1279 24.8392 19.132 24.8015 19.132V20.532C25.0722 20.532 25.3584 20.4742 25.6136 20.3074C25.8748 20.1366 26.043 19.8909 26.1376 19.623L24.8174 19.157ZM24.8015 19.132H22.0455V20.532H24.8015V19.132ZM22.0455 19.132C22.0221 19.132 22.0176 19.1292 22.0264 19.1317C22.0366 19.1347 22.0562 19.1424 22.0781 19.1586C22.1001 19.1748 22.1142 19.1921 22.1213 19.2031C22.1277 19.2129 22.1248 19.212 22.1191 19.1925L20.7759 19.5875C20.8518 19.8456 20.9967 20.1002 21.2459 20.2844C21.4941 20.4679 21.7789 20.532 22.0455 20.532V19.132ZM22.113 19.173L16.263 1.23299L14.932 1.66701L20.782 19.607L22.113 19.173ZM16.2616 1.22864C16.2514 1.19796 16.2609 1.21205 16.26 1.25821C16.259 1.31109 16.2435 1.40911 16.1715 1.50884C16.0995 1.6085 16.0115 1.6539 15.9621 1.67134C15.9189 1.68658 15.9029 1.682 15.9355 1.682V0.282C15.7037 0.282 15.2954 0.330699 15.0365 0.689156C14.7773 1.04807 14.86 1.45119 14.9334 1.67136L16.2616 1.22864ZM15.9355 1.682H17.2095V0.282H15.9355V1.682ZM17.2095 1.682C17.2367 1.682 17.2479 1.68522 17.2475 1.68511C17.2473 1.68504 17.2448 1.68432 17.2407 1.68242C17.2366 1.6805 17.2319 1.67787 17.2271 1.67453C17.2222 1.6712 17.2184 1.66791 17.2156 1.6652C17.2129 1.66252 17.2119 1.66114 17.2125 1.66191C17.2137 1.66352 17.2221 1.67531 17.2331 1.70371L18.5379 1.19629C18.4379 0.939221 18.2748 0.697103 18.0239 0.523465C17.7723 0.349229 17.4873 0.282 17.2095 0.282V1.682ZM35.4349 15.022L34.7748 14.789L34.7724 14.7959L35.4349 15.022ZM33.9529 19.364L34.6053 19.6177L34.6106 19.604L34.6154 19.5901L33.9529 19.364ZM31.7429 19.364L31.0797 19.14L31.0788 19.1426L31.7429 19.364ZM37.8009 1.424L37.1407 1.191L37.1377 1.20005L37.8009 1.424ZM41.6749 1.424L42.3382 1.20002L42.335 1.19102L41.6749 1.424ZM47.7329 19.364L48.397 19.1426L48.3961 19.14L47.7329 19.364ZM45.5229 19.364L44.8604 19.5901L44.8652 19.604L44.8705 19.6177L45.5229 19.364ZM44.0409 15.022L44.7034 14.7959L44.701 14.789L44.0409 15.022ZM43.2869 12.474L42.6204 12.688L42.6228 12.6954L43.2869 12.474ZM40.0889 2.516L40.7554 2.30196L40.7439 2.26611L40.7286 2.2317L40.0889 2.516ZM39.3869 2.516L38.7228 2.29463L38.7204 2.30196L39.3869 2.516ZM36.1889 12.474L36.853 12.6954L36.8554 12.688L36.1889 12.474ZM43.4169 13.88H36.0589V15.28H43.4169V13.88ZM36.0589 13.88C35.7909 13.88 35.5109 13.9446 35.2643 14.1193C35.0178 14.2939 34.8639 14.5365 34.7748 14.789L36.095 15.255C36.1028 15.2328 36.1076 15.2276 36.1043 15.2323C36.1003 15.238 36.0902 15.2499 36.0735 15.2617C36.0567 15.2736 36.0421 15.2792 36.0352 15.2811C36.0294 15.2828 36.0357 15.28 36.0589 15.28V13.88ZM34.7724 14.7959L33.2904 19.1379L34.6154 19.5901L36.0974 15.2481L34.7724 14.7959ZM33.3005 19.1103C33.2894 19.1387 33.2811 19.1505 33.2799 19.1521C33.2793 19.1529 33.2803 19.1515 33.283 19.1488C33.2858 19.1461 33.2896 19.1428 33.2944 19.1395C33.2993 19.1361 33.304 19.1335 33.3081 19.1316C33.3122 19.1297 33.3147 19.129 33.3149 19.1289C33.3153 19.1288 33.3041 19.132 33.2769 19.132V20.532C33.5547 20.532 33.8397 20.4648 34.0913 20.2905C34.3421 20.1169 34.5053 19.8748 34.6053 19.6177L33.3005 19.1103ZM33.2769 19.132H32.0809V20.532H33.2769V19.132ZM32.0809 19.132C32.0483 19.132 32.0643 19.1274 32.1075 19.1427C32.1569 19.1601 32.2449 19.2055 32.3169 19.3052C32.3889 19.4049 32.4044 19.5029 32.4054 19.5558C32.4063 19.6019 32.3967 19.616 32.407 19.5854L31.0788 19.1426C31.0054 19.3628 30.9227 19.7659 31.1819 20.1248C31.4408 20.4833 31.849 20.532 32.0809 20.532V19.132ZM32.4061 19.588L38.4641 1.64795L37.1377 1.20005L31.0797 19.14L32.4061 19.588ZM38.461 1.65697C38.4699 1.63177 38.4758 1.62392 38.4739 1.62671C38.4714 1.63042 38.4621 1.64237 38.4445 1.65542C38.4265 1.6687 38.4087 1.6766 38.3958 1.68043C38.3841 1.68391 38.3835 1.682 38.3989 1.682V0.282C38.1309 0.282 37.8539 0.351003 37.6123 0.529575C37.374 0.705694 37.2272 0.946195 37.1408 1.19102L38.461 1.65697ZM38.3989 1.682H40.9989V0.282H38.3989V1.682ZM40.9989 1.682C41.0366 1.682 41.0559 1.68606 41.0615 1.6875C41.0661 1.68868 41.0584 1.68725 41.0448 1.67838C41.0384 1.67417 41.032 1.66915 41.0261 1.66357C41.0202 1.658 41.0158 1.65285 41.0128 1.64886C41.0067 1.6407 41.0091 1.64094 41.0148 1.65697L42.335 1.19102C42.2404 0.923083 42.0722 0.677398 41.811 0.50662C41.5558 0.339794 41.2695 0.282 40.9989 0.282V1.682ZM41.0117 1.64795L47.0697 19.588L48.3961 19.14L42.3381 1.20005L41.0117 1.64795ZM47.0688 19.5854C47.079 19.616 47.0695 19.6019 47.0704 19.5558C47.0714 19.5029 47.0869 19.4049 47.1589 19.3052C47.2309 19.2055 47.3189 19.1601 47.3683 19.1427C47.4115 19.1274 47.4275 19.132 47.3949 19.132V20.532C47.6267 20.532 48.035 20.4833 48.2939 20.1248C48.5531 19.7659 48.4704 19.3628 48.397 19.1426L47.0688 19.5854ZM47.3949 19.132H46.1989V20.532H47.3949V19.132ZM46.1989 19.132C46.1717 19.132 46.1605 19.1288 46.1609 19.1289C46.1611 19.129 46.1636 19.1297 46.1677 19.1316C46.1718 19.1335 46.1765 19.1361 46.1813 19.1395C46.1861 19.1428 46.19 19.1461 46.1928 19.1488C46.1955 19.1515 46.1964 19.1529 46.1959 19.1521C46.1947 19.1505 46.1863 19.1387 46.1753 19.1103L44.8705 19.6177C44.9705 19.8748 45.1336 20.1169 45.3844 20.2905C45.6361 20.4648 45.9211 20.532 46.1989 20.532V19.132ZM46.1854 19.1379L44.7034 14.7959L43.3784 15.2481L44.8604 19.5901L46.1854 19.1379ZM44.701 14.789C44.6119 14.5365 44.458 14.2939 44.2115 14.1193C43.9649 13.9446 43.6849 13.88 43.4169 13.88V15.28C43.4401 15.28 43.4464 15.2828 43.4406 15.2811C43.4336 15.2792 43.419 15.2736 43.4023 15.2617C43.3855 15.2499 43.3755 15.238 43.3715 15.2323C43.3682 15.2276 43.373 15.2328 43.3808 15.255L44.701 14.789ZM36.5009 13.642H42.9749V12.242H36.5009V13.642ZM42.9749 13.642C43.2076 13.642 43.6195 13.5881 43.8693 13.2133C44.1072 12.8565 44.0217 12.4649 43.951 12.2526L42.6228 12.6954C42.6339 12.7286 42.6259 12.7192 42.6259 12.6787C42.6259 12.6334 42.6367 12.5383 42.7045 12.4367C42.8503 12.2179 43.0542 12.242 42.9749 12.242V13.642ZM43.9534 12.26L40.7554 2.30196L39.4224 2.73004L42.6204 12.688L43.9534 12.26ZM40.7286 2.2317C40.6488 2.0522 40.5197 1.87722 40.3244 1.75168C40.1298 1.62659 39.9184 1.582 39.7249 1.582V2.982C39.7047 2.982 39.6406 2.97641 39.5674 2.92932C39.4934 2.88178 39.4597 2.8238 39.4492 2.8003L40.7286 2.2317ZM39.7249 1.582C39.5336 1.582 39.313 1.62579 39.1119 1.76497C38.9077 1.90637 38.7869 2.10251 38.7228 2.29464L40.051 2.73736C40.0389 2.77349 40.0004 2.85263 39.9088 2.91603C39.8205 2.97721 39.7428 2.982 39.7249 2.982V1.582ZM38.7204 2.30196L35.5224 12.26L36.8554 12.688L40.0534 2.73004L38.7204 2.30196ZM35.5248 12.2526C35.4541 12.4649 35.3686 12.8564 35.6065 13.2133C35.8563 13.5881 36.2682 13.642 36.5009 13.642V12.242C36.4216 12.242 36.6255 12.2179 36.7713 12.4367C36.8391 12.5383 36.8499 12.6334 36.8499 12.6787C36.8499 12.7192 36.8419 12.7286 36.853 12.6954L35.5248 12.2526ZM62.0128 18.922L61.6997 18.2959L61.6809 18.3053L61.6626 18.3159L62.0128 18.922ZM60.8428 19.598L61.1703 20.2167L61.1818 20.2106L61.193 20.2041L60.8428 19.598ZM59.7508 19.132H53.8488V20.532H59.7508V19.132ZM53.8488 19.132C52.8849 19.132 52.2899 18.888 51.9297 18.522C51.5675 18.1539 51.3248 17.5429 51.3248 16.556H49.9248C49.9248 17.7531 50.2194 18.7801 50.9319 19.504C51.6463 20.23 52.6634 20.532 53.8488 20.532V19.132ZM51.3248 16.556V1.476H49.9248V16.556H51.3248ZM51.3248 1.476C51.3248 1.42635 51.3373 1.51933 51.2385 1.62425C51.1323 1.73715 51.0212 1.734 51.0408 1.734V0.333999C50.783 0.333999 50.464 0.404513 50.219 0.664744C49.9816 0.917003 49.9248 1.23098 49.9248 1.476H51.3248ZM51.0408 1.734H52.2368V0.333999H51.0408V1.734ZM52.2368 1.734C52.2563 1.734 52.1453 1.73715 52.039 1.62425C51.9403 1.51933 51.9528 1.42635 51.9528 1.476H53.3528C53.3528 1.23098 53.2959 0.917003 53.0585 0.664744C52.8136 0.404513 52.4946 0.333999 52.2368 0.333999V1.734ZM51.9528 1.476V17.726H53.3528V1.476H51.9528ZM51.9528 17.726C51.9528 17.9726 52.0149 18.2861 52.2618 18.533C52.5087 18.7799 52.8222 18.842 53.0688 18.842V17.442C53.038 17.442 53.1435 17.4348 53.2518 17.543C53.36 17.6513 53.3528 17.7568 53.3528 17.726H51.9528ZM53.0688 18.842H61.9608V17.442H53.0688V18.842ZM61.9608 18.842C61.9984 18.842 61.8959 18.8524 61.7782 18.7515C61.6399 18.6329 61.6248 18.4885 61.6248 18.454H63.0248C63.0248 18.2115 62.949 17.9111 62.6893 17.6885C62.4503 17.4836 62.1659 17.442 61.9608 17.442V18.842ZM61.6248 18.454C61.6248 18.4473 61.6257 18.4308 61.6322 18.4079C61.6389 18.3845 61.6498 18.3605 61.6643 18.3387C61.6944 18.2937 61.7207 18.2854 61.6997 18.2959L62.3258 19.5481C62.5129 19.4546 62.6952 19.3163 62.8292 19.1153C62.9661 18.9099 63.0248 18.6805 63.0248 18.454H61.6248ZM61.6626 18.3159L60.4926 18.9919L61.193 20.2041L62.363 19.5281L61.6626 18.3159ZM60.5153 18.9793C60.3472 19.0683 60.1031 19.132 59.7508 19.132V20.532C60.2652 20.532 60.749 20.4397 61.1703 20.2167L60.5153 18.9793ZM66.6339 2.334L66.2856 1.72678L66.2786 1.7308L66.2717 1.73499L66.6339 2.334ZM68.4019 1.32L68.0888 0.693901L68.071 0.702838L68.0536 0.71278L68.4019 1.32ZM77.4499 18.948L77.1368 18.3219L77.1232 18.3287L77.1099 18.3361L77.4499 18.948ZM76.2799 19.598L76.6075 20.2168L76.6198 20.2099L76.2799 19.598ZM66.2159 16.556V4.388H64.8159V16.556H66.2159ZM66.2159 4.388C66.2159 3.69805 66.474 3.24868 66.9961 2.93301L66.2717 1.73499C65.3031 2.32066 64.8159 3.24061 64.8159 4.388H66.2159ZM66.9821 2.94122L68.7501 1.92722L68.0536 0.71278L66.2856 1.72678L66.9821 2.94122ZM68.7149 1.9461C68.9898 1.80864 69.3058 1.734 69.6759 1.734V0.333999C69.11 0.333999 68.5766 0.450029 68.0888 0.693901L68.7149 1.9461ZM69.6759 1.734H77.1899V0.333999H69.6759V1.734ZM77.1899 1.734C77.2094 1.734 77.0984 1.73715 76.9921 1.62425C76.8934 1.51933 76.9059 1.42635 76.9059 1.476H78.3059C78.3059 1.23098 78.249 0.917002 78.0116 0.664743C77.7667 0.404513 77.4477 0.333999 77.1899 0.333999V1.734ZM76.9059 1.476V2.256H78.3059V1.476H76.9059ZM76.9059 2.256C76.9059 2.30565 76.8934 2.21267 76.9921 2.10774C77.0984 1.99485 77.2094 1.998 77.1899 1.998V3.398C77.4477 3.398 77.7667 3.32748 78.0116 3.06725C78.249 2.815 78.3059 2.50102 78.3059 2.256H76.9059ZM77.1899 1.998H67.9079V3.398H77.1899V1.998ZM67.9079 1.998C67.6613 1.998 67.3478 2.06012 67.1009 2.30703C66.854 2.55393 66.7919 2.86743 66.7919 3.114H68.1919C68.1919 3.08323 68.1991 3.18873 68.0909 3.29697C67.9826 3.40522 67.8771 3.398 67.9079 3.398V1.998ZM66.7919 3.114V8.912H68.1919V3.114H66.7919ZM66.7919 8.912C66.7919 9.18862 66.8727 9.51833 67.1486 9.76517C67.4097 9.99875 67.7313 10.054 67.9859 10.054V8.654C67.9111 8.654 67.9857 8.63559 68.0821 8.72183C68.1313 8.76579 68.1624 8.81721 68.1787 8.861C68.1935 8.9007 68.1919 8.92223 68.1919 8.912H66.7919ZM67.9859 10.054H76.5919V8.654H67.9859V10.054ZM76.5919 10.054C76.6114 10.054 76.5004 10.0572 76.3941 9.94426C76.2954 9.83933 76.3079 9.74635 76.3079 9.796H77.7079C77.7079 9.55098 77.651 9.237 77.4136 8.98474C77.1687 8.72451 76.8497 8.654 76.5919 8.654V10.054ZM76.3079 9.796V10.55H77.7079V9.796H76.3079ZM76.3079 10.55C76.3079 10.5996 76.2954 10.5067 76.3941 10.4017C76.5004 10.2888 76.6114 10.292 76.5919 10.292V11.692C76.8497 11.692 77.1687 11.6215 77.4136 11.3613C77.651 11.109 77.7079 10.795 77.7079 10.55H76.3079ZM76.5919 10.292H67.9859V11.692H76.5919V10.292ZM67.9859 10.292C67.7313 10.292 67.4097 10.3473 67.1486 10.5808C66.8727 10.8277 66.7919 11.1574 66.7919 11.434H68.1919C68.1919 11.4238 68.1935 11.4453 68.1787 11.485C68.1624 11.5288 68.1313 11.5802 68.0821 11.6242C67.9857 11.7104 67.9111 11.692 67.9859 11.692V10.292ZM66.7919 11.434V17.752H68.1919V11.434H66.7919ZM66.7919 17.752C66.7919 17.9986 66.854 18.3121 67.1009 18.559C67.3478 18.8059 67.6613 18.868 67.9079 18.868V17.468C67.8771 17.468 67.9826 17.4608 68.0908 17.569C68.1991 17.6773 68.1919 17.7828 68.1919 17.752H66.7919ZM67.9079 18.868H77.3979V17.468H67.9079V18.868ZM77.3979 18.868C77.4355 18.868 77.333 18.8784 77.2153 18.7775C77.077 18.6589 77.0619 18.5145 77.0619 18.48H78.4619C78.4619 18.2375 78.3861 17.9371 78.1264 17.7145C77.8874 17.5096 77.603 17.468 77.3979 17.468V18.868ZM77.0619 18.48C77.0619 18.4733 77.0628 18.4568 77.0693 18.4339C77.076 18.4105 77.0869 18.3865 77.1014 18.3647C77.1315 18.3197 77.1578 18.3114 77.1368 18.3219L77.7629 19.5741C77.95 19.4806 78.1323 19.3423 78.2663 19.1413C78.4032 18.9359 78.4619 18.7065 78.4619 18.48H77.0619ZM77.1099 18.3361L75.9399 18.9861L76.6198 20.2099L77.7898 19.5599L77.1099 18.3361ZM75.9524 18.9793C75.7843 19.0683 75.5402 19.132 75.1879 19.132V20.532C75.7022 20.532 76.1861 20.4397 76.6074 20.2167L75.9524 18.9793ZM75.1879 19.132H68.7399V20.532H75.1879V19.132ZM68.7399 19.132C67.776 19.132 67.181 18.888 66.8208 18.522C66.4586 18.1539 66.2159 17.5429 66.2159 16.556H64.8159C64.8159 17.7531 65.1105 18.7801 65.823 19.504C66.5374 20.23 67.5544 20.532 68.7399 20.532V19.132ZM80.1864 1.734H93.9404V0.333999H80.1864V1.734ZM93.9404 1.734C93.9798 1.734 93.8808 1.74338 93.7769 1.63947C93.673 1.53556 93.6824 1.43657 93.6824 1.476H95.0824C95.0824 1.22077 95.0181 0.900768 94.7669 0.649525C94.5156 0.398282 94.1956 0.333999 93.9404 0.333999V1.734ZM93.6824 1.476V2.256H95.0824V1.476H93.6824ZM93.6824 2.256C93.6824 2.29543 93.673 2.19643 93.7769 2.09253C93.8808 1.98862 93.9798 1.998 93.9404 1.998V3.398C94.1956 3.398 94.5156 3.33372 94.7669 3.08247C95.0181 2.83123 95.0824 2.51123 95.0824 2.256H93.6824ZM93.9404 1.998H88.5584V3.398H93.9404V1.998ZM88.5584 1.998C88.3038 1.998 87.9822 2.05325 87.7211 2.28683C87.4452 2.53367 87.3644 2.86338 87.3644 3.14H88.7644C88.7644 3.12977 88.766 3.15129 88.7512 3.191C88.7349 3.23479 88.7038 3.28621 88.6546 3.33017C88.5582 3.41641 88.4836 3.398 88.5584 3.398V1.998ZM87.3644 3.14V19.39H88.7644V3.14H87.3644ZM87.3644 19.39C87.3644 19.4396 87.3519 19.3467 87.4506 19.2417C87.5569 19.1288 87.6679 19.132 87.6484 19.132V20.532C87.9062 20.532 88.2252 20.4615 88.4701 20.2013C88.7075 19.949 88.7644 19.635 88.7644 19.39H87.3644ZM87.6484 19.132H86.4524V20.532H87.6484V19.132ZM86.4524 19.132C86.4328 19.132 86.5439 19.1288 86.6501 19.2417C86.7489 19.3467 86.7364 19.4396 86.7364 19.39H85.3364C85.3364 19.635 85.3932 19.949 85.6306 20.2013C85.8756 20.4615 86.1946 20.532 86.4524 20.532V19.132ZM86.7364 19.39V3.14H85.3364V19.39H86.7364ZM86.7364 3.14C86.7364 2.86338 86.6555 2.53367 86.3796 2.28683C86.1186 2.05325 85.7969 1.998 85.5424 1.998V3.398C85.6172 3.398 85.5425 3.41641 85.4461 3.33017C85.397 3.28621 85.3659 3.23479 85.3495 3.191C85.3348 3.15129 85.3364 3.12977 85.3364 3.14H86.7364ZM85.5424 1.998H80.1864V3.398H85.5424V1.998ZM80.1864 1.998C80.1469 1.998 80.2459 1.98862 80.3499 2.09252C80.4538 2.19643 80.4444 2.29543 80.4444 2.256H79.0444C79.0444 2.51123 79.1087 2.83123 79.3599 3.08247C79.6111 3.33372 79.9311 3.398 80.1864 3.398V1.998ZM80.4444 2.256V1.476H79.0444V2.256H80.4444ZM80.4444 1.476C80.4444 1.43657 80.4538 1.53556 80.3499 1.63947C80.2459 1.74338 80.1469 1.734 80.1864 1.734V0.333999C79.9311 0.333999 79.6111 0.398282 79.3599 0.649525C79.1087 0.900767 79.0444 1.22076 79.0444 1.476H80.4444ZM10.8119 31.958V31.258L10.8096 31.258L10.8119 31.958ZM2.72588 31.984L2.72588 32.684L2.72813 32.684L2.72588 31.984ZM2.85588 30.866L2.76234 30.1723L2.7613 30.1724L2.85588 30.866ZM9.79788 29.93L9.72057 29.2343L9.71245 29.2352L9.70434 29.2363L9.79788 29.93ZM12.1639 39.94L12.5161 40.5451L12.5261 40.539L12.1639 39.94ZM10.4219 40.954L10.7349 41.5801L10.7548 41.5702L10.774 41.559L10.4219 40.954ZM12.0059 39.212V32.452H10.6059V39.212H12.0059ZM12.0059 32.452C12.0059 32.1794 11.9373 31.8464 11.6774 31.5865C11.4174 31.3266 11.0844 31.258 10.8119 31.258V32.658C10.8686 32.658 10.7826 32.6717 10.6874 32.5765C10.5922 32.4812 10.6059 32.3952 10.6059 32.452H12.0059ZM10.8096 31.258L2.72362 31.284L2.72813 32.684L10.8141 32.658L10.8096 31.258ZM2.72588 31.284C2.47132 31.284 2.14968 31.3393 1.88862 31.5728C1.61274 31.8197 1.53188 32.1494 1.53188 32.426H2.93188C2.93188 32.4158 2.9335 32.4373 2.91871 32.477C2.90239 32.5208 2.87126 32.5722 2.82213 32.6162C2.72574 32.7024 2.65109 32.684 2.72588 32.684V31.284ZM1.53188 32.426V39.186H2.93188V32.426H1.53188ZM1.53188 39.186C1.53188 39.431 1.58872 39.745 1.82614 39.9973C2.07106 40.2575 2.39009 40.328 2.64788 40.328V38.928C2.62833 38.928 2.73936 38.9248 2.84561 39.0377C2.94437 39.1427 2.93188 39.2356 2.93188 39.186H1.53188ZM2.64788 40.328H10.8899V38.928H2.64788V40.328ZM10.8899 40.328C11.1364 40.328 11.4499 40.2659 11.6969 40.019C11.9438 39.7721 12.0059 39.4586 12.0059 39.212H10.6059C10.6059 39.2428 10.5987 39.1373 10.7069 39.029C10.8151 38.9208 10.9206 38.928 10.8899 38.928V40.328ZM1.53188 41.682V48.39H2.93188V41.682H1.53188ZM1.53188 48.39C1.53188 48.4396 1.51938 48.3467 1.61813 48.2417C1.72439 48.1288 1.83542 48.132 1.81588 48.132V49.532C2.07366 49.532 2.39269 49.4615 2.63762 49.2013C2.87504 48.949 2.93188 48.635 2.93188 48.39H1.53188ZM1.81588 48.132H0.671875V49.532H1.81588V48.132ZM0.671875 48.132C0.652326 48.132 0.763359 48.1288 0.869615 48.2417C0.968369 48.3467 0.955875 48.4396 0.955875 48.39H-0.444125C-0.444125 48.635 -0.387285 48.949 -0.149865 49.2013C0.0950577 49.4615 0.414091 49.532 0.671875 49.532V48.132ZM0.955875 48.39V30.424H-0.444125V48.39H0.955875ZM0.955875 30.424C0.955875 30.3846 0.965259 30.4836 0.861349 30.5875C0.75744 30.6914 0.658443 30.682 0.697875 30.682V29.282C0.442641 29.282 0.122643 29.3463 -0.128599 29.5975C-0.379842 29.8488 -0.444125 30.1688 -0.444125 30.424H0.955875ZM0.697875 30.682H1.86788V29.282H0.697875V30.682ZM1.86788 30.682C1.88742 30.682 1.77639 30.6852 1.67014 30.5723C1.57138 30.4673 1.58388 30.3744 1.58388 30.424H2.98388C2.98388 30.179 2.92704 29.865 2.68961 29.6127C2.44469 29.3525 2.12566 29.282 1.86788 29.282V30.682ZM1.58388 30.424V30.502H2.98388V30.424H1.58388ZM1.58388 30.502C1.58388 30.8067 1.69322 31.1768 2.05106 31.4046C2.35529 31.5982 2.70126 31.5936 2.95046 31.5596L2.7613 30.1724C2.70676 30.1799 2.68589 30.1771 2.68986 30.1776C2.69453 30.1782 2.74139 30.1844 2.80269 30.2234C2.87035 30.2665 2.92433 30.3298 2.95597 30.3988C2.97023 30.4299 2.97718 30.4562 2.98055 30.4739C2.98387 30.4914 2.98388 30.5015 2.98388 30.502H1.58388ZM2.94941 31.5597L9.89141 30.6237L9.70434 29.2363L2.76234 30.1723L2.94941 31.5597ZM9.87518 30.6257C10.173 30.5926 10.4051 30.578 10.5779 30.578V29.178C10.3346 29.178 10.0467 29.198 9.72057 29.2343L9.87518 30.6257ZM10.5779 30.578C11.3713 30.578 11.8378 30.7759 12.1109 31.049C12.384 31.3221 12.5819 31.7886 12.5819 32.582H13.9819C13.9819 31.5728 13.7291 30.6873 13.1009 30.059C12.4726 29.4308 11.5871 29.178 10.5779 29.178V30.578ZM12.5819 32.582V37.886H13.9819V32.582H12.5819ZM12.5819 37.886C12.5819 38.5759 12.3237 39.0253 11.8017 39.341L12.5261 40.539C13.4947 39.9533 13.9819 39.0334 13.9819 37.886H12.5819ZM11.8117 39.335L10.0697 40.349L10.774 41.559L12.516 40.545L11.8117 39.335ZM10.1088 40.3279C9.8339 40.4654 9.51799 40.54 9.14788 40.54V41.94C9.71376 41.94 10.2472 41.824 10.7349 41.5801L10.1088 40.3279ZM9.14788 40.54H2.72588V41.94H9.14788V40.54ZM2.72588 40.54C2.47132 40.54 2.14968 40.5953 1.88862 40.8288C1.61274 41.0757 1.53188 41.4054 1.53188 41.682H2.93188C2.93188 41.6718 2.9335 41.6933 2.91871 41.733C2.90239 41.7768 2.87126 41.8282 2.82213 41.8722C2.72574 41.9584 2.65109 41.94 2.72588 41.94V40.54ZM18.1185 44.022L17.4584 43.789L17.456 43.7959L18.1185 44.022ZM16.6365 48.364L17.2889 48.6177L17.2942 48.604L17.299 48.5901L16.6365 48.364ZM14.4265 48.364L13.7633 48.14L13.7624 48.1426L14.4265 48.364ZM20.4845 30.424L19.8243 30.191L19.8213 30.2L20.4845 30.424ZM24.3585 30.424L25.0218 30.2L25.0186 30.191L24.3585 30.424ZM30.4165 48.364L31.0806 48.1426L31.0797 48.14L30.4165 48.364ZM28.2065 48.364L27.544 48.5901L27.5488 48.604L27.5541 48.6177L28.2065 48.364ZM26.7245 44.022L27.387 43.7959L27.3846 43.789L26.7245 44.022ZM25.9705 41.474L25.304 41.688L25.3064 41.6954L25.9705 41.474ZM22.7725 31.516L23.439 31.302L23.4274 31.2661L23.4122 31.2317L22.7725 31.516ZM22.0705 31.516L21.4064 31.2946L21.404 31.302L22.0705 31.516ZM18.8725 41.474L19.5366 41.6954L19.539 41.688L18.8725 41.474ZM26.1005 42.88H18.7425V44.28H26.1005V42.88ZM18.7425 42.88C18.4745 42.88 18.1945 42.9446 17.9479 43.1193C17.7014 43.2939 17.5475 43.5365 17.4584 43.789L18.7786 44.255C18.7864 44.2328 18.7912 44.2276 18.7879 44.2323C18.7838 44.238 18.7738 44.2499 18.7571 44.2617C18.7403 44.2736 18.7257 44.2792 18.7188 44.2811C18.713 44.2828 18.7193 44.28 18.7425 44.28V42.88ZM17.456 43.7959L15.974 48.1379L17.299 48.5901L18.781 44.2481L17.456 43.7959ZM15.9841 48.1103C15.973 48.1387 15.9647 48.1505 15.9635 48.1521C15.9629 48.1529 15.9639 48.1515 15.9666 48.1488C15.9694 48.1461 15.9732 48.1428 15.978 48.1395C15.9829 48.1361 15.9876 48.1335 15.9917 48.1316C15.9958 48.1297 15.9982 48.129 15.9985 48.1289C15.9989 48.1288 15.9877 48.132 15.9605 48.132V49.532C16.2383 49.532 16.5233 49.4648 16.7749 49.2905C17.0257 49.1169 17.1889 48.8748 17.2889 48.6177L15.9841 48.1103ZM15.9605 48.132H14.7645V49.532H15.9605V48.132ZM14.7645 48.132C14.7319 48.132 14.7479 48.1274 14.7911 48.1427C14.8405 48.1601 14.9285 48.2055 15.0005 48.3052C15.0725 48.4049 15.088 48.5029 15.089 48.5558C15.0898 48.6019 15.0803 48.616 15.0906 48.5854L13.7624 48.1426C13.689 48.3628 13.6063 48.7659 13.8655 49.1248C14.1244 49.4833 14.5326 49.532 14.7645 49.532V48.132ZM15.0897 48.588L21.1477 30.648L19.8213 30.2L13.7633 48.14L15.0897 48.588ZM21.1446 30.657C21.1535 30.6318 21.1594 30.6239 21.1575 30.6267C21.155 30.6304 21.1457 30.6424 21.1281 30.6554C21.1101 30.6687 21.0922 30.6766 21.0794 30.6804C21.0677 30.6839 21.0671 30.682 21.0825 30.682V29.282C20.8145 29.282 20.5375 29.351 20.2959 29.5296C20.0576 29.7057 19.9108 29.9462 19.8244 30.191L21.1446 30.657ZM21.0825 30.682H23.6825V29.282H21.0825V30.682ZM23.6825 30.682C23.7202 30.682 23.7395 30.6861 23.7451 30.6875C23.7497 30.6887 23.742 30.6872 23.7284 30.6784C23.722 30.6742 23.7156 30.6691 23.7097 30.6636C23.7038 30.658 23.6994 30.6528 23.6964 30.6489C23.6903 30.6407 23.6927 30.6409 23.6984 30.657L25.0186 30.191C24.924 29.9231 24.7557 29.6774 24.4946 29.5066C24.2394 29.3398 23.9531 29.282 23.6825 29.282V30.682ZM23.6953 30.648L29.7533 48.588L31.0797 48.14L25.0217 30.2L23.6953 30.648ZM29.7524 48.5854C29.7626 48.616 29.7531 48.6019 29.754 48.5558C29.755 48.5029 29.7705 48.4049 29.8425 48.3052C29.9145 48.2055 30.0025 48.1601 30.0519 48.1427C30.0951 48.1274 30.1111 48.132 30.0785 48.132V49.532C30.3103 49.532 30.7186 49.4833 30.9775 49.1248C31.2367 48.7659 31.154 48.3628 31.0806 48.1426L29.7524 48.5854ZM30.0785 48.132H28.8825V49.532H30.0785V48.132ZM28.8825 48.132C28.8553 48.132 28.8441 48.1288 28.8445 48.1289C28.8447 48.129 28.8472 48.1297 28.8513 48.1316C28.8554 48.1335 28.8601 48.1361 28.8649 48.1395C28.8697 48.1428 28.8736 48.1461 28.8764 48.1488C28.8791 48.1515 28.88 48.1529 28.8795 48.1521C28.8783 48.1505 28.8699 48.1387 28.8589 48.1103L27.5541 48.6177C27.6541 48.8748 27.8172 49.1169 28.068 49.2905C28.3197 49.4648 28.6047 49.532 28.8825 49.532V48.132ZM28.869 48.1379L27.387 43.7959L26.062 44.2481L27.544 48.5901L28.869 48.1379ZM27.3846 43.789C27.2955 43.5365 27.1416 43.2939 26.8951 43.1193C26.6485 42.9446 26.3685 42.88 26.1005 42.88V44.28C26.1237 44.28 26.13 44.2828 26.1242 44.2811C26.1172 44.2792 26.1026 44.2736 26.0859 44.2617C26.0691 44.2499 26.0591 44.238 26.0551 44.2323C26.0518 44.2276 26.0566 44.2328 26.0644 44.255L27.3846 43.789ZM19.1845 42.642H25.6585V41.242H19.1845V42.642ZM25.6585 42.642C25.8912 42.642 26.3031 42.5881 26.5529 42.2133C26.7908 41.8565 26.7053 41.4649 26.6346 41.2526L25.3064 41.6954C25.3175 41.7286 25.3095 41.7192 25.3095 41.6787C25.3095 41.6334 25.3203 41.5383 25.3881 41.4367C25.5339 41.2179 25.7378 41.242 25.6585 41.242V42.642ZM26.637 41.26L23.439 31.302L22.106 31.73L25.304 41.688L26.637 41.26ZM23.4122 31.2317C23.3324 31.0522 23.2033 30.8772 23.008 30.7517C22.8134 30.6266 22.602 30.582 22.4085 30.582V31.982C22.3883 31.982 22.3242 31.9764 22.251 31.9293C22.177 31.8818 22.1433 31.8238 22.1328 31.8003L23.4122 31.2317ZM22.4085 30.582C22.2172 30.582 21.9966 30.6258 21.7955 30.765C21.5913 30.9064 21.4705 31.1025 21.4064 31.2946L22.7346 31.7374C22.7225 31.7735 22.684 31.8526 22.5924 31.916C22.5041 31.9772 22.4264 31.982 22.4085 31.982V30.582ZM21.404 31.302L18.206 41.26L19.539 41.688L22.737 31.73L21.404 31.302ZM18.2084 41.2526C18.1377 41.4649 18.0522 41.8564 18.29 42.2133C18.5399 42.5881 18.9518 42.642 19.1845 42.642V41.242C19.1052 41.242 19.3091 41.2179 19.4549 41.4367C19.5226 41.5383 19.5335 41.6334 19.5335 41.6787C19.5335 41.7192 19.5255 41.7286 19.5366 41.6954L18.2084 41.2526ZM45.5024 39.42L45.8541 40.0253L45.8646 40.019L45.5024 39.42ZM43.5784 40.538L43.2267 39.9328L43.208 39.9436L43.1901 39.9556L43.5784 40.538ZM43.4484 41.162L44.0524 40.8082L44.0364 40.7809L44.018 40.7551L43.4484 41.162ZM47.7124 48.442L48.33 48.1126L48.3235 48.1003L48.3164 48.0882L47.7124 48.442ZM45.4504 48.442L46.0847 48.146L46.0725 48.1199L46.0583 48.0949L45.4504 48.442ZM41.2644 41.11L40.6467 41.4394L40.6515 41.4483L40.6565 41.4571L41.2644 41.11ZM36.2204 30.97L36.1265 30.2763L36.1258 30.2764L36.2204 30.97ZM43.1364 30.034L43.0591 29.3383L43.0508 29.3392L43.0425 29.3403L43.1364 30.034ZM45.3444 38.718V32.452H43.9444V38.718H45.3444ZM45.3444 32.452C45.3444 32.1794 45.2758 31.8464 45.0159 31.5865C44.7559 31.3266 44.4229 31.258 44.1504 31.258V32.658C44.2071 32.658 44.1211 32.6717 44.0259 32.5765C43.9307 32.4812 43.9444 32.3952 43.9444 32.452H45.3444ZM44.1504 31.258H36.0904V32.658H44.1504V31.258ZM36.0904 31.258C35.8358 31.258 35.5142 31.3133 35.2531 31.5468C34.9772 31.7937 34.8964 32.1234 34.8964 32.4H36.2964C36.2964 32.3898 36.298 32.4113 36.2832 32.451C36.2669 32.4948 36.2358 32.5462 36.1866 32.5902C36.0902 32.6764 36.0156 32.658 36.0904 32.658V31.258ZM34.8964 32.4V38.692H36.2964V32.4H34.8964ZM34.8964 38.692C34.8964 38.937 34.9532 39.251 35.1906 39.5033C35.4356 39.7635 35.7546 39.834 36.0124 39.834V38.434C35.9928 38.434 36.1039 38.4308 36.2101 38.5437C36.3089 38.6487 36.2964 38.7416 36.2964 38.692H34.8964ZM36.0124 39.834H44.2284V38.434H36.0124V39.834ZM44.2284 39.834C44.4749 39.834 44.7884 39.7719 45.0354 39.525C45.2823 39.2781 45.3444 38.9646 45.3444 38.718H43.9444C43.9444 38.7488 43.9372 38.6433 44.0454 38.535C44.1536 38.4268 44.2591 38.434 44.2284 38.434V39.834ZM45.1507 38.8148L43.2267 39.9328L43.9301 41.1432L45.8541 40.0252L45.1507 38.8148ZM43.1901 39.9556C42.9787 40.0965 42.7392 40.3279 42.6656 40.6812C42.5901 41.0436 42.7256 41.3544 42.8788 41.5689L44.018 40.7551C43.9978 40.7269 44.0683 40.8124 44.0362 40.9668C44.0059 41.1121 43.918 41.1529 43.9667 41.1204L43.1901 39.9556ZM42.8444 41.5158L47.1084 48.7958L48.3164 48.0882L44.0524 40.8082L42.8444 41.5158ZM47.0947 48.7714C47.11 48.8 47.097 48.7847 47.0882 48.7351C47.0788 48.6824 47.0684 48.5519 47.1467 48.4051C47.2285 48.2517 47.3538 48.1799 47.4276 48.1522C47.4917 48.1281 47.5275 48.132 47.5044 48.132V49.532C47.6751 49.532 48.1472 49.5042 48.382 49.0639C48.495 48.8521 48.4933 48.6403 48.4666 48.4901C48.4404 48.343 48.3841 48.214 48.33 48.1126L47.0947 48.7714ZM47.5044 48.132H46.1004V49.532H47.5044V48.132ZM46.1004 48.132C46.0707 48.132 46.0555 48.1289 46.0514 48.1279C46.0494 48.1274 46.05 48.1274 46.0526 48.1284C46.0552 48.1295 46.0592 48.1314 46.064 48.1343C46.0689 48.1372 46.0737 48.1406 46.0782 48.1444C46.0826 48.1481 46.086 48.1516 46.0882 48.1542C46.0929 48.1596 46.0906 48.1587 46.0847 48.146L44.816 48.738C44.9275 48.9768 45.1 49.1885 45.3437 49.3347C45.5837 49.4788 45.8472 49.532 46.1004 49.532V48.132ZM46.0583 48.0949L41.8723 40.7629L40.6565 41.4571L44.8425 48.7891L46.0583 48.0949ZM41.882 40.7806C41.763 40.5575 41.5921 40.3577 41.358 40.2173C41.1239 40.0768 40.8672 40.02 40.6144 40.02V41.42C40.6366 41.42 40.6469 41.4224 40.6483 41.4228C40.6491 41.423 40.6445 41.4218 40.6377 41.4177C40.6309 41.4137 40.6277 41.4102 40.6283 41.4108C40.6293 41.4119 40.6363 41.4198 40.6467 41.4394L41.882 40.7806ZM40.6144 40.02H36.0904V41.42H40.6144V40.02ZM36.0904 40.02C35.8358 40.02 35.5142 40.0753 35.2531 40.3088C34.9772 40.5557 34.8964 40.8854 34.8964 41.162H36.2964C36.2964 41.1518 36.298 41.1733 36.2832 41.213C36.2669 41.2568 36.2358 41.3082 36.1866 41.3522C36.0902 41.4384 36.0156 41.42 36.0904 41.42V40.02ZM34.8964 41.162V48.39H36.2964V41.162H34.8964ZM34.8964 48.39C34.8964 48.4396 34.8839 48.3467 34.9826 48.2417C35.0889 48.1288 35.1999 48.132 35.1804 48.132V49.532C35.4382 49.532 35.7572 49.4615 36.0021 49.2013C36.2395 48.949 36.2964 48.635 36.2964 48.39H34.8964ZM35.1804 48.132H34.0364V49.532H35.1804V48.132ZM34.0364 48.132C34.0168 48.132 34.1279 48.1288 34.2341 48.2417C34.3329 48.3467 34.3204 48.4396 34.3204 48.39H32.9204C32.9204 48.635 32.9772 48.949 33.2146 49.2013C33.4596 49.4615 33.7786 49.532 34.0364 49.532V48.132ZM34.3204 48.39V30.424H32.9204V48.39H34.3204ZM34.3204 30.424C34.3204 30.3846 34.3298 30.4836 34.2258 30.5875C34.1219 30.6914 34.0229 30.682 34.0624 30.682V29.282C33.8071 29.282 33.4871 29.3463 33.2359 29.5975C32.9847 29.8488 32.9204 30.1688 32.9204 30.424H34.3204ZM34.0624 30.682H35.2324V29.282H34.0624V30.682ZM35.2324 30.682C35.2519 30.682 35.1409 30.6852 35.0346 30.5723C34.9359 30.4673 34.9484 30.3744 34.9484 30.424H36.3484C36.3484 30.179 36.2915 29.865 36.0541 29.6127C35.8092 29.3525 35.4902 29.282 35.2324 29.282V30.682ZM34.9484 30.424V30.606H36.3484V30.424H34.9484ZM34.9484 30.606C34.9484 30.9107 35.0577 31.2808 35.4156 31.5086C35.7198 31.7022 36.0658 31.6976 36.315 31.6636L36.1258 30.2764C36.0713 30.2839 36.0504 30.2811 36.0544 30.2816C36.059 30.2822 36.1059 30.2884 36.1672 30.3274C36.2349 30.3705 36.2888 30.4338 36.3205 30.5028C36.3347 30.5339 36.3417 30.5602 36.3451 30.5779C36.3484 30.5954 36.3484 30.6055 36.3484 30.606H34.9484ZM36.3143 31.6637L43.2303 30.7277L43.0425 29.3403L36.1265 30.2763L36.3143 31.6637ZM43.2137 30.7297C43.5115 30.6966 43.7436 30.682 43.9164 30.682V29.282C43.6731 29.282 43.3852 29.302 43.0591 29.3383L43.2137 30.7297ZM43.9164 30.682C44.7098 30.682 45.1763 30.8799 45.4494 31.153C45.7225 31.4261 45.9204 31.8926 45.9204 32.686H47.3204C47.3204 31.6768 47.0676 30.7913 46.4393 30.163C45.8111 29.5348 44.9256 29.282 43.9164 29.282V30.682ZM45.9204 32.686V37.366H47.3204V32.686H45.9204ZM45.9204 37.366C45.9204 38.0559 45.6622 38.5053 45.1402 38.821L45.8646 40.019C46.8332 39.4333 47.3204 38.5134 47.3204 37.366H45.9204ZM54.5282 38.328L54.0427 37.8235L54.0333 37.833L54.5282 38.328ZM62.8222 30.346L63.3076 30.8504L63.3318 30.8271L63.3537 30.8016L62.8222 30.346ZM65.4742 30.346L65.9501 30.8594L65.9598 30.8504L65.9692 30.841L65.4742 30.346ZM56.5822 38.588L56.1064 38.0746L56.0795 38.0995L56.0554 38.127L56.5822 38.588ZM56.5562 39.342L57.0743 38.8712L57.063 38.8588L57.0512 38.847L56.5562 39.342ZM64.8502 48.468L64.3322 48.9388L64.3373 48.9443L64.8502 48.468ZM62.1722 48.468L62.7227 48.0355L62.7093 48.0185L62.6948 48.0023L62.1722 48.468ZM54.5022 39.862L55.0248 39.3963L55.0114 39.3812L54.9972 39.367L54.5022 39.862ZM52.9702 30.476V38.042H54.3702V30.476H52.9702ZM52.9702 38.042C52.9702 38.3261 53.0525 38.6618 53.332 38.9133C53.5974 39.1522 53.9261 39.21 54.1902 39.21V37.81C54.1077 37.81 54.1764 37.7898 54.2685 37.8727C54.3153 37.9148 54.3443 37.9635 54.3592 38.0036C54.3725 38.0397 54.3702 38.057 54.3702 38.042H52.9702ZM54.1902 39.21C54.5695 39.21 54.8516 38.9946 55.0232 38.823L54.0333 37.833C54.0055 37.8608 54.0008 37.859 54.0209 37.8482C54.0433 37.8361 54.1026 37.81 54.1902 37.81V39.21ZM55.0136 38.8324L63.3076 30.8504L62.3368 29.8416L54.0428 37.8236L55.0136 38.8324ZM63.3537 30.8016C63.4165 30.7283 63.4923 30.682 63.6542 30.682V29.282C63.1228 29.282 62.644 29.4784 62.2908 29.8904L63.3537 30.8016ZM63.6542 30.682H65.3442V29.282H63.6542V30.682ZM65.3442 30.682C65.3958 30.682 65.3759 30.6883 65.3209 30.6704C65.2714 30.6543 65.0583 30.571 64.9645 30.3084C64.8764 30.0616 64.9748 29.8757 64.9886 29.8505C65.0096 29.8122 65.0193 29.811 64.9793 29.851L65.9692 30.841C66.0505 30.7597 66.1457 30.6523 66.2166 30.523C66.2802 30.4068 66.3928 30.1451 66.283 29.8376C66.1675 29.5144 65.8969 29.3856 65.7543 29.3391C65.6062 29.2909 65.4573 29.282 65.3442 29.282V30.682ZM64.9984 29.8326L56.1064 38.0746L57.0581 39.1014L65.9501 30.8594L64.9984 29.8326ZM56.0554 38.127C55.8758 38.3323 55.7061 38.6134 55.6942 38.9604C55.6814 39.3289 55.8504 39.6261 56.0613 39.837L57.0512 38.847C57.0417 38.8375 57.0541 38.847 57.0684 38.8785C57.0841 38.9131 57.095 38.959 57.0933 39.0086C57.09 39.1043 57.046 39.121 57.109 39.049L56.0554 38.127ZM56.0382 39.8128L64.3322 48.9388L65.3683 47.9972L57.0743 38.8712L56.0382 39.8128ZM64.3373 48.9443C64.3713 48.981 64.3522 48.9697 64.3278 48.9158C64.3038 48.8627 64.2307 48.6619 64.3476 48.428C64.4575 48.2082 64.6433 48.1478 64.6748 48.1384C64.7165 48.1259 64.7242 48.132 64.6682 48.132V49.532C64.7857 49.532 64.9309 49.5229 65.0744 49.4801C65.2078 49.4404 65.4596 49.3345 65.5998 49.054C65.7472 48.7594 65.6686 48.4828 65.6034 48.3387C65.5378 48.1938 65.4418 48.0764 65.3632 47.9917L64.3373 48.9443ZM64.6682 48.132H62.9782V49.532H64.6682V48.132ZM62.9782 48.132C62.8162 48.132 62.763 48.0869 62.7227 48.0355L61.6218 48.9005C61.9628 49.3344 62.4469 49.532 62.9782 49.532V48.132ZM62.6948 48.0023L55.0248 39.3963L53.9797 40.3277L61.6497 48.9337L62.6948 48.0023ZM54.9972 39.367C54.8568 39.2266 54.5766 38.98 54.1902 38.98V40.38C54.0706 40.38 53.9958 40.3391 53.9805 40.3301C53.9638 40.3204 53.9727 40.3224 54.0073 40.357L54.9972 39.367ZM54.1902 38.98C53.9261 38.98 53.5974 39.0378 53.332 39.2767C53.0525 39.5282 52.9702 39.8639 52.9702 40.148H54.3702C54.3702 40.133 54.3725 40.1503 54.3592 40.1864C54.3443 40.2265 54.3153 40.2752 54.2685 40.3173C54.1764 40.4002 54.1077 40.38 54.1902 40.38V38.98ZM52.9702 40.148V48.39H54.3702V40.148H52.9702ZM52.9702 48.39C52.9702 48.4396 52.9577 48.3467 53.0565 48.2417C53.1628 48.1288 53.2738 48.132 53.2542 48.132V49.532C53.512 49.532 53.8311 49.4615 54.076 49.2013C54.3134 48.949 54.3702 48.635 54.3702 48.39H52.9702ZM53.2542 48.132H52.0842V49.532H53.2542V48.132ZM52.0842 48.132C52.0647 48.132 52.1757 48.1288 52.282 48.2417C52.3807 48.3467 52.3682 48.4396 52.3682 48.39H50.9682C50.9682 48.635 51.0251 48.949 51.2625 49.2013C51.5074 49.4615 51.8265 49.532 52.0842 49.532V48.132ZM52.3682 48.39V30.476H50.9682V48.39H52.3682ZM52.3682 30.476C52.3682 30.4264 52.3807 30.5193 52.282 30.6243C52.1757 30.7372 52.0647 30.734 52.0842 30.734V29.334C51.8265 29.334 51.5074 29.4045 51.2625 29.6647C51.0251 29.917 50.9682 30.231 50.9682 30.476H52.3682ZM52.0842 30.734H53.2542V29.334H52.0842V30.734ZM53.2542 30.734C53.2738 30.734 53.1628 30.7372 53.0565 30.6243C52.9577 30.5193 52.9702 30.4264 52.9702 30.476H54.3702C54.3702 30.231 54.3134 29.917 54.076 29.6647C53.8311 29.4045 53.512 29.334 53.2542 29.334V30.734ZM69.5026 30.424V48.39H70.9026V30.424H69.5026ZM69.5026 48.39C69.5026 48.4396 69.4901 48.3467 69.5888 48.2417C69.6951 48.1288 69.8061 48.132 69.7866 48.132V49.532C70.0444 49.532 70.3634 49.4615 70.6083 49.2013C70.8457 48.949 70.9026 48.635 70.9026 48.39H69.5026ZM69.7866 48.132H68.5906V49.532H69.7866V48.132ZM68.5906 48.132C68.571 48.132 68.6821 48.1288 68.7883 48.2417C68.8871 48.3467 68.8746 48.4396 68.8746 48.39H67.4746C67.4746 48.635 67.5314 48.949 67.7688 49.2013C68.0138 49.4615 68.3328 49.532 68.5906 49.532V48.132ZM68.8746 48.39V30.424H67.4746V48.39H68.8746ZM68.8746 30.424C68.8746 30.3744 68.8871 30.4673 68.7883 30.5723C68.6821 30.6852 68.571 30.682 68.5906 30.682V29.282C68.3328 29.282 68.0138 29.3525 67.7688 29.6127C67.5314 29.865 67.4746 30.179 67.4746 30.424H68.8746ZM68.5906 30.682H69.7866V29.282H68.5906V30.682ZM69.7866 30.682C69.8061 30.682 69.6951 30.6852 69.5888 30.5723C69.4901 30.4673 69.5026 30.3744 69.5026 30.424H70.9026C70.9026 30.179 70.8457 29.865 70.6083 29.6127C70.3634 29.3525 70.0444 29.282 69.7866 29.282V30.682ZM86.3545 48.416L85.7249 48.7219L85.7411 48.7554L85.7609 48.787L86.3545 48.416ZM78.2685 31.776L78.8981 31.47L78.8946 31.463L78.2685 31.776ZM79.7505 30.45L80.3801 30.144L80.3766 30.137L79.7505 30.45ZM87.8365 47.09L87.2068 47.396L87.2104 47.403L87.8365 47.09ZM86.9841 48.1101L78.8981 31.4701L77.6389 32.0819L85.7249 48.7219L86.9841 48.1101ZM78.8946 31.463C78.7281 31.1301 78.3968 30.712 77.8265 30.712V32.112C77.7861 32.112 77.7438 32.1046 77.7039 32.0895C77.6648 32.0747 77.6376 32.0562 77.622 32.0434C77.5952 32.0213 77.6084 32.0211 77.6424 32.089L78.8946 31.463ZM77.8265 30.712C77.5687 30.712 77.2497 30.7825 77.0047 31.0427C76.7673 31.295 76.7105 31.609 76.7105 31.854H78.1105C78.1105 31.8044 78.123 31.8973 78.0242 32.0023C77.918 32.1152 77.8069 32.112 77.8265 32.112V30.712ZM76.7105 31.854V48.39H78.1105V31.854H76.7105ZM76.7105 48.39C76.7105 48.4396 76.698 48.3467 76.7967 48.2417C76.903 48.1288 77.014 48.132 76.9945 48.132V49.532C77.2523 49.532 77.5713 49.4615 77.8162 49.2013C78.0536 48.949 78.1105 48.635 78.1105 48.39H76.7105ZM76.9945 48.132H75.8245V49.532H76.9945V48.132ZM75.8245 48.132C75.8049 48.132 75.916 48.1288 76.0222 48.2417C76.121 48.3467 76.1085 48.4396 76.1085 48.39H74.7085C74.7085 48.635 74.7653 48.949 75.0027 49.2013C75.2477 49.4615 75.5667 49.532 75.8245 49.532V48.132ZM76.1085 48.39V30.476H74.7085V48.39H76.1085ZM76.1085 30.476C76.1085 30.4264 76.121 30.5193 76.0222 30.6243C75.916 30.7372 75.8049 30.734 75.8245 30.734V29.334C75.5667 29.334 75.2477 29.4045 75.0027 29.6647C74.7653 29.917 74.7085 30.231 74.7085 30.476H76.1085ZM75.8245 30.734H79.1005V29.334H75.8245V30.734ZM79.1005 30.734C79.1191 30.734 79.1257 30.7362 79.1236 30.7356C79.1209 30.7349 79.1142 30.7324 79.1066 30.7276C79.0992 30.7229 79.0971 30.7197 79.0996 30.7226C79.1026 30.7261 79.1118 30.7379 79.1244 30.763L80.3766 30.137C80.2624 29.9086 80.0959 29.6986 79.8613 29.5484C79.6246 29.3969 79.3616 29.334 79.1005 29.334V30.734ZM79.1209 30.7559L87.2069 47.3959L88.4661 46.7841L80.3801 30.1441L79.1209 30.7559ZM87.2104 47.403C87.3768 47.7359 87.7082 48.154 88.2785 48.154V46.754C88.3188 46.754 88.3611 46.7614 88.4011 46.7765C88.4402 46.7913 88.4674 46.8098 88.483 46.8226C88.5097 46.8447 88.4966 46.8449 88.4626 46.777L87.2104 47.403ZM88.2785 48.154C88.5363 48.154 88.8553 48.0835 89.1002 47.8233C89.3376 47.571 89.3945 47.257 89.3945 47.012H87.9945C87.9945 47.0616 87.982 46.9687 88.0807 46.8637C88.187 46.7508 88.298 46.754 88.2785 46.754V48.154ZM89.3945 47.012V30.476H87.9945V47.012H89.3945ZM89.3945 30.476C89.3945 30.4264 89.407 30.5193 89.3082 30.6243C89.202 30.7372 89.0909 30.734 89.1105 30.734V29.334C88.8527 29.334 88.5337 29.4045 88.2887 29.6647C88.0513 29.917 87.9945 30.231 87.9945 30.476H89.3945ZM89.1105 30.734H90.2805V29.334H89.1105V30.734ZM90.2805 30.734C90.3 30.734 90.189 30.7372 90.0827 30.6243C89.984 30.5193 89.9965 30.4264 89.9965 30.476H91.3965C91.3965 30.231 91.3396 29.917 91.1022 29.6647C90.8573 29.4045 90.5383 29.334 90.2805 29.334V30.734ZM89.9965 30.476V48.39H91.3965V30.476H89.9965ZM89.9965 48.39C89.9965 48.4396 89.984 48.3467 90.0827 48.2417C90.189 48.1288 90.3 48.132 90.2805 48.132V49.532C90.5383 49.532 90.8573 49.4615 91.1022 49.2013C91.3396 48.949 91.3965 48.635 91.3965 48.39H89.9965ZM90.2805 48.132H87.0045V49.532H90.2805V48.132ZM87.0045 48.132C87.0025 48.132 87.0062 48.1319 87.0131 48.1339C87.0162 48.1348 87.019 48.1358 87.0213 48.1369C87.0235 48.1379 87.0245 48.1386 87.0243 48.1384C87.0237 48.138 86.9942 48.1188 86.9481 48.045L85.7609 48.787C86.0244 49.2086 86.4396 49.532 87.0045 49.532V48.132ZM97.1002 31.334L96.7519 30.7268L96.7449 30.7308L96.738 30.735L97.1002 31.334ZM98.8682 30.32L98.5551 29.6939L98.5373 29.7028L98.5199 29.7128L98.8682 30.32ZM98.4782 46.882V47.5821L98.4869 47.5819L98.4782 46.882ZM106.85 46.778V46.0779L106.841 46.0781L106.85 46.778ZM106.746 47.922L106.835 48.6163L106.841 48.6156L106.746 47.922ZM99.4662 48.858L99.5435 49.5538L99.5555 49.5523L99.4662 48.858ZM96.6822 46.206V33.388H95.2822V46.206H96.6822ZM96.6822 33.388C96.6822 32.6981 96.9403 32.2487 97.4624 31.933L96.738 30.735C95.7694 31.3207 95.2822 32.2406 95.2822 33.388H96.6822ZM97.4484 31.9412L99.2164 30.9272L98.5199 29.7128L96.7519 30.7268L97.4484 31.9412ZM99.1812 30.9461C99.4562 30.8086 99.7721 30.734 100.142 30.734V29.334C99.5763 29.334 99.0429 29.45 98.5551 29.6939L99.1812 30.9461ZM100.142 30.734H108.696V29.334H100.142V30.734ZM108.696 30.734C108.716 30.734 108.605 30.7372 108.498 30.6243C108.4 30.5193 108.412 30.4264 108.412 30.476H109.812C109.812 30.231 109.755 29.917 109.518 29.6647C109.273 29.4045 108.954 29.334 108.696 29.334V30.734ZM108.412 30.476V31.256H109.812V30.476H108.412ZM108.412 31.256C108.412 31.3056 108.4 31.2127 108.498 31.1077C108.605 30.9948 108.716 30.998 108.696 30.998V32.398C108.954 32.398 109.273 32.3275 109.518 32.0673C109.755 31.815 109.812 31.501 109.812 31.256H108.412ZM108.696 30.998H98.4002V32.398H108.696V30.998ZM98.4002 30.998C98.1536 30.998 97.8401 31.0601 97.5932 31.307C97.3463 31.5539 97.2842 31.8674 97.2842 32.114H98.6842C98.6842 32.0832 98.6914 32.1887 98.5832 32.297C98.4749 32.4052 98.3694 32.398 98.4002 32.398V30.998ZM97.2842 32.114V46.44H98.6842V32.114H97.2842ZM97.2842 46.44C97.2842 46.7166 97.3651 47.0463 97.6409 47.2932C97.902 47.5267 98.2236 47.582 98.4782 47.582V46.182C98.4034 46.182 98.4781 46.1636 98.5744 46.2498C98.6236 46.2938 98.6547 46.3452 98.671 46.389C98.6858 46.4287 98.6842 46.4502 98.6842 46.44H97.2842ZM98.4869 47.5819L106.859 47.4779L106.841 46.0781L98.4695 46.1821L98.4869 47.5819ZM106.85 47.478C107.105 47.478 107.426 47.4227 107.687 47.1892C107.963 46.9423 108.044 46.6126 108.044 46.336H106.644C106.644 46.3462 106.643 46.3247 106.657 46.285C106.674 46.2412 106.705 46.1898 106.754 46.1458C106.85 46.0596 106.925 46.078 106.85 46.078V47.478ZM108.044 46.336V41.396H106.644V46.336H108.044ZM108.044 41.396C108.044 41.1494 107.982 40.8359 107.735 40.589C107.488 40.3421 107.175 40.28 106.928 40.28V41.68C106.959 41.68 106.853 41.6872 106.745 41.579C106.637 41.4707 106.644 41.3652 106.644 41.396H108.044ZM106.928 40.28H103.21V41.68H106.928V40.28ZM103.21 40.28C103.191 40.28 103.302 40.2768 103.408 40.3897C103.507 40.4947 103.494 40.5876 103.494 40.538H102.094C102.094 40.783 102.151 41.097 102.388 41.3493C102.633 41.6095 102.952 41.68 103.21 41.68V40.28ZM103.494 40.538V39.758H102.094V40.538H103.494ZM103.494 39.758C103.494 39.7084 103.507 39.8013 103.408 39.9063C103.302 40.0192 103.191 40.016 103.21 40.016V38.616C102.952 38.616 102.633 38.6865 102.388 38.9467C102.151 39.199 102.094 39.513 102.094 39.758H103.494ZM103.21 40.016H108.904V38.616H103.21V40.016ZM108.904 40.016C108.935 40.016 108.829 40.0232 108.721 39.915C108.613 39.8067 108.62 39.7012 108.62 39.732H110.02C110.02 39.4854 109.958 39.1719 109.711 38.925C109.464 38.6781 109.151 38.616 108.904 38.616V40.016ZM108.62 39.732V48.39H110.02V39.732H108.62ZM108.62 48.39C108.62 48.4294 108.611 48.3304 108.715 48.2265C108.819 48.1226 108.918 48.132 108.878 48.132V49.532C109.133 49.532 109.453 49.4677 109.705 49.2165C109.956 48.9652 110.02 48.6452 110.02 48.39H108.62ZM108.878 48.132H107.734V49.532H108.878V48.132ZM107.734 48.132C107.715 48.132 107.826 48.1288 107.932 48.2417C108.031 48.3467 108.018 48.4396 108.018 48.39H106.618C106.618 48.635 106.675 48.949 106.912 49.2013C107.157 49.4615 107.476 49.532 107.734 49.532V48.132ZM108.018 48.39V48.286H106.618V48.39H108.018ZM108.018 48.286C108.018 47.9813 107.909 47.6112 107.551 47.3834C107.247 47.1898 106.901 47.1944 106.652 47.2284L106.841 48.6156C106.895 48.6081 106.916 48.6109 106.912 48.6104C106.908 48.6098 106.861 48.6036 106.799 48.5646C106.732 48.5215 106.678 48.4582 106.646 48.3892C106.632 48.3581 106.625 48.3318 106.622 48.3141C106.618 48.2966 106.618 48.2865 106.618 48.286H108.018ZM106.657 47.2277L99.3769 48.1637L99.5555 49.5523L106.835 48.6163L106.657 47.2277ZM99.3889 48.1623C99.0911 48.1954 98.8589 48.21 98.6862 48.21V49.61C98.9295 49.61 99.2173 49.59 99.5435 49.5537L99.3889 48.1623ZM98.6862 48.21C97.8928 48.21 97.4263 48.0121 97.1532 47.739C96.8801 47.4659 96.6822 46.9994 96.6822 46.206H95.2822C95.2822 47.2152 95.535 48.1007 96.1632 48.729C96.7915 49.3572 97.677 49.61 98.6862 49.61V48.21Z" fill="#D9D9D9" mask="url(#path-1-outside-1_29_55)"/>
</svg>
